<svg width="574" height="158" viewBox="0 0 574 158" fill="none" xmlns="http://www.w3.org/2000/svg">
<path d="M0.280273 7.08008H46.5596C73.1996 7.08008 88.5996 23.5201 88.5996 46.8301C88.5996 70.2501 72.9097 86.3501 45.9297 86.3501H25.0801V124.38H0.280273V7.08008ZM41.9199 66.48C56.1299 66.48 63.0596 58.4598 63.0596 46.8398C63.0596 35.1498 56.1296 27.3701 41.8096 27.3701H25.0801V66.4902H41.9199V66.48Z" fill="white"/>
<path d="M120.78 124.39H96.3799V7.08984H120.78V124.39Z" fill="white"/>
<path d="M128.06 99.8101C128.06 80.1701 143.7 74.3202 161.11 72.7202C176.4 71.2302 182.42 70.4801 182.42 64.8101V64.4702C182.42 57.2502 177.67 53.0698 169.36 53.0698C160.6 53.0698 155.38 57.37 153.72 63.21L131.16 61.3799C134.54 45.3399 148.4 35.2598 169.48 35.2598C189.07 35.2598 206.82 44.08 206.82 65.04V124.38H183.68V112.18H182.99C178.7 120.37 170.27 126.04 157.27 126.04C140.49 126.05 128.06 117.23 128.06 99.8101ZM182.59 92.9399V83.6001C179.67 85.5401 170.96 86.8098 165.64 87.5498C157.05 88.7498 151.38 92.1298 151.38 99.0098C151.38 105.71 156.76 109.2 164.27 109.2C174.97 109.21 182.59 102.16 182.59 92.9399Z" fill="white"/>
<path d="M264.5 54.7402H247.95V97.3501C247.95 104.11 251.33 105.94 256.2 105.94C258.49 105.94 261.07 105.37 262.27 105.14L266.1 123.3C263.64 124.1 259.17 125.36 252.87 125.59C235.17 126.34 223.43 117.8 223.54 100.56V54.7402H211.51V36.4102H223.54V15.3301H247.94V36.4102H264.49V54.7402H264.5Z" fill="white"/>
<path d="M267.94 80.7402C267.94 53.4802 284.55 35.2598 311.24 35.2598C337.93 35.2598 354.54 53.4702 354.54 80.7402C354.54 107.83 337.93 126.1 311.24 126.1C284.55 126.1 267.94 107.83 267.94 80.7402ZM329.74 80.5698C329.74 65.2198 323.44 53.8799 311.35 53.8799C299.04 53.8799 292.74 65.2198 292.74 80.5698C292.74 95.9198 299.04 107.2 311.35 107.2C323.44 107.2 329.74 95.9198 329.74 80.5698Z" fill="white"/>
<path d="M386.95 124.39H362.55V36.4102H385.8V51.9302H386.83C390.78 41.6802 400.23 35.2598 413.29 35.2598C431.62 35.2598 443.65 47.8601 443.65 68.3701V124.39H419.25V72.73C419.3 61.96 413.41 55.5498 403.61 55.5498C393.76 55.5498 387 62.1898 386.94 73.5298V124.39H386.95Z" fill="white"/>
<path d="M454.01 12.7002C454.01 5.9402 459.97 0.379883 467.18 0.379883C474.45 0.379883 480.41 5.9402 480.41 12.7002C480.41 19.5202 474.45 25.0698 467.18 25.0698C459.97 25.0698 454.01 19.5102 454.01 12.7002ZM454.93 36.4102H479.33V124.39H454.93V36.4102Z" fill="white"/>
<path d="M548.87 157.38V110.3H548.13C544.75 117.63 537.36 125.82 523.16 125.82C503.11 125.82 487.48 109.95 487.48 80.5098C487.48 50.2698 503.8 35.2598 523.1 35.2598C537.82 35.2598 544.87 44.0202 548.13 51.1802H549.22V36.3999H573.27V157.37H548.87V157.38ZM530.88 54.6802C518.79 54.6802 512.38 65.1699 512.38 80.3999C512.38 95.7499 518.91 106.4 530.88 106.4C542.62 106.4 549.38 96.0899 549.38 80.3999C549.38 64.7099 542.74 54.6802 530.88 54.6802Z" fill="white"/>
</svg>
