<svg width="570" height="177" viewBox="0 0 570 177" fill="none" xmlns="http://www.w3.org/2000/svg">
<path d="M3.08984 7.25977H48.8203C75.1403 7.25977 90.3701 23.51 90.3701 46.54C90.3701 69.69 74.8602 85.5898 48.2002 85.5898H27.5996V123.17H3.08984V7.25977ZM44.2402 65.96C58.2802 65.96 65.1201 58.03 65.1201 46.54C65.1201 34.99 58.2701 27.2998 44.1201 27.2998H27.5898V65.96H44.2402Z" fill="#53284F"/>
<path d="M122.14 123.18H98.0303V7.25977H122.14V123.18Z" fill="#53284F"/>
<path d="M129.32 98.8999C129.32 79.4899 144.77 73.7099 161.98 72.1299C177.09 70.6599 183.03 69.9198 183.03 64.3198V63.98C183.03 56.85 178.33 52.7202 170.13 52.7202C161.47 52.7202 156.32 56.9602 154.68 62.7402L132.38 60.9302C135.72 45.0802 149.42 35.1201 170.25 35.1201C189.61 35.1201 207.15 43.8398 207.15 64.5498V123.19H184.28V111.13H183.6C179.36 119.22 171.04 124.83 158.19 124.83C141.6 124.82 129.32 116.11 129.32 98.8999ZM183.2 92.1099V82.8799C180.31 84.7999 171.71 86.0498 166.45 86.7798C157.96 87.9698 152.36 91.3101 152.36 98.1001C152.36 104.72 157.68 108.17 165.09 108.17C175.68 108.18 183.2 101.22 183.2 92.1099Z" fill="#53284F"/>
<path d="M264.12 54.3599H247.76V96.4702C247.76 103.15 251.1 104.96 255.91 104.96C258.17 104.96 260.72 104.4 261.91 104.17L265.7 122.11C263.27 122.9 258.85 124.15 252.63 124.37C235.14 125.11 223.54 116.67 223.65 99.6401V54.3599H211.76V36.25H223.65V15.4199H247.76V36.25H264.12V54.3599Z" fill="#53284F"/>
<path d="M267.49 80.0498C267.49 53.1098 283.91 35.1099 310.28 35.1099C336.65 35.1099 353.07 53.1098 353.07 80.0498C353.07 106.82 336.65 124.88 310.28 124.88C283.91 124.88 267.49 106.83 267.49 80.0498ZM328.57 79.8799C328.57 64.7099 322.34 53.5 310.4 53.5C298.23 53.5 292 64.7099 292 79.8799C292 95.0499 298.23 106.2 310.4 106.2C322.34 106.2 328.57 95.0499 328.57 79.8799Z" fill="#53284F"/>
<path d="M385.07 123.18H360.96V36.2402H383.94V51.5801H384.96C388.86 41.4501 398.21 35.1099 411.11 35.1099C429.22 35.1099 441.11 47.5601 441.11 67.8301V123.19H417V72.1299C417.06 61.4899 411.23 55.1499 401.55 55.1499C391.82 55.1499 385.14 61.7199 385.08 72.9199V123.18H385.07Z" fill="#53284F"/>
<path d="M451.31 12.8101C451.31 6.13006 457.2 0.640137 464.33 0.640137C471.52 0.640137 477.41 6.13006 477.41 12.8101C477.41 19.5401 471.52 25.0298 464.33 25.0298C457.2 25.0398 451.31 19.5501 451.31 12.8101ZM452.22 36.2402H476.33V123.18H452.22V36.2402Z" fill="#53284F"/>
<path d="M545.04 155.79V109.26H544.31C540.97 116.51 533.67 124.6 519.63 124.6C499.82 124.6 484.37 108.92 484.37 79.8301C484.37 49.9401 500.5 35.1099 519.58 35.1099C534.13 35.1099 541.09 43.7701 544.31 50.8501H545.38V36.25H569.15V155.79H545.04ZM527.26 54.2998C515.32 54.2998 508.98 64.66 508.98 79.71C508.98 94.88 515.43 105.41 527.26 105.41C538.86 105.41 545.54 95.22 545.54 79.71C545.55 64.21 538.98 54.2998 527.26 54.2998Z" fill="#53284F"/>
<path d="M29.1602 149.65C28.0902 144.4 23.5002 140.43 17.4902 140.43C10.2202 140.43 4.2998 146.22 4.2998 156.84C4.2998 167.5 10.2202 173.25 17.4902 173.25C23.5102 173.25 28.1002 169.3 29.1602 164.03H32.6797C31.4297 171.07 25.6602 176.54 17.4902 176.54C7.80023 176.54 0.910156 168.84 0.910156 156.83C0.910156 144.82 7.80023 137.12 17.4902 137.12C25.6602 137.12 31.4297 142.57 32.6797 149.63H29.1602V149.65Z" fill="#53284F"/>
<path d="M37.6797 147.26H40.9199V151.68H41.1602C42.3202 148.78 45.4103 146.83 49.0303 146.83C49.5703 146.83 50.34 146.87 50.79 146.89V150.28C50.49 150.24 49.66 150.09 48.79 150.09C44.29 150.09 41.0098 153.18 41.0098 157.45V176.03H37.6699V147.26H37.6797Z" fill="#53284F"/>
<path d="M51.4902 161.81C51.4902 153.1 56.6396 146.86 64.0996 146.86C70.3396 146.86 76.2803 151.37 76.2803 160.99V162.64H54.8496C54.9996 169.29 58.7304 173.58 64.6104 173.58C68.6904 173.58 71.3004 171.44 72.4004 168.86L75.5703 169.89C74.2603 173.5 70.3804 176.63 64.6104 176.63C56.5404 176.63 51.4902 170.54 51.4902 161.81ZM72.8604 159.7C72.8604 154.15 69.2398 149.9 64.0898 149.9C58.8198 149.9 55.2096 154.34 54.8496 159.7H72.8604Z" fill="#53284F"/>
<path d="M79.6104 167.99C79.6104 162.29 84.1602 160.48 90.6602 159.67C95.4902 159.07 98.1904 159.03 98.1904 156.86V156.19C98.1904 152.25 95.7702 149.86 91.4102 149.86C87.2502 149.86 84.6496 151.98 83.5996 154.45L80.4297 153.31C82.3797 148.61 86.9096 146.87 91.3096 146.87C95.7096 146.87 101.52 148.78 101.52 156.5V176.04H98.1904V171.49H97.9805C96.7805 174.04 93.8596 176.7 89.0596 176.7C83.8496 176.69 79.6104 173.54 79.6104 167.99ZM98.2002 165V160.84C97.2202 161.8 93.0299 162.32 90.6699 162.6C85.7999 163.2 82.9502 164.66 82.9502 168.15C82.9502 171.64 85.7603 173.64 89.5303 173.64C94.8403 173.63 98.2002 169.72 98.2002 165Z" fill="#53284F"/>
<path d="M119.11 150.16H113.02V168.52C113.02 172.13 115.1 173.2 117.37 173.2C118.25 173.2 118.85 173.07 119.32 172.94L120.03 175.96C119.4 176.2 118.46 176.47 117.07 176.47C113.38 176.47 109.67 174.02 109.67 169.31V150.16H105.38V147.26H109.67V140.37H113.02V147.26H119.11V150.16Z" fill="#53284F"/>
<path d="M123.31 139.91C123.31 138.6 124.44 137.51 125.8 137.51C127.17 137.51 128.31 138.6 128.31 139.91C128.31 141.22 127.17 142.31 125.8 142.31C124.44 142.31 123.31 141.22 123.31 139.91ZM124.1 147.26H127.45V176.04H124.1V147.26Z" fill="#53284F"/>
<path d="M145.48 176.03H141.92L131.41 147.25H135.03L143.57 171.62H143.83L152.37 147.25H155.98L145.48 176.03Z" fill="#53284F"/>
<path d="M159.13 139.91C159.13 138.6 160.25 137.51 161.62 137.51C162.99 137.51 164.13 138.6 164.13 139.91C164.13 141.22 162.99 142.31 161.62 142.31C160.26 142.31 159.13 141.22 159.13 139.91ZM159.92 147.26H163.27V176.04H159.92V147.26Z" fill="#53284F"/>
<path d="M180.87 150.16H174.78V168.52C174.78 172.13 176.86 173.2 179.13 173.2C180.01 173.2 180.61 173.07 181.08 172.94L181.79 175.96C181.15 176.2 180.22 176.47 178.83 176.47C175.14 176.47 171.43 174.02 171.43 169.31V150.16H167.14V147.26H171.43V140.37H174.78V147.26H180.87V150.16Z" fill="#53284F"/>
<path d="M184.39 167.99C184.39 162.29 188.94 160.48 195.44 159.67C200.27 159.07 202.97 159.03 202.97 156.86V156.19C202.97 152.25 200.55 149.86 196.19 149.86C192.03 149.86 189.43 151.98 188.38 154.45L185.21 153.31C187.16 148.61 191.69 146.87 196.1 146.87C200.51 146.87 206.31 148.78 206.31 156.5V176.04H202.98V171.49H202.77C201.57 174.04 198.65 176.7 193.85 176.7C188.63 176.69 184.39 173.54 184.39 167.99ZM202.98 165V160.84C202.01 161.8 197.81 162.32 195.45 162.6C190.58 163.2 187.73 164.66 187.73 168.15C187.73 171.64 190.54 173.64 194.31 173.64C199.63 173.63 202.98 169.72 202.98 165Z" fill="#53284F"/>
<path d="M223.89 150.16H217.8V168.52C217.8 172.13 219.88 173.2 222.15 173.2C223.03 173.2 223.63 173.07 224.1 172.94L224.81 175.96C224.17 176.2 223.24 176.47 221.85 176.47C218.16 176.47 214.45 174.02 214.45 169.31V150.16H210.16V147.26H214.45V140.37H217.8V147.26H223.89V150.16Z" fill="#53284F"/>
<path d="M240.3 139.91C240.3 138.6 241.43 137.51 242.79 137.51C244.16 137.51 245.3 138.6 245.3 139.91C245.3 141.22 244.16 142.31 242.79 142.31C241.43 142.31 240.3 141.22 240.3 139.91ZM241.09 147.26H244.44V176.04H241.09V147.26Z" fill="#53284F"/>
<path d="M261.44 161.72C261.44 152.86 266.24 146.86 273.34 146.86C278.6 146.86 280.98 150.16 282.13 152.74H282.43V137.66H285.78V176.03H282.52V170.69H282.13C280.95 173.31 278.51 176.63 273.28 176.63C266.22 176.63 261.44 170.65 261.44 161.72ZM282.48 161.66C282.48 154.77 279.29 149.9 273.67 149.9C267.9 149.9 264.79 155.03 264.79 161.66C264.79 168.37 267.94 173.58 273.67 173.58C279.26 173.58 282.48 168.61 282.48 161.66Z" fill="#53284F"/>
<path d="M291.18 161.81C291.18 153.1 296.33 146.86 303.79 146.86C310.03 146.86 315.97 151.37 315.97 160.99V162.64H294.54C294.69 169.29 298.42 173.58 304.3 173.58C308.38 173.58 310.99 171.44 312.09 168.86L315.26 169.89C313.95 173.5 310.07 176.63 304.3 176.63C296.24 176.63 291.18 170.54 291.18 161.81ZM312.56 159.7C312.56 154.15 308.94 149.9 303.79 149.9C298.52 149.9 294.91 154.34 294.55 159.7H312.56Z" fill="#53284F"/>
<path d="M320.73 147.26H323.97V151.68H324.27C325.41 148.7 328.22 146.88 331.99 146.88C335.96 146.88 338.49 148.85 339.76 152.11H340C341.29 148.92 344.33 146.88 348.53 146.88C353.87 146.88 357.19 150.31 357.19 156.75V176.03H353.85V156.75C353.85 152.22 351.32 149.93 347.52 149.93C343.14 149.93 340.66 152.95 340.66 157.09V176.03H337.25V156.45C337.25 152.55 334.96 149.93 331.03 149.93C327.04 149.93 324.06 153.11 324.06 157.59V176.03H320.72V147.26H320.73Z" fill="#53284F"/>
<path d="M361.97 161.78C361.97 152.96 367.18 146.87 374.64 146.87C382.1 146.87 387.31 152.96 387.31 161.78C387.31 170.55 382.1 176.64 374.64 176.64C367.18 176.64 361.97 170.54 361.97 161.78ZM383.95 161.78C383.95 155.34 380.62 149.9 374.64 149.9C368.66 149.9 365.33 155.33 365.33 161.78C365.33 168.23 368.66 173.58 374.64 173.58C380.62 173.58 383.95 168.22 383.95 161.78Z" fill="#53284F"/>
<path d="M390.59 161.78C390.59 153.12 395.72 146.87 403.26 146.87C409.03 146.87 413.49 150.47 414.28 155.81H410.91C410.2 152.55 407.42 149.91 403.32 149.91C397.79 149.91 393.95 154.71 393.95 161.67C393.95 168.68 397.68 173.59 403.32 173.59C407.14 173.59 410.16 171.32 410.93 167.65H414.3C413.53 172.86 409.32 176.64 403.32 176.64C395.57 176.63 390.59 170.35 390.59 161.78Z" fill="#53284F"/>
<path d="M418.81 147.26H422.05V151.68H422.29C423.45 148.78 426.54 146.83 430.16 146.83C430.7 146.83 431.47 146.87 431.92 146.89V150.28C431.62 150.24 430.79 150.09 429.91 150.09C425.41 150.09 422.14 153.18 422.14 157.45V176.03H418.8V147.26H418.81Z" fill="#53284F"/>
<path d="M433.58 167.99C433.58 162.29 438.13 160.48 444.63 159.67C449.46 159.07 452.16 159.03 452.16 156.86V156.19C452.16 152.25 449.74 149.86 445.38 149.86C441.22 149.86 438.62 151.98 437.57 154.45L434.4 153.31C436.35 148.61 440.88 146.87 445.28 146.87C449.68 146.87 455.49 148.78 455.49 156.5V176.04H452.16V171.49H451.95C450.75 174.04 447.83 176.7 443.03 176.7C437.81 176.69 433.58 173.54 433.58 167.99ZM452.16 165V160.84C451.18 161.8 446.99 162.32 444.63 162.6C439.76 163.2 436.91 164.66 436.91 168.15C436.91 171.64 439.72 173.64 443.49 173.64C448.8 173.63 452.16 169.72 452.16 165ZM438.41 134.76H442.37L447.17 143.26H444.17L438.41 134.76Z" fill="#53284F"/>
<path d="M460.26 161.78C460.26 153.12 465.39 146.87 472.92 146.87C478.69 146.87 483.15 150.47 483.94 155.81H480.57C479.86 152.55 477.08 149.91 472.98 149.91C467.45 149.91 463.61 154.71 463.61 161.67C463.61 168.68 467.34 173.59 472.98 173.59C476.8 173.59 479.82 171.32 480.59 167.65H483.96C483.19 172.86 478.98 176.64 472.98 176.64C465.24 176.63 460.26 170.35 460.26 161.78Z" fill="#53284F"/>
<path d="M487.73 139.91C487.73 138.6 488.85 137.51 490.22 137.51C491.59 137.51 492.73 138.6 492.73 139.91C492.73 141.22 491.59 142.31 490.22 142.31C488.86 142.31 487.73 141.22 487.73 139.91ZM488.52 147.26H491.87V176.04H488.52V147.26Z" fill="#53284F"/>
<path d="M496.721 167.99C496.721 162.29 501.271 160.48 507.771 159.67C512.601 159.07 515.3 159.03 515.3 156.86V156.19C515.3 152.25 512.881 149.86 508.521 149.86C504.361 149.86 501.76 151.98 500.71 154.45L497.541 153.31C499.491 148.61 504.021 146.87 508.431 146.87C512.841 146.87 518.641 148.78 518.641 156.5V176.04H515.311V171.49H515.101C513.901 174.04 510.981 176.7 506.181 176.7C500.951 176.69 496.721 173.54 496.721 167.99ZM515.3 165V160.84C514.32 161.8 510.131 162.32 507.771 162.6C502.901 163.2 500.05 164.66 500.05 168.15C500.05 171.64 502.86 173.64 506.63 173.64C511.95 173.63 515.3 169.72 515.3 165Z" fill="#53284F"/>
</svg>
