<svg width="570" height="177" viewBox="0 0 570 177" fill="none" xmlns="http://www.w3.org/2000/svg">
<path d="M3.08984 7.37012H48.8203C75.1403 7.37012 90.3701 23.6199 90.3701 46.6499C90.3701 69.7999 74.8602 85.7002 48.2002 85.7002H27.5996V123.28H3.08984V7.37012ZM44.2402 66.0601C58.2802 66.0601 65.1201 58.1301 65.1201 46.6401C65.1201 35.0901 58.2701 27.3999 44.1201 27.3999H27.5898V66.0601H44.2402Z" fill="white"/>
<path d="M122.14 123.29H98.0303V7.37012H122.14V123.29Z" fill="white"/>
<path d="M129.32 99C129.32 79.59 144.77 73.81 161.98 72.23C177.09 70.76 183.03 70.0199 183.03 64.4199V64.0801C183.03 56.9501 178.33 52.8198 170.13 52.8198C161.47 52.8198 156.32 57.0698 154.68 62.8398L132.38 61.0298C135.72 45.1798 149.42 35.2202 170.25 35.2202C189.61 35.2202 207.15 43.9399 207.15 64.6499V123.29H184.28V111.23H183.6C179.36 119.32 171.04 124.93 158.19 124.93C141.6 124.93 129.32 116.21 129.32 99ZM183.2 92.21V82.98C180.31 84.9 171.71 86.1499 166.45 86.8799C157.96 88.0699 152.36 91.4102 152.36 98.2002C152.36 104.82 157.68 108.27 165.09 108.27C175.68 108.29 183.2 101.33 183.2 92.21Z" fill="white"/>
<path d="M264.12 54.46H247.76V96.5698C247.76 103.25 251.1 105.06 255.91 105.06C258.17 105.06 260.72 104.5 261.91 104.27L265.7 122.21C263.27 123 258.85 124.25 252.63 124.47C235.14 125.21 223.54 116.77 223.65 99.7402V54.46H211.76V36.3501H223.65V15.52H247.76V36.3501H264.12V54.46Z" fill="white"/>
<path d="M267.49 80.1602C267.49 53.2202 283.91 35.2202 310.28 35.2202C336.65 35.2202 353.07 53.2202 353.07 80.1602C353.07 106.93 336.65 124.99 310.28 124.99C283.91 124.99 267.49 106.93 267.49 80.1602ZM328.57 79.9902C328.57 64.8202 322.34 53.6099 310.4 53.6099C298.23 53.6099 292 64.8202 292 79.9902C292 95.1602 298.23 106.31 310.4 106.31C322.34 106.31 328.57 95.1602 328.57 79.9902Z" fill="white"/>
<path d="M385.07 123.29H360.96V36.3501H383.94V51.6899H384.96C388.86 41.5599 398.21 35.2202 411.11 35.2202C429.22 35.2202 441.11 47.6699 441.11 67.9399V123.3H417V72.2402C417.06 61.6002 411.23 55.2598 401.55 55.2598C391.82 55.2598 385.14 61.8298 385.08 73.0298V123.29H385.07Z" fill="white"/>
<path d="M451.31 12.9199C451.31 6.23992 457.2 0.75 464.33 0.75C471.52 0.75 477.41 6.23992 477.41 12.9199C477.41 19.6499 471.52 25.1401 464.33 25.1401C457.2 25.1401 451.31 19.6499 451.31 12.9199ZM452.22 36.3501H476.33V123.29H452.22V36.3501Z" fill="white"/>
<path d="M545.04 155.89V109.36H544.31C540.97 116.61 533.67 124.7 519.63 124.7C499.82 124.7 484.37 109.02 484.37 79.9302C484.37 50.0402 500.5 35.21 519.58 35.21C534.13 35.21 541.09 43.8702 544.31 50.9502H545.38V36.3501H569.15V155.89H545.04ZM527.26 54.3999C515.32 54.3999 508.98 64.7601 508.98 79.8101C508.98 94.9801 515.43 105.51 527.26 105.51C538.86 105.51 545.54 95.3201 545.54 79.8101C545.55 64.3101 538.98 54.3999 527.26 54.3999Z" fill="white"/>
<path d="M29.1602 149.76C28.0902 144.51 23.5002 140.54 17.4902 140.54C10.2202 140.54 4.2998 146.33 4.2998 156.95C4.2998 167.61 10.2202 173.36 17.4902 173.36C23.5102 173.36 28.1002 169.41 29.1602 164.14H32.6797C31.4297 171.18 25.6602 176.65 17.4902 176.65C7.80023 176.65 0.910156 168.95 0.910156 156.94C0.910156 144.93 7.80023 137.23 17.4902 137.23C25.6602 137.23 31.4297 142.68 32.6797 149.74H29.1602V149.76Z" fill="white"/>
<path d="M37.6797 147.36H40.9199V151.78H41.1602C42.3202 148.88 45.4103 146.93 49.0303 146.93C49.5703 146.93 50.34 146.97 50.79 146.99V150.38C50.49 150.34 49.66 150.19 48.79 150.19C44.29 150.19 41.0098 153.28 41.0098 157.55V176.13H37.6699V147.36H37.6797Z" fill="white"/>
<path d="M51.4902 161.92C51.4902 153.21 56.6396 146.97 64.0996 146.97C70.3396 146.97 76.2803 151.48 76.2803 161.1V162.75H54.8496C54.9996 169.4 58.7304 173.69 64.6104 173.69C68.6904 173.69 71.3004 171.55 72.4004 168.97L75.5703 170C74.2603 173.61 70.3804 176.74 64.6104 176.74C56.5404 176.74 51.4902 170.65 51.4902 161.92ZM72.8604 159.8C72.8604 154.25 69.2398 150 64.0898 150C58.8198 150 55.2096 154.44 54.8496 159.8H72.8604Z" fill="white"/>
<path d="M79.6104 168.1C79.6104 162.4 84.1602 160.59 90.6602 159.78C95.4902 159.18 98.1904 159.14 98.1904 156.97V156.3C98.1904 152.36 95.7702 149.97 91.4102 149.97C87.2502 149.97 84.6496 152.09 83.5996 154.56L80.4297 153.42C82.3797 148.72 86.9096 146.98 91.3096 146.98C95.7096 146.98 101.52 148.89 101.52 156.61V176.15H98.1904V171.6H97.9805C96.7805 174.15 93.8596 176.81 89.0596 176.81C83.8496 176.79 79.6104 173.64 79.6104 168.1ZM98.2002 165.1V160.94C97.2202 161.9 93.0299 162.42 90.6699 162.7C85.7999 163.3 82.9502 164.76 82.9502 168.25C82.9502 171.74 85.7603 173.74 89.5303 173.74C94.8403 173.74 98.2002 169.82 98.2002 165.1Z" fill="white"/>
<path d="M119.11 150.26H113.02V168.62C113.02 172.23 115.1 173.3 117.37 173.3C118.25 173.3 118.85 173.17 119.32 173.04L120.03 176.06C119.4 176.3 118.46 176.57 117.07 176.57C113.38 176.57 109.67 174.12 109.67 169.41V150.26H105.38V147.36H109.67V140.47H113.02V147.36H119.11V150.26Z" fill="white"/>
<path d="M123.31 140.02C123.31 138.71 124.44 137.62 125.8 137.62C127.17 137.62 128.31 138.71 128.31 140.02C128.31 141.33 127.17 142.42 125.8 142.42C124.44 142.41 123.31 141.33 123.31 140.02ZM124.1 147.36H127.45V176.14H124.1V147.36Z" fill="white"/>
<path d="M145.48 176.14H141.92L131.41 147.36H135.03L143.57 171.73H143.83L152.37 147.36H155.98L145.48 176.14Z" fill="white"/>
<path d="M159.13 140.02C159.13 138.71 160.25 137.62 161.62 137.62C162.99 137.62 164.13 138.71 164.13 140.02C164.13 141.33 162.99 142.42 161.62 142.42C160.26 142.41 159.13 141.33 159.13 140.02ZM159.92 147.36H163.27V176.14H159.92V147.36Z" fill="white"/>
<path d="M180.87 150.26H174.78V168.62C174.78 172.23 176.86 173.3 179.13 173.3C180.01 173.3 180.61 173.17 181.08 173.04L181.79 176.06C181.15 176.3 180.22 176.57 178.83 176.57C175.14 176.57 171.43 174.12 171.43 169.41V150.26H167.14V147.36H171.43V140.47H174.78V147.36H180.87V150.26Z" fill="white"/>
<path d="M184.39 168.1C184.39 162.4 188.94 160.59 195.44 159.78C200.27 159.18 202.97 159.14 202.97 156.97V156.3C202.97 152.36 200.55 149.97 196.19 149.97C192.03 149.97 189.43 152.09 188.38 154.56L185.21 153.42C187.16 148.72 191.69 146.98 196.1 146.98C200.51 146.98 206.31 148.89 206.31 156.61V176.15H202.98V171.6H202.77C201.57 174.15 198.65 176.81 193.85 176.81C188.63 176.79 184.39 173.64 184.39 168.1ZM202.98 165.1V160.94C202.01 161.9 197.81 162.42 195.45 162.7C190.58 163.3 187.73 164.76 187.73 168.25C187.73 171.74 190.54 173.74 194.31 173.74C199.63 173.74 202.98 169.82 202.98 165.1Z" fill="white"/>
<path d="M223.89 150.26H217.8V168.62C217.8 172.23 219.88 173.3 222.15 173.3C223.03 173.3 223.63 173.17 224.1 173.04L224.81 176.06C224.17 176.3 223.24 176.57 221.85 176.57C218.16 176.57 214.45 174.12 214.45 169.41V150.26H210.16V147.36H214.45V140.47H217.8V147.36H223.89V150.26Z" fill="white"/>
<path d="M240.3 140.02C240.3 138.71 241.43 137.62 242.79 137.62C244.16 137.62 245.3 138.71 245.3 140.02C245.3 141.33 244.16 142.42 242.79 142.42C241.43 142.41 240.3 141.33 240.3 140.02ZM241.09 147.36H244.44V176.14H241.09V147.36Z" fill="white"/>
<path d="M261.44 161.82C261.44 152.96 266.24 146.96 273.34 146.96C278.6 146.96 280.98 150.26 282.13 152.84H282.43V137.76H285.78V176.13H282.52V170.79H282.13C280.95 173.41 278.51 176.73 273.28 176.73C266.22 176.74 261.44 170.76 261.44 161.82ZM282.48 161.77C282.48 154.88 279.29 150.01 273.67 150.01C267.9 150.01 264.79 155.14 264.79 161.77C264.79 168.48 267.94 173.69 273.67 173.69C279.26 173.68 282.48 168.72 282.48 161.77Z" fill="white"/>
<path d="M291.18 161.92C291.18 153.21 296.33 146.97 303.79 146.97C310.03 146.97 315.97 151.48 315.97 161.1V162.75H294.54C294.69 169.4 298.42 173.69 304.3 173.69C308.38 173.69 310.99 171.55 312.09 168.97L315.26 170C313.95 173.61 310.07 176.74 304.3 176.74C296.24 176.74 291.18 170.65 291.18 161.92ZM312.56 159.8C312.56 154.25 308.94 150 303.79 150C298.52 150 294.91 154.44 294.55 159.8H312.56Z" fill="white"/>
<path d="M320.73 147.36H323.97V151.78H324.27C325.41 148.8 328.22 146.98 331.99 146.98C335.96 146.98 338.49 148.95 339.76 152.21H340C341.29 149.02 344.33 146.98 348.53 146.98C353.87 146.98 357.19 150.41 357.19 156.85V176.13H353.85V156.85C353.85 152.32 351.32 150.03 347.52 150.03C343.14 150.03 340.66 153.05 340.66 157.19V176.13H337.25V156.55C337.25 152.65 334.96 150.03 331.03 150.03C327.04 150.03 324.06 153.21 324.06 157.69V176.13H320.72V147.36H320.73Z" fill="white"/>
<path d="M361.97 161.88C361.97 153.05 367.18 146.97 374.64 146.97C382.1 146.97 387.31 153.06 387.31 161.88C387.31 170.65 382.1 176.74 374.64 176.74C367.18 176.74 361.97 170.65 361.97 161.88ZM383.95 161.88C383.95 155.44 380.62 150 374.64 150C368.66 150 365.33 155.43 365.33 161.88C365.33 168.33 368.66 173.68 374.64 173.68C380.62 173.68 383.95 168.32 383.95 161.88Z" fill="white"/>
<path d="M390.59 161.88C390.59 153.22 395.72 146.97 403.26 146.97C409.03 146.97 413.49 150.57 414.28 155.91H410.91C410.2 152.65 407.42 150.01 403.32 150.01C397.79 150.01 393.95 154.81 393.95 161.77C393.95 168.78 397.68 173.69 403.32 173.69C407.14 173.69 410.16 171.42 410.93 167.75H414.3C413.53 172.96 409.32 176.74 403.32 176.74C395.57 176.74 390.59 170.46 390.59 161.88Z" fill="white"/>
<path d="M418.81 147.36H422.05V151.78H422.29C423.45 148.88 426.54 146.93 430.16 146.93C430.7 146.93 431.47 146.97 431.92 146.99V150.38C431.62 150.34 430.79 150.19 429.91 150.19C425.41 150.19 422.14 153.28 422.14 157.55V176.13H418.8V147.36H418.81Z" fill="white"/>
<path d="M433.58 168.1C433.58 162.4 438.13 160.59 444.63 159.78C449.46 159.18 452.16 159.14 452.16 156.97V156.3C452.16 152.36 449.74 149.97 445.38 149.97C441.22 149.97 438.62 152.09 437.57 154.56L434.4 153.42C436.35 148.72 440.88 146.98 445.28 146.98C449.68 146.98 455.49 148.89 455.49 156.61V176.15H452.16V171.6H451.95C450.75 174.15 447.83 176.81 443.03 176.81C437.81 176.79 433.58 173.64 433.58 168.1ZM452.16 165.1V160.94C451.18 161.9 446.99 162.42 444.63 162.7C439.76 163.3 436.91 164.76 436.91 168.25C436.91 171.74 439.72 173.74 443.49 173.74C448.8 173.74 452.16 169.82 452.16 165.1ZM438.41 134.86H442.37L447.17 143.36H444.17L438.41 134.86Z" fill="white"/>
<path d="M460.26 161.88C460.26 153.22 465.39 146.97 472.92 146.97C478.69 146.97 483.15 150.57 483.94 155.91H480.57C479.86 152.65 477.08 150.01 472.98 150.01C467.45 150.01 463.61 154.81 463.61 161.77C463.61 168.78 467.34 173.69 472.98 173.69C476.8 173.69 479.82 171.42 480.59 167.75H483.96C483.19 172.96 478.98 176.74 472.98 176.74C465.24 176.74 460.26 170.46 460.26 161.88Z" fill="white"/>
<path d="M487.73 140.02C487.73 138.71 488.85 137.62 490.22 137.62C491.59 137.62 492.73 138.71 492.73 140.02C492.73 141.33 491.59 142.42 490.22 142.42C488.86 142.41 487.73 141.33 487.73 140.02ZM488.52 147.36H491.87V176.14H488.52V147.36Z" fill="white"/>
<path d="M496.721 168.1C496.721 162.4 501.271 160.59 507.771 159.78C512.601 159.18 515.3 159.14 515.3 156.97V156.3C515.3 152.36 512.881 149.97 508.521 149.97C504.361 149.97 501.76 152.09 500.71 154.56L497.541 153.42C499.491 148.72 504.021 146.98 508.431 146.98C512.841 146.98 518.641 148.89 518.641 156.61V176.15H515.311V171.6H515.101C513.901 174.15 510.981 176.81 506.181 176.81C500.951 176.79 496.721 173.64 496.721 168.1ZM515.3 165.1V160.94C514.32 161.9 510.131 162.42 507.771 162.7C502.901 163.3 500.05 164.76 500.05 168.25C500.05 171.74 502.86 173.74 506.63 173.74C511.95 173.74 515.3 169.82 515.3 165.1Z" fill="white"/>
</svg>
