<svg width="570" height="177" viewBox="0 0 570 177" fill="none" xmlns="http://www.w3.org/2000/svg">
<path d="M3.08984 6.81982H48.8203C75.1403 6.81982 90.3701 23.0701 90.3701 46.1001C90.3701 69.2501 74.8602 85.1499 48.2002 85.1499H27.5996V122.73H3.08984V6.81982ZM44.2402 65.52C58.2802 65.52 65.1201 57.5901 65.1201 46.1001C65.1201 34.5501 58.2701 26.8599 44.1201 26.8599H27.5898V65.52H44.2402Z" fill="#1D1D1B"/>
<path d="M122.14 122.74H98.0303V6.81982H122.14V122.74Z" fill="#1D1D1B"/>
<path d="M129.32 98.46C129.32 79.05 144.77 73.2699 161.98 71.6899C177.09 70.2199 183.03 69.4799 183.03 63.8799V63.54C183.03 56.41 178.33 52.2798 170.13 52.2798C161.47 52.2798 156.32 56.5198 154.68 62.2998L132.38 60.4902C135.72 44.6402 149.42 34.6802 170.25 34.6802C189.61 34.6802 207.15 43.3999 207.15 64.1099V122.75H184.28V110.69H183.6C179.36 118.78 171.04 124.39 158.19 124.39C141.6 124.38 129.32 115.67 129.32 98.46ZM183.2 91.6699V82.4399C180.31 84.3599 171.71 85.6098 166.45 86.3398C157.96 87.5298 152.36 90.8702 152.36 97.6602C152.36 104.28 157.68 107.73 165.09 107.73C175.68 107.74 183.2 100.78 183.2 91.6699Z" fill="#1D1D1B"/>
<path d="M264.12 53.9199H247.76V96.0298C247.76 102.71 251.1 104.52 255.91 104.52C258.17 104.52 260.72 103.96 261.91 103.73L265.7 121.67C263.27 122.46 258.85 123.71 252.63 123.93C235.14 124.67 223.54 116.23 223.65 99.2002V53.9199H211.76V35.8101H223.65V14.98H247.76V35.8101H264.12V53.9199Z" fill="#1D1D1B"/>
<path d="M267.49 79.6099C267.49 52.6699 283.91 34.6699 310.28 34.6699C336.65 34.6699 353.07 52.6699 353.07 79.6099C353.07 106.38 336.65 124.44 310.28 124.44C283.91 124.44 267.49 106.39 267.49 79.6099ZM328.57 79.4399C328.57 64.2699 322.34 53.0601 310.4 53.0601C298.23 53.0601 292 64.2699 292 79.4399C292 94.6099 298.23 105.76 310.4 105.76C322.34 105.76 328.57 94.6099 328.57 79.4399Z" fill="#1D1D1B"/>
<path d="M385.07 122.74H360.96V35.7998H383.94V51.1401H384.96C388.86 41.0101 398.21 34.6699 411.11 34.6699C429.22 34.6699 441.11 47.1201 441.11 67.3901V122.75H417V71.6899C417.06 61.0499 411.23 54.71 401.55 54.71C391.82 54.71 385.14 61.28 385.08 72.48V122.74H385.07Z" fill="#1D1D1B"/>
<path d="M451.31 12.3701C451.31 5.69012 457.2 0.200195 464.33 0.200195C471.52 0.200195 477.41 5.69012 477.41 12.3701C477.41 19.1001 471.52 24.5898 464.33 24.5898C457.2 24.5998 451.31 19.1101 451.31 12.3701ZM452.22 35.7998H476.33V122.74H452.22V35.7998Z" fill="#1D1D1B"/>
<path d="M545.04 155.34V108.81H544.31C540.97 116.06 533.67 124.15 519.63 124.15C499.82 124.15 484.37 108.47 484.37 79.3799C484.37 49.4899 500.5 34.6602 519.58 34.6602C534.13 34.6602 541.09 43.3199 544.31 50.3999H545.38V35.7998H569.15V155.34H545.04ZM527.26 53.8599C515.32 53.8599 508.98 64.22 508.98 79.27C508.98 94.44 515.43 104.97 527.26 104.97C538.86 104.97 545.54 94.78 545.54 79.27C545.55 63.76 538.98 53.8599 527.26 53.8599Z" fill="#1D1D1B"/>
<path d="M29.1602 149.21C28.0902 143.96 23.5002 139.99 17.4902 139.99C10.2202 139.99 4.2998 145.78 4.2998 156.4C4.2998 167.06 10.2202 172.81 17.4902 172.81C23.5102 172.81 28.1002 168.86 29.1602 163.59H32.6797C31.4297 170.63 25.6602 176.1 17.4902 176.1C7.80023 176.1 0.910156 168.4 0.910156 156.39C0.910156 144.38 7.80023 136.68 17.4902 136.68C25.6602 136.68 31.4297 142.13 32.6797 149.19H29.1602V149.21Z" fill="#1D1D1B"/>
<path d="M37.6797 146.81H40.9199V151.23H41.1602C42.3202 148.33 45.4103 146.38 49.0303 146.38C49.5703 146.38 50.34 146.42 50.79 146.44V149.83C50.49 149.79 49.66 149.64 48.79 149.64C44.29 149.64 41.0098 152.73 41.0098 157V175.58H37.6699V146.81H37.6797Z" fill="#1D1D1B"/>
<path d="M51.4902 161.37C51.4902 152.66 56.6396 146.42 64.0996 146.42C70.3396 146.42 76.2803 150.93 76.2803 160.55V162.2H54.8496C54.9996 168.85 58.7304 173.14 64.6104 173.14C68.6904 173.14 71.3004 171 72.4004 168.42L75.5703 169.45C74.2603 173.06 70.3804 176.19 64.6104 176.19C56.5404 176.19 51.4902 170.1 51.4902 161.37ZM72.8604 159.25C72.8604 153.7 69.2398 149.45 64.0898 149.45C58.8198 149.45 55.2096 153.89 54.8496 159.25H72.8604Z" fill="#1D1D1B"/>
<path d="M79.6104 167.55C79.6104 161.85 84.1602 160.04 90.6602 159.23C95.4902 158.63 98.1904 158.59 98.1904 156.42V155.75C98.1904 151.81 95.7702 149.42 91.4102 149.42C87.2502 149.42 84.6496 151.54 83.5996 154.01L80.4297 152.87C82.3797 148.17 86.9096 146.43 91.3096 146.43C95.7096 146.43 101.52 148.34 101.52 156.06V175.6H98.1904V171.05H97.9805C96.7805 173.6 93.8596 176.26 89.0596 176.26C83.8496 176.25 79.6104 173.1 79.6104 167.55ZM98.2002 164.56V160.4C97.2202 161.36 93.0299 161.88 90.6699 162.16C85.7999 162.76 82.9502 164.22 82.9502 167.71C82.9502 171.2 85.7603 173.2 89.5303 173.2C94.8403 173.19 98.2002 169.28 98.2002 164.56Z" fill="#1D1D1B"/>
<path d="M119.11 149.72H113.02V168.08C113.02 171.69 115.1 172.76 117.37 172.76C118.25 172.76 118.85 172.63 119.32 172.5L120.03 175.52C119.4 175.76 118.46 176.03 117.07 176.03C113.38 176.03 109.67 173.58 109.67 168.87V149.72H105.38V146.82H109.67V139.93H113.02V146.82H119.11V149.72Z" fill="#1D1D1B"/>
<path d="M123.31 139.47C123.31 138.16 124.44 137.07 125.8 137.07C127.17 137.07 128.31 138.16 128.31 139.47C128.31 140.78 127.17 141.87 125.8 141.87C124.44 141.87 123.31 140.78 123.31 139.47ZM124.1 146.81H127.45V175.59H124.1V146.81Z" fill="#1D1D1B"/>
<path d="M145.48 175.59H141.92L131.41 146.81H135.03L143.57 171.18H143.83L152.37 146.81H155.98L145.48 175.59Z" fill="#1D1D1B"/>
<path d="M159.13 139.47C159.13 138.16 160.25 137.07 161.62 137.07C162.99 137.07 164.13 138.16 164.13 139.47C164.13 140.78 162.99 141.87 161.62 141.87C160.26 141.87 159.13 140.78 159.13 139.47ZM159.92 146.81H163.27V175.59H159.92V146.81Z" fill="#1D1D1B"/>
<path d="M180.87 149.72H174.78V168.08C174.78 171.69 176.86 172.76 179.13 172.76C180.01 172.76 180.61 172.63 181.08 172.5L181.79 175.52C181.15 175.76 180.22 176.03 178.83 176.03C175.14 176.03 171.43 173.58 171.43 168.87V149.72H167.14V146.82H171.43V139.93H174.78V146.82H180.87V149.72Z" fill="#1D1D1B"/>
<path d="M184.39 167.55C184.39 161.85 188.94 160.04 195.44 159.23C200.27 158.63 202.97 158.59 202.97 156.42V155.75C202.97 151.81 200.55 149.42 196.19 149.42C192.03 149.42 189.43 151.54 188.38 154.01L185.21 152.87C187.16 148.17 191.69 146.43 196.1 146.43C200.51 146.43 206.31 148.34 206.31 156.06V175.6H202.98V171.05H202.77C201.57 173.6 198.65 176.26 193.85 176.26C188.63 176.25 184.39 173.1 184.39 167.55ZM202.98 164.56V160.4C202.01 161.36 197.81 161.88 195.45 162.16C190.58 162.76 187.73 164.22 187.73 167.71C187.73 171.2 190.54 173.2 194.31 173.2C199.63 173.19 202.98 169.28 202.98 164.56Z" fill="#1D1D1B"/>
<path d="M223.89 149.72H217.8V168.08C217.8 171.69 219.88 172.76 222.15 172.76C223.03 172.76 223.63 172.63 224.1 172.5L224.81 175.52C224.17 175.76 223.24 176.03 221.85 176.03C218.16 176.03 214.45 173.58 214.45 168.87V149.72H210.16V146.82H214.45V139.93H217.8V146.82H223.89V149.72Z" fill="#1D1D1B"/>
<path d="M240.3 139.47C240.3 138.16 241.43 137.07 242.79 137.07C244.16 137.07 245.3 138.16 245.3 139.47C245.3 140.78 244.16 141.87 242.79 141.87C241.43 141.87 240.3 140.78 240.3 139.47ZM241.09 146.81H244.44V175.59H241.09V146.81Z" fill="#1D1D1B"/>
<path d="M261.44 161.28C261.44 152.42 266.24 146.42 273.34 146.42C278.6 146.42 280.98 149.72 282.13 152.3H282.43V137.22H285.78V175.59H282.52V170.25H282.13C280.95 172.87 278.51 176.19 273.28 176.19C266.22 176.19 261.44 170.21 261.44 161.28ZM282.48 161.22C282.48 154.33 279.29 149.46 273.67 149.46C267.9 149.46 264.79 154.59 264.79 161.22C264.79 167.93 267.94 173.14 273.67 173.14C279.26 173.14 282.48 168.17 282.48 161.22Z" fill="#1D1D1B"/>
<path d="M291.18 161.37C291.18 152.66 296.33 146.42 303.79 146.42C310.03 146.42 315.97 150.93 315.97 160.55V162.2H294.54C294.69 168.85 298.42 173.14 304.3 173.14C308.38 173.14 310.99 171 312.09 168.42L315.26 169.45C313.95 173.06 310.07 176.19 304.3 176.19C296.24 176.19 291.18 170.1 291.18 161.37ZM312.56 159.25C312.56 153.7 308.94 149.45 303.79 149.45C298.52 149.45 294.91 153.89 294.55 159.25H312.56Z" fill="#1D1D1B"/>
<path d="M320.73 146.81H323.97V151.23H324.27C325.41 148.25 328.22 146.43 331.99 146.43C335.96 146.43 338.49 148.4 339.76 151.66H340C341.29 148.47 344.33 146.43 348.53 146.43C353.87 146.43 357.19 149.86 357.19 156.3V175.58H353.85V156.3C353.85 151.77 351.32 149.48 347.52 149.48C343.14 149.48 340.66 152.5 340.66 156.64V175.58H337.25V156C337.25 152.1 334.96 149.48 331.03 149.48C327.04 149.48 324.06 152.66 324.06 157.14V175.58H320.72V146.81H320.73Z" fill="#1D1D1B"/>
<path d="M361.97 161.33C361.97 152.51 367.18 146.42 374.64 146.42C382.1 146.42 387.31 152.51 387.31 161.33C387.31 170.1 382.1 176.19 374.64 176.19C367.18 176.19 361.97 170.1 361.97 161.33ZM383.95 161.33C383.95 154.89 380.62 149.45 374.64 149.45C368.66 149.45 365.33 154.88 365.33 161.33C365.33 167.78 368.66 173.13 374.64 173.13C380.62 173.13 383.95 167.78 383.95 161.33Z" fill="#1D1D1B"/>
<path d="M390.59 161.33C390.59 152.67 395.72 146.42 403.26 146.42C409.03 146.42 413.49 150.02 414.28 155.36H410.91C410.2 152.1 407.42 149.46 403.32 149.46C397.79 149.46 393.95 154.26 393.95 161.22C393.95 168.23 397.68 173.14 403.32 173.14C407.14 173.14 410.16 170.87 410.93 167.2H414.3C413.53 172.41 409.32 176.19 403.32 176.19C395.57 176.19 390.59 169.91 390.59 161.33Z" fill="#1D1D1B"/>
<path d="M418.81 146.81H422.05V151.23H422.29C423.45 148.33 426.54 146.38 430.16 146.38C430.7 146.38 431.47 146.42 431.92 146.44V149.83C431.62 149.79 430.79 149.64 429.91 149.64C425.41 149.64 422.14 152.73 422.14 157V175.58H418.8V146.81H418.81Z" fill="#1D1D1B"/>
<path d="M433.58 167.55C433.58 161.85 438.13 160.04 444.63 159.23C449.46 158.63 452.16 158.59 452.16 156.42V155.75C452.16 151.81 449.74 149.42 445.38 149.42C441.22 149.42 438.62 151.54 437.57 154.01L434.4 152.87C436.35 148.17 440.88 146.43 445.28 146.43C449.68 146.43 455.49 148.34 455.49 156.06V175.6H452.16V171.05H451.95C450.75 173.6 447.83 176.26 443.03 176.26C437.81 176.25 433.58 173.1 433.58 167.55ZM452.16 164.56V160.4C451.18 161.36 446.99 161.88 444.63 162.16C439.76 162.76 436.91 164.22 436.91 167.71C436.91 171.2 439.72 173.2 443.49 173.2C448.8 173.19 452.16 169.28 452.16 164.56ZM438.41 134.32H442.37L447.17 142.82H444.17L438.41 134.32Z" fill="#1D1D1B"/>
<path d="M460.26 161.33C460.26 152.67 465.39 146.42 472.92 146.42C478.69 146.42 483.15 150.02 483.94 155.36H480.57C479.86 152.1 477.08 149.46 472.98 149.46C467.45 149.46 463.61 154.26 463.61 161.22C463.61 168.23 467.34 173.14 472.98 173.14C476.8 173.14 479.82 170.87 480.59 167.2H483.96C483.19 172.41 478.98 176.19 472.98 176.19C465.24 176.19 460.26 169.91 460.26 161.33Z" fill="#1D1D1B"/>
<path d="M487.73 139.47C487.73 138.16 488.85 137.07 490.22 137.07C491.59 137.07 492.73 138.16 492.73 139.47C492.73 140.78 491.59 141.87 490.22 141.87C488.86 141.87 487.73 140.78 487.73 139.47ZM488.52 146.81H491.87V175.59H488.52V146.81Z" fill="#1D1D1B"/>
<path d="M496.721 167.55C496.721 161.85 501.271 160.04 507.771 159.23C512.601 158.63 515.3 158.59 515.3 156.42V155.75C515.3 151.81 512.881 149.42 508.521 149.42C504.361 149.42 501.76 151.54 500.71 154.01L497.541 152.87C499.491 148.17 504.021 146.43 508.431 146.43C512.841 146.43 518.641 148.34 518.641 156.06V175.6H515.311V171.05H515.101C513.901 173.6 510.981 176.26 506.181 176.26C500.951 176.25 496.721 173.1 496.721 167.55ZM515.3 164.56V160.4C514.32 161.36 510.131 161.88 507.771 162.16C502.901 162.76 500.05 164.22 500.05 167.71C500.05 171.2 502.86 173.2 506.63 173.2C511.95 173.19 515.3 169.28 515.3 164.56Z" fill="#1D1D1B"/>
</svg>
