<svg width="823" height="144" viewBox="0 0 823 144" fill="none" xmlns="http://www.w3.org/2000/svg">
<path d="M593.5 56C592.52 51.2 588.33 47.5698 582.83 47.5698C576.19 47.5698 570.77 52.8598 570.77 62.5698C570.77 72.3098 576.18 77.5698 582.83 77.5698C588.33 77.5698 592.52 73.9501 593.5 69.1401H596.72C595.57 75.5801 590.3 80.5801 582.83 80.5801C573.98 80.5801 567.67 73.5398 567.67 62.5698C567.67 51.5998 573.97 44.5601 582.83 44.5601C590.3 44.5601 595.57 49.54 596.72 56H593.5Z" fill="white"/>
<path d="M601.29 53.8101H604.25V57.8501H604.47C605.53 55.1901 608.36 53.4102 611.66 53.4102C612.16 53.4102 612.86 53.44 613.27 53.46V56.5601C613 56.5201 612.24 56.3901 611.44 56.3901C607.33 56.3901 604.33 59.2101 604.33 63.1201V80.1099H601.28V53.8101H601.29Z" fill="white"/>
<path d="M613.91 67.1201C613.91 59.1601 618.62 53.4502 625.43 53.4502C631.13 53.4502 636.56 57.5799 636.56 66.3599V67.8701H616.97C617.11 73.9501 620.51 77.8701 625.89 77.8701C629.62 77.8701 632 75.9201 633.01 73.5601L635.9 74.5C634.7 77.8 631.16 80.6602 625.88 80.6602C618.54 80.6602 613.91 75.1001 613.91 67.1201ZM633.45 65.1802C633.45 60.1102 630.15 56.2202 625.44 56.2202C620.63 56.2202 617.32 60.2802 617 65.1802H633.45Z" fill="white"/>
<path d="M639.63 72.77C639.63 67.57 643.79 65.8999 649.73 65.1699C654.15 64.6199 656.62 64.5901 656.62 62.6001V61.98C656.62 58.38 654.41 56.1899 650.42 56.1899C646.62 56.1899 644.24 58.1201 643.28 60.3901L640.39 59.3501C642.17 55.0501 646.32 53.46 650.34 53.46C654.36 53.46 659.67 55.21 659.67 62.27V80.1299H656.62V75.9702H656.43C655.33 78.3002 652.66 80.73 648.28 80.73C643.5 80.72 639.63 77.84 639.63 72.77ZM656.62 70.0298V66.23C655.73 67.1 651.89 67.5798 649.73 67.8398C645.28 68.3898 642.67 69.7302 642.67 72.9102C642.67 76.0902 645.24 77.9302 648.68 77.9302C653.55 77.9202 656.62 74.3498 656.62 70.0298Z" fill="white"/>
<path d="M675.74 56.4702H670.18V73.25C670.18 76.56 672.08 77.5298 674.15 77.5298C674.96 77.5298 675.5 77.41 675.93 77.29L676.58 80.04C676 80.26 675.14 80.5 673.87 80.5C670.5 80.5 667.11 78.26 667.11 73.96V56.46H663.19V53.7998H667.11V47.5H670.18V53.7998H675.74V56.4702Z" fill="white"/>
<path d="M679.58 47.1001C679.58 45.9001 680.61 44.9102 681.86 44.9102C683.11 44.9102 684.15 45.9001 684.15 47.1001C684.15 48.3001 683.11 49.29 681.86 49.29C680.61 49.29 679.58 48.3001 679.58 47.1001ZM680.3 53.8101H683.37V80.1201H680.3V53.8101Z" fill="white"/>
<path d="M699.85 80.1201H696.59L686.98 53.8101H690.28L698.09 76.0898H698.33L706.14 53.8101H709.44L699.85 80.1201Z" fill="white"/>
<path d="M712.33 47.1001C712.33 45.9001 713.36 44.9102 714.61 44.9102C715.86 44.9102 716.9 45.9001 716.9 47.1001C716.9 48.3001 715.86 49.29 714.61 49.29C713.35 49.29 712.33 48.3001 712.33 47.1001ZM713.04 53.8101H716.11V80.1201H713.04V53.8101Z" fill="white"/>
<path d="M732.2 56.4702H726.64V73.25C726.64 76.56 728.54 77.5298 730.61 77.5298C731.42 77.5298 731.96 77.41 732.39 77.29L733.04 80.04C732.46 80.26 731.6 80.5 730.33 80.5C726.96 80.5 723.57 78.26 723.57 73.96V56.46H719.65V53.7998H723.57V47.5H726.64V53.7998H732.2V56.4702Z" fill="white"/>
<path d="M735.42 72.77C735.42 67.57 739.58 65.8999 745.52 65.1699C749.94 64.6199 752.41 64.5901 752.41 62.6001V61.98C752.41 58.38 750.2 56.1899 746.21 56.1899C742.41 56.1899 740.03 58.1201 739.07 60.3901L736.18 59.3501C737.96 55.0501 742.11 53.46 746.13 53.46C750.15 53.46 755.46 55.21 755.46 62.27V80.1299H752.41V75.9702H752.22C751.12 78.3002 748.45 80.73 744.07 80.73C739.29 80.72 735.42 77.84 735.42 72.77ZM752.41 70.0298V66.23C751.52 67.1 747.68 67.5798 745.52 67.8398C741.07 68.3898 738.46 69.7302 738.46 72.9102C738.46 76.0902 741.03 77.9302 744.47 77.9302C749.34 77.9202 752.41 74.3498 752.41 70.0298Z" fill="white"/>
<path d="M771.53 56.4702H765.96V73.25C765.96 76.56 767.86 77.5298 769.93 77.5298C770.74 77.5298 771.28 77.41 771.71 77.29L772.36 80.04C771.78 80.26 770.92 80.5 769.65 80.5C766.28 80.5 762.89 78.26 762.89 73.96V56.46H758.97V53.7998H762.89V47.5H765.96V53.7998H771.53V56.4702Z" fill="white"/>
<path d="M567.93 90.98C567.93 89.78 568.96 88.79 570.21 88.79C571.46 88.79 572.5 89.78 572.5 90.98C572.5 92.18 571.46 93.1699 570.21 93.1699C568.96 93.1799 567.93 92.18 567.93 90.98ZM568.65 97.7002H571.72V124H568.65V97.7002Z" fill="white"/>
<path d="M587.16 110.92C587.16 102.82 591.54 97.3398 598.03 97.3398C602.84 97.3398 605.02 100.36 606.06 102.72H606.33V88.9399H609.4V124.01H606.42V119.13H606.06C604.98 121.53 602.75 124.56 597.98 124.56C591.52 124.55 587.16 119.09 587.16 110.92ZM606.39 110.87C606.39 104.57 603.48 100.12 598.34 100.12C593.07 100.12 590.22 104.81 590.22 110.87C590.22 117 593.1 121.76 598.34 121.76C603.44 121.76 606.39 117.22 606.39 110.87Z" fill="white"/>
<path d="M614.35 111C614.35 103.04 619.06 97.3301 625.87 97.3301C631.57 97.3301 637 101.46 637 110.24V111.75H617.41C617.55 117.83 620.95 121.75 626.33 121.75C630.06 121.75 632.44 119.8 633.45 117.44L636.34 118.38C635.14 121.68 631.6 124.54 626.32 124.54C618.97 124.55 614.35 118.98 614.35 111ZM633.89 109.07C633.89 104 630.59 100.11 625.88 100.11C621.07 100.11 617.76 104.17 617.44 109.07H633.89Z" fill="white"/>
<path d="M641.37 97.7002H644.33V101.74H644.61C645.65 99.0202 648.22 97.3599 651.66 97.3599C655.29 97.3599 657.6 99.1601 658.77 102.14H658.99C660.17 99.2301 662.95 97.3599 666.78 97.3599C671.66 97.3599 674.69 100.49 674.69 106.39V124.01H671.64V106.39C671.64 102.24 669.33 100.16 665.85 100.16C661.84 100.16 659.58 102.91 659.58 106.7V124.01H656.46V106.11C656.46 102.55 654.37 100.15 650.77 100.15C647.12 100.15 644.4 103.06 644.4 107.15V124H641.35V97.7002H641.37Z" fill="white"/>
<path d="M679.07 110.97C679.07 102.9 683.83 97.3398 690.65 97.3398C697.47 97.3398 702.23 102.9 702.23 110.97C702.23 118.98 697.47 124.55 690.65 124.55C683.83 124.55 679.07 118.98 679.07 110.97ZM699.15 110.97C699.15 105.08 696.1 100.11 690.64 100.11C685.18 100.11 682.13 105.08 682.13 110.97C682.13 116.86 685.18 121.76 690.64 121.76C696.11 121.76 699.15 116.86 699.15 110.97Z" fill="white"/>
<path d="M705.23 110.97C705.23 103.05 709.92 97.3398 716.81 97.3398C722.08 97.3398 726.16 100.63 726.88 105.51H723.8C723.15 102.53 720.61 100.12 716.86 100.12C711.81 100.12 708.3 104.5 708.3 110.87C708.3 117.27 711.71 121.76 716.86 121.76C720.35 121.76 723.11 119.69 723.81 116.33H726.89C726.19 121.09 722.33 124.55 716.85 124.55C709.78 124.55 705.23 118.81 705.23 110.97Z" fill="white"/>
<path d="M731.03 97.7002H733.99V101.74H734.21C735.27 99.0802 738.1 97.2998 741.4 97.2998C741.9 97.2998 742.6 97.3301 743.01 97.3501V100.45C742.74 100.41 741.98 100.28 741.18 100.28C737.07 100.28 734.07 103.1 734.07 107.01V124H731.02V97.7002H731.03Z" fill="white"/>
<path d="M744.52 116.65C744.52 111.45 748.68 109.78 754.62 109.05C759.04 108.5 761.51 108.47 761.51 106.48V105.86C761.51 102.26 759.3 100.07 755.31 100.07C751.51 100.07 749.13 102 748.17 104.27L745.28 103.23C747.06 98.93 751.21 97.3398 755.23 97.3398C759.25 97.3398 764.56 99.0899 764.56 106.15V124.01H761.51V119.85H761.32C760.22 122.18 757.55 124.61 753.17 124.61C748.39 124.6 744.52 121.72 744.52 116.65ZM761.51 113.91V110.11C760.62 110.98 756.78 111.46 754.62 111.72C750.17 112.27 747.56 113.61 747.56 116.79C747.56 119.97 750.13 121.81 753.57 121.81C758.45 121.81 761.51 118.23 761.51 113.91ZM748.94 86.27H752.55L756.93 94.0498H754.19L748.94 86.27Z" fill="white"/>
<path d="M768.92 110.97C768.92 103.05 773.61 97.3398 780.5 97.3398C785.77 97.3398 789.85 100.63 790.57 105.51H787.49C786.84 102.53 784.3 100.12 780.55 100.12C775.5 100.12 771.99 104.5 771.99 110.87C771.99 117.27 775.4 121.76 780.55 121.76C784.04 121.76 786.8 119.69 787.5 116.33H790.58C789.88 121.09 786.02 124.55 780.54 124.55C773.48 124.55 768.92 118.81 768.92 110.97Z" fill="white"/>
<path d="M794.04 90.98C794.04 89.78 795.07 88.79 796.32 88.79C797.57 88.79 798.61 89.78 798.61 90.98C798.61 92.18 797.57 93.1699 796.32 93.1699C795.07 93.1799 794.04 92.18 794.04 90.98ZM794.76 97.7002H797.83V124H794.76V97.7002Z" fill="white"/>
<path d="M802.25 116.65C802.25 111.45 806.41 109.78 812.35 109.05C816.77 108.5 819.24 108.47 819.24 106.48V105.86C819.24 102.26 817.03 100.07 813.04 100.07C809.24 100.07 806.86 102 805.9 104.27L803.01 103.23C804.79 98.93 808.94 97.3398 812.96 97.3398C816.98 97.3398 822.29 99.0899 822.29 106.15V124.01H819.24V119.85H819.05C817.95 122.18 815.28 124.61 810.9 124.61C806.12 124.6 802.25 121.72 802.25 116.65ZM819.24 113.91V110.11C818.35 110.98 814.51 111.46 812.35 111.72C807.9 112.27 805.29 113.61 805.29 116.79C805.29 119.97 807.86 121.81 811.3 121.81C816.18 121.81 819.24 118.23 819.24 113.91Z" fill="white"/>
<path d="M0.189941 7.00977H42.3501C66.6201 7.00977 80.6499 21.98 80.6499 43.23C80.6499 64.57 66.35 79.23 41.77 79.23H22.7798V113.88H0.180176V7.00977H0.189941ZM38.1299 61.1299C51.0699 61.1299 57.3799 53.82 57.3799 43.23C57.3799 32.58 51.07 25.4902 38.02 25.4902H22.7798V61.1299H38.1299Z" fill="white"/>
<path d="M109.95 113.88H87.7202V7.00977H109.95V113.88Z" fill="white"/>
<path d="M116.57 91.5C116.57 73.6 130.81 68.2798 146.68 66.8198C160.61 65.4598 166.09 64.7901 166.09 59.6201V59.3101C166.09 52.7301 161.76 48.9302 154.19 48.9302C146.21 48.9302 141.46 52.8399 139.95 58.1699L119.39 56.5C122.47 41.89 135.1 32.71 154.3 32.71C172.15 32.71 188.32 40.7498 188.32 59.8398V113.9H167.24V102.78H166.61C162.7 110.24 155.03 115.41 143.18 115.41C127.89 115.4 116.57 107.36 116.57 91.5ZM166.24 85.2402V76.73C163.58 78.51 155.65 79.6501 150.79 80.3301C142.96 81.4301 137.8 84.5 137.8 90.77C137.8 96.87 142.7 100.06 149.54 100.06C159.3 100.06 166.24 93.6302 166.24 85.2402Z" fill="white"/>
<path d="M240.84 50.4302H225.76V89.2598C225.76 95.4098 228.84 97.0898 233.28 97.0898C235.37 97.0898 237.72 96.5699 238.81 96.3599L242.3 112.9C240.06 113.63 235.99 114.78 230.25 114.99C214.13 115.67 203.43 107.89 203.53 92.1802V50.4399H192.57V33.7402H203.53V14.54H225.76V33.7402H240.84V50.4302Z" fill="white"/>
<path d="M243.95 74.1201C243.95 49.2801 259.08 32.6899 283.4 32.6899C307.72 32.6899 322.85 49.2801 322.85 74.1201C322.85 98.8001 307.72 115.45 283.4 115.45C259.08 115.45 243.95 98.8001 243.95 74.1201ZM300.26 73.96C300.26 59.98 294.52 49.6499 283.51 49.6499C272.29 49.6499 266.55 59.98 266.55 73.96C266.55 87.95 272.29 98.23 283.51 98.23C294.52 98.23 300.26 87.95 300.26 73.96Z" fill="white"/>
<path d="M352.35 113.88H330.12V33.73H351.31V47.8701H352.25C355.85 38.5301 364.46 32.6802 376.36 32.6802C393.06 32.6802 404.02 44.1598 404.02 62.8398V113.88H381.79V66.8101C381.84 57.0001 376.47 51.1602 367.54 51.1602C358.57 51.1602 352.41 57.21 352.36 67.54V113.88H352.35Z" fill="white"/>
<path d="M413.42 12.1299C413.42 5.96988 418.85 0.910156 425.42 0.910156C432.05 0.910156 437.47 5.96988 437.47 12.1299C437.47 18.3399 432.04 23.3999 425.42 23.3999C418.84 23.3999 413.42 18.3399 413.42 12.1299ZM414.25 33.73H436.48V113.88H414.25V33.73Z" fill="white"/>
<path d="M499.82 143.94V101.04H499.14C496.06 107.72 489.33 115.19 476.39 115.19C458.13 115.19 443.88 100.74 443.88 73.9102C443.88 46.3602 458.75 32.6899 476.34 32.6899C489.75 32.6899 496.17 40.6802 499.14 47.2002H500.13V33.7402H522.05V143.95H499.82V143.94ZM483.44 50.3799C472.43 50.3799 466.59 59.9301 466.59 73.8101C466.59 87.8001 472.54 97.5 483.44 97.5C494.14 97.5 500.29 88.1101 500.29 73.8101C500.29 59.5101 494.24 50.3799 483.44 50.3799Z" fill="white"/>
</svg>
