<svg width="473" height="177" viewBox="0 0 473 177" fill="none" xmlns="http://www.w3.org/2000/svg">
<path d="M1.87988 120.02H33.7598V124.54H6.91992V145.28H31.2598V149.8H6.91992V175.12H1.87988V120.02Z" fill="white"/>
<path d="M65.2002 133.79H69.9902V175.11H65.2002V168.25H64.8203C62.8803 172.5 58.5803 175.65 52.5303 175.65C44.5903 175.65 38.9502 170.35 38.9502 160.56V133.79H43.7402V160.26C43.7402 166.71 47.9402 170.99 53.9102 170.99C59.5102 170.99 65.21 166.9 65.21 159.32V133.79H65.2002Z" fill="white"/>
<path d="M83.6396 175.12H78.8496V133.8H83.5V140.28H83.9297C85.8697 136.06 90.0398 133.26 96.0898 133.26C104.43 133.26 110.11 138.56 110.11 148.35V175.12H105.32V148.65C105.32 141.9 101.23 137.65 94.8799 137.65C88.3699 137.65 83.6396 142.09 83.6396 149.3V175.12Z" fill="white"/>
<path d="M147.06 154.48C147.06 144.58 142.49 137.58 134.42 137.58C126.14 137.58 121.67 144.95 121.67 154.48C121.67 164.11 126.19 171.59 134.42 171.59C142.43 171.59 147.06 164.46 147.06 154.48ZM116.85 154.56C116.85 141.84 123.74 133.23 133.93 133.23C141.49 133.23 144.91 137.97 146.55 141.68H146.98V120.02H151.79V175.12H147.11V167.45H146.55C144.85 171.21 141.36 175.98 133.85 175.98C123.71 175.98 116.85 167.4 116.85 154.56Z" fill="white"/>
<path d="M186.29 159.27V153.3C184.89 154.67 178.87 155.42 175.48 155.83C168.48 156.69 164.39 158.79 164.39 163.8C164.39 168.81 168.43 171.68 173.83 171.68C181.48 171.67 186.29 166.05 186.29 159.27ZM159.61 163.57C159.61 155.39 166.15 152.78 175.48 151.63C182.42 150.77 186.29 150.71 186.29 147.59V146.62C186.29 140.97 182.82 137.53 176.56 137.53C170.59 137.53 166.85 140.57 165.34 144.12L160.79 142.48C163.59 135.73 170.1 133.22 176.42 133.22C182.74 133.22 191.08 135.96 191.08 147.05V175.11H186.29V168.57H186C184.28 172.23 180.08 176.05 173.19 176.05C165.69 176.06 159.61 171.54 159.61 163.57Z" fill="white"/>
<path d="M197.9 154.64C197.9 142.21 205.27 133.23 216.08 133.23C224.37 133.23 230.77 138.39 231.9 146.06H227.06C226.04 141.38 222.06 137.58 216.16 137.58C208.23 137.58 202.71 144.47 202.71 154.48C202.71 164.54 208.06 171.59 216.16 171.59C221.65 171.59 225.98 168.34 227.08 163.06H231.92C230.82 170.54 224.77 175.97 216.16 175.97C205.06 175.98 197.9 166.96 197.9 154.64Z" fill="white"/>
<path d="M238.46 133.79H243.28V175.11H238.46V133.79ZM237.33 123.25C237.33 121.37 238.94 119.81 240.91 119.81C242.87 119.81 244.51 121.37 244.51 123.25C244.51 125.13 242.87 126.69 240.91 126.69C238.94 126.69 237.33 125.13 237.33 123.25Z" fill="white"/>
<path d="M272.9 115.85H278.58L270.32 128.06H266.01L272.9 115.85ZM281.62 154.64C281.62 145.38 276.83 137.58 268.25 137.58C259.67 137.58 254.88 145.38 254.88 154.64C254.88 163.9 259.67 171.59 268.25 171.59C276.83 171.59 281.62 163.9 281.62 154.64ZM250.06 154.64C250.06 141.97 257.54 133.23 268.24 133.23C278.94 133.23 286.42 141.97 286.42 154.64C286.42 167.23 278.94 175.97 268.24 175.97C257.54 175.97 250.06 167.23 250.06 154.64Z" fill="white"/>
<path d="M297.96 175.12H293.17V133.8H297.82V140.28H298.25C300.19 136.06 304.35 133.26 310.41 133.26C318.75 133.26 324.43 138.56 324.43 148.35V175.12H319.64V148.65C319.64 141.9 315.55 137.65 309.2 137.65C302.69 137.65 297.96 142.09 297.96 149.3V175.12Z" fill="white"/>
<path d="M35.1504 54.48C46.8604 54.48 52.5703 47.87 52.5703 38.29C52.5703 28.66 46.8596 22.2402 35.0596 22.2402H21.2803V54.48H35.1504ZM0.830078 5.52979H38.9697C60.9197 5.52979 73.6201 19.08 73.6201 38.29C73.6201 57.6 60.6802 70.8599 38.4502 70.8599H21.2695V102.2H0.830078V5.52979Z" fill="white"/>
<path d="M100.02 5.54004H79.9102V102.21H100.02V5.54004Z" fill="white"/>
<path d="M150.97 76.29V68.6001C148.56 70.2101 141.38 71.2499 137 71.8599C129.92 72.8499 125.25 75.6298 125.25 81.2998C125.25 86.8198 129.69 89.7002 135.87 89.7002C144.69 89.6902 150.97 83.89 150.97 76.29ZM106.03 81.9502C106.03 65.7602 118.92 60.9501 133.27 59.6201C145.87 58.3901 150.83 57.7799 150.83 53.1099V52.8301C150.83 46.8801 146.91 43.4399 140.07 43.4399C132.85 43.4399 128.56 46.98 127.19 51.79L108.59 50.2798C111.38 37.0598 122.8 28.75 140.17 28.75C156.31 28.75 170.95 36.02 170.95 53.29V102.19H151.88V92.1401H151.31C147.77 98.8901 140.83 103.56 130.12 103.56C116.28 103.57 106.03 96.3002 106.03 81.9502Z" fill="white"/>
<path d="M218.48 44.8101H204.84V79.9302C204.84 85.5002 207.62 87.0098 211.63 87.0098C213.52 87.0098 215.64 86.5301 216.64 86.3501L219.8 101.31C217.77 101.97 214.09 103.01 208.9 103.2C194.32 103.81 184.64 96.7798 184.73 82.5698V44.8101H174.82V29.7002H184.73V12.3301H204.84V29.7002H218.48V44.8101Z" fill="white"/>
<path d="M272.17 66.0898C272.17 53.4398 266.98 44.0898 257.02 44.0898C246.87 44.0898 241.68 53.4298 241.68 66.0898C241.68 78.7398 246.87 88.0298 257.02 88.0298C266.98 88.0398 272.17 78.7398 272.17 66.0898ZM221.24 66.23C221.24 43.76 234.93 28.75 256.92 28.75C278.92 28.75 292.61 43.76 292.61 66.23C292.61 88.56 278.92 103.61 256.92 103.61C234.93 103.62 221.24 88.56 221.24 66.23Z" fill="white"/>
<path d="M319.2 102.2H299.09V29.7002H318.25V42.4902H319.1C322.36 34.0402 330.15 28.75 340.91 28.75C356.01 28.75 365.92 39.1398 365.92 56.0298V102.19H345.81V59.6099C345.86 50.7399 340.99 45.4502 332.92 45.4502C324.8 45.4502 319.23 50.93 319.19 60.27V102.2H319.2Z" fill="white"/>
<path d="M375.11 29.7002H395.21V102.2H375.11V29.7002ZM374.35 10.1602C374.35 4.59016 379.26 0.00976562 385.21 0.00976562C391.2 0.00976562 396.11 4.59016 396.11 10.1602C396.11 15.7802 391.2 20.3599 385.21 20.3599C379.26 20.3599 374.35 15.7802 374.35 10.1602Z" fill="white"/>
<path d="M437.71 44.7598C427.75 44.7598 422.46 53.4002 422.46 65.9502C422.46 78.6002 427.84 87.3799 437.71 87.3799C447.39 87.3799 452.96 78.8802 452.96 65.9502C452.96 53.0202 447.48 44.7598 437.71 44.7598ZM452.53 129.39V90.5898H451.92C449.13 96.6298 443.05 103.38 431.34 103.38C414.82 103.38 401.94 90.2998 401.94 66.0498C401.94 41.1298 415.39 28.7598 431.3 28.7598C443.43 28.7598 449.24 35.9799 451.93 41.8799H452.83V29.7002H472.65V129.38H452.53V129.39Z" fill="white"/>
</svg>
