<svg width="473" height="177" viewBox="0 0 473 177" fill="none" xmlns="http://www.w3.org/2000/svg">
<path d="M1.87988 120.48H33.7598V125H6.91992V145.74H31.2598V150.26H6.91992V175.57H1.87988V120.48Z" fill="#1D1D1B"/>
<path d="M65.2002 134.25H69.9902V175.57H65.2002V168.71H64.8203C62.8803 172.96 58.5803 176.11 52.5303 176.11C44.5903 176.11 38.9502 170.81 38.9502 161.02V134.25H43.7402V160.72C43.7402 167.17 47.9402 171.45 53.9102 171.45C59.5102 171.45 65.21 167.36 65.21 159.78V134.25H65.2002Z" fill="#1D1D1B"/>
<path d="M83.6396 175.57H78.8496V134.25H83.5V140.73H83.9297C85.8697 136.51 90.0398 133.71 96.0898 133.71C104.43 133.71 110.11 139.01 110.11 148.8V175.57H105.32V149.1C105.32 142.35 101.23 138.1 94.8799 138.1C88.3699 138.1 83.6396 142.54 83.6396 149.75V175.57Z" fill="#1D1D1B"/>
<path d="M147.06 154.94C147.06 145.04 142.49 138.04 134.42 138.04C126.14 138.04 121.67 145.41 121.67 154.94C121.67 164.57 126.19 172.05 134.42 172.05C142.43 172.04 147.06 164.92 147.06 154.94ZM116.85 155.02C116.85 142.3 123.74 133.69 133.93 133.69C141.49 133.69 144.91 138.43 146.55 142.14H146.98V120.48H151.79V175.58H147.11V167.91H146.55C144.85 171.68 141.36 176.44 133.85 176.44C123.71 176.43 116.85 167.85 116.85 155.02Z" fill="#1D1D1B"/>
<path d="M186.29 159.73V153.76C184.89 155.13 178.87 155.88 175.48 156.29C168.48 157.15 164.39 159.25 164.39 164.26C164.39 169.27 168.43 172.14 173.83 172.14C181.48 172.13 186.29 166.51 186.29 159.73ZM159.61 164.03C159.61 155.85 166.15 153.24 175.48 152.09C182.42 151.23 186.29 151.17 186.29 148.05V147.08C186.29 141.43 182.82 137.99 176.56 137.99C170.59 137.99 166.85 141.03 165.34 144.58L160.79 142.94C163.59 136.19 170.1 133.68 176.42 133.68C182.74 133.68 191.08 136.42 191.08 147.51V175.57H186.29V169.03H186C184.28 172.69 180.08 176.51 173.19 176.51C165.69 176.51 159.61 171.99 159.61 164.03Z" fill="#1D1D1B"/>
<path d="M197.9 155.1C197.9 142.67 205.27 133.68 216.08 133.68C224.37 133.68 230.77 138.84 231.9 146.51H227.06C226.04 141.83 222.06 138.03 216.16 138.03C208.23 138.03 202.71 144.92 202.71 154.93C202.71 164.99 208.06 172.04 216.16 172.04C221.65 172.04 225.98 168.79 227.08 163.51H231.92C230.82 170.99 224.77 176.42 216.16 176.42C205.06 176.43 197.9 167.42 197.9 155.1Z" fill="#1D1D1B"/>
<path d="M238.46 134.25H243.28V175.57H238.46V134.25ZM237.33 123.7C237.33 121.82 238.94 120.26 240.91 120.26C242.87 120.26 244.51 121.82 244.51 123.7C244.51 125.58 242.87 127.14 240.91 127.14C238.94 127.15 237.33 125.59 237.33 123.7Z" fill="#1D1D1B"/>
<path d="M272.9 116.3H278.58L270.32 128.51H266.01L272.9 116.3ZM281.62 155.1C281.62 145.84 276.83 138.04 268.25 138.04C259.67 138.04 254.88 145.84 254.88 155.1C254.88 164.36 259.67 172.05 268.25 172.05C276.83 172.05 281.62 164.35 281.62 155.1ZM250.06 155.1C250.06 142.43 257.54 133.68 268.24 133.68C278.94 133.68 286.42 142.42 286.42 155.1C286.42 167.69 278.94 176.43 268.24 176.43C257.54 176.43 250.06 167.69 250.06 155.1Z" fill="#1D1D1B"/>
<path d="M297.96 175.57H293.17V134.25H297.82V140.73H298.25C300.19 136.51 304.35 133.71 310.41 133.71C318.75 133.71 324.43 139.01 324.43 148.8V175.57H319.64V149.1C319.64 142.35 315.55 138.1 309.2 138.1C302.69 138.1 297.96 142.54 297.96 149.75V175.57Z" fill="#1D1D1B"/>
<path d="M35.1504 54.9399C46.8604 54.9399 52.5703 48.33 52.5703 38.75C52.5703 29.12 46.8596 22.7002 35.0596 22.7002H21.2803V54.9399H35.1504ZM0.830078 5.99023H38.9697C60.9197 5.99023 73.6201 19.54 73.6201 38.75C73.6201 58.06 60.6802 71.3198 38.4502 71.3198H21.2695V102.66H0.830078V5.99023Z" fill="#1D1D1B"/>
<path d="M100.02 5.99023H79.9102V102.66H100.02V5.99023Z" fill="#1D1D1B"/>
<path d="M150.97 76.7402V69.0498C148.56 70.6598 141.38 71.7001 137 72.3101C129.92 73.3001 125.25 76.08 125.25 81.75C125.25 87.27 129.69 90.1499 135.87 90.1499C144.69 90.1499 150.97 84.3402 150.97 76.7402ZM106.03 82.4102C106.03 66.2202 118.92 61.4101 133.27 60.0801C145.87 58.8501 150.83 58.2398 150.83 53.5698V53.29C150.83 47.34 146.91 43.8999 140.07 43.8999C132.85 43.8999 128.56 47.44 127.19 52.25L108.59 50.7402C111.38 37.5202 122.8 29.21 140.17 29.21C156.31 29.21 170.95 36.48 170.95 53.75V102.65H151.88V92.6001H151.31C147.77 99.3501 140.83 104.02 130.12 104.02C116.28 104.03 106.03 96.7502 106.03 82.4102Z" fill="#1D1D1B"/>
<path d="M218.48 45.2598H204.84V80.3799C204.84 85.9499 207.62 87.46 211.63 87.46C213.52 87.46 215.64 86.9798 216.64 86.7998L219.8 101.76C217.77 102.42 214.09 103.46 208.9 103.65C194.32 104.26 184.64 97.23 184.73 83.02V45.2598H174.82V30.1499H184.73V12.7798H204.84V30.1499H218.48V45.2598Z" fill="#1D1D1B"/>
<path d="M272.17 66.5498C272.17 53.8998 266.98 44.5498 257.02 44.5498C246.87 44.5498 241.68 53.8898 241.68 66.5498C241.68 79.1998 246.87 88.4902 257.02 88.4902C266.98 88.4902 272.17 79.1998 272.17 66.5498ZM221.24 66.6899C221.24 44.2199 234.93 29.21 256.92 29.21C278.92 29.21 292.61 44.2199 292.61 66.6899C292.61 89.0199 278.92 104.07 256.92 104.07C234.93 104.07 221.24 89.0199 221.24 66.6899Z" fill="#1D1D1B"/>
<path d="M319.2 102.66H299.09V30.1602H318.25V42.9502H319.1C322.36 34.5002 330.15 29.21 340.91 29.21C356.01 29.21 365.92 39.6002 365.92 56.4902V102.65H345.81V60.0698C345.86 51.1998 340.99 45.9102 332.92 45.9102C324.8 45.9102 319.23 51.39 319.19 60.73V102.66H319.2Z" fill="#1D1D1B"/>
<path d="M375.11 30.1602H395.21V102.66H375.11V30.1602ZM374.35 10.6201C374.35 5.05012 379.26 0.470215 385.21 0.470215C391.2 0.470215 396.11 5.05012 396.11 10.6201C396.11 16.2401 391.2 20.8198 385.21 20.8198C379.26 20.8098 374.35 16.2301 374.35 10.6201Z" fill="#1D1D1B"/>
<path d="M437.71 45.21C427.75 45.21 422.46 53.8499 422.46 66.3999C422.46 79.0499 427.84 87.8301 437.71 87.8301C447.39 87.8301 452.96 79.3299 452.96 66.3999C452.96 53.4699 447.48 45.21 437.71 45.21ZM452.53 129.84V91.04H451.92C449.13 97.08 443.05 103.83 431.34 103.83C414.82 103.83 401.94 90.75 401.94 66.5C401.94 41.58 415.39 29.21 431.3 29.21C443.43 29.21 449.24 36.4301 451.93 42.3301H452.83V30.1499H472.65V129.84H452.53Z" fill="#1D1D1B"/>
</svg>
