<svg width="1068" height="141" viewBox="0 0 1068 141" fill="none" xmlns="http://www.w3.org/2000/svg">
<path d="M587.45 74.7202C586.4 69.5702 581.9 65.6699 575.99 65.6699C568.86 65.6699 563.05 71.3498 563.05 81.7798C563.05 92.2398 568.86 97.8901 575.99 97.8901C581.89 97.8901 586.4 94.0098 587.45 88.8398H590.91C589.68 95.7498 584.01 101.12 576 101.12C566.49 101.12 559.73 93.5598 559.73 81.7798C559.73 69.9998 566.5 62.4399 576 62.4399C584.02 62.4399 589.68 67.7902 590.91 74.7202H587.45Z" fill="#53284F"/>
<path d="M595.79 72.3701H598.97V76.71H599.21C600.35 73.86 603.38 71.9502 606.93 71.9502C607.46 71.9502 608.22 71.9898 608.66 72.0098V75.3398C608.37 75.2998 607.56 75.1602 606.69 75.1602C602.28 75.1602 599.06 78.1901 599.06 82.3901V100.63H595.79V72.3701Z" fill="#53284F"/>
<path d="M609.34 86.6602C609.34 78.1102 614.4 71.9902 621.72 71.9902C627.84 71.9902 633.67 76.4201 633.67 85.8501V87.4702H612.63C612.78 94.0002 616.44 98.21 622.21 98.21C626.22 98.21 628.77 96.1101 629.86 93.5801L632.97 94.5898C631.68 98.1398 627.88 101.21 622.21 101.21C614.3 101.2 609.34 95.2302 609.34 86.6602ZM630.32 84.5801C630.32 79.1401 626.77 74.96 621.71 74.96C616.54 74.96 612.99 79.3201 612.64 84.5801H630.32Z" fill="#53284F"/>
<path d="M636.93 92.7202C636.93 87.1302 641.4 85.3501 647.78 84.5601C652.52 83.9701 655.17 83.9298 655.17 81.7998V81.1401C655.17 77.2801 652.8 74.9302 648.51 74.9302C644.43 74.9302 641.87 77.0102 640.84 79.4302L637.73 78.3101C639.64 73.6901 644.09 71.98 648.41 71.98C652.73 71.98 658.43 73.8602 658.43 81.4302V100.61H655.16V96.1401H654.96C653.78 98.6401 650.91 101.25 646.21 101.25C641.08 101.26 636.93 98.1702 636.93 92.7202ZM655.17 89.7798V85.7002C654.21 86.6402 650.09 87.1502 647.78 87.4302C643 88.0202 640.2 89.4501 640.2 92.8701C640.2 96.2901 642.96 98.2598 646.65 98.2598C651.88 98.2598 655.17 94.4198 655.17 89.7798Z" fill="#53284F"/>
<path d="M675.68 75.2202H669.7V93.2402C669.7 96.7902 671.74 97.8398 673.97 97.8398C674.83 97.8398 675.42 97.7101 675.88 97.5801L676.58 100.54C675.95 100.78 675.04 101.04 673.67 101.04C670.05 101.04 666.41 98.63 666.41 94.02V75.23H662.2V72.3799H666.41V65.6099H669.7V72.3799H675.68V75.2202Z" fill="#53284F"/>
<path d="M679.79 65.1602C679.79 63.8702 680.89 62.8101 682.24 62.8101C683.59 62.8101 684.7 63.8802 684.7 65.1602C684.7 66.4402 683.58 67.5098 682.24 67.5098C680.9 67.5098 679.79 66.4502 679.79 65.1602ZM680.56 72.3701H683.85V100.61H680.56V72.3701Z" fill="#53284F"/>
<path d="M701.54 100.61H698.05L687.73 72.3701H691.28L699.66 96.29H699.92L708.3 72.3701H711.85L701.54 100.61Z" fill="#53284F"/>
<path d="M714.92 65.1602C714.92 63.8702 716.02 62.8101 717.37 62.8101C718.71 62.8101 719.83 63.8802 719.83 65.1602C719.83 66.4402 718.71 67.5098 717.37 67.5098C716.02 67.5198 714.92 66.4502 714.92 65.1602ZM715.69 72.3701H718.98V100.61H715.69V72.3701Z" fill="#53284F"/>
<path d="M736.25 75.2202H730.27V93.2402C730.27 96.7902 732.31 97.8398 734.54 97.8398C735.4 97.8398 735.99 97.7101 736.45 97.5801L737.15 100.54C736.53 100.78 735.61 101.04 734.24 101.04C730.62 101.04 726.98 98.63 726.98 94.02V75.23H722.77V72.3799H726.98V65.6099H730.27V72.3799H736.25V75.2202Z" fill="#53284F"/>
<path d="M739.7 92.7202C739.7 87.1302 744.17 85.3501 750.55 84.5601C755.29 83.9701 757.94 83.9298 757.94 81.7998V81.1401C757.94 77.2801 755.57 74.9302 751.28 74.9302C747.2 74.9302 744.64 77.0102 743.61 79.4302L740.5 78.3101C742.41 73.6901 746.86 71.98 751.18 71.98C755.5 71.98 761.2 73.8602 761.2 81.4302V100.61H757.93V96.1401H757.73C756.55 98.6401 753.68 101.25 748.98 101.25C743.85 101.26 739.7 98.1702 739.7 92.7202ZM757.94 89.7798V85.7002C756.98 86.6402 752.86 87.1502 750.55 87.4302C745.77 88.0202 742.97 89.4501 742.97 92.8701C742.97 96.2901 745.73 98.2598 749.42 98.2598C754.65 98.2598 757.94 94.4198 757.94 89.7798Z" fill="#53284F"/>
<path d="M778.45 75.2202H772.47V93.2402C772.47 96.7902 774.51 97.8398 776.74 97.8398C777.6 97.8398 778.19 97.7101 778.65 97.5801L779.35 100.54C778.73 100.78 777.81 101.04 776.44 101.04C772.82 101.04 769.18 98.63 769.18 94.02V75.23H764.97V72.3799H769.18V65.6099H772.47V72.3799H778.45V75.2202Z" fill="#53284F"/>
<path d="M794.54 65.1602C794.54 63.8702 795.64 62.8101 796.99 62.8101C798.34 62.8101 799.45 63.8802 799.45 65.1602C799.45 66.4402 798.33 67.5098 796.99 67.5098C795.65 67.5098 794.54 66.4502 794.54 65.1602ZM795.31 72.3701H798.6V100.61H795.31V72.3701Z" fill="#53284F"/>
<path d="M815.27 86.5601C815.27 77.8601 819.98 71.98 826.95 71.98C832.12 71.98 834.45 75.22 835.57 77.75H835.86V62.9502H839.15V100.61H835.95V95.3701H835.56C834.4 97.9401 832.01 101.2 826.88 101.2C819.96 101.2 815.27 95.3401 815.27 86.5601ZM835.92 86.5098C835.92 79.7398 832.79 74.96 827.28 74.96C821.62 74.96 818.56 79.9998 818.56 86.5098C818.56 93.0898 821.65 98.2002 827.28 98.2002C832.76 98.2002 835.92 93.3298 835.92 86.5098Z" fill="#53284F"/>
<path d="M844.44 86.6602C844.44 78.1102 849.5 71.9902 856.82 71.9902C862.94 71.9902 868.77 76.4201 868.77 85.8501V87.4702H847.73C847.88 94.0002 851.54 98.21 857.31 98.21C861.32 98.21 863.87 96.1101 864.96 93.5801L868.07 94.5898C866.78 98.1398 862.98 101.21 857.31 101.21C849.41 101.2 844.44 95.2302 844.44 86.6602ZM865.43 84.5801C865.43 79.1401 861.88 74.96 856.82 74.96C851.65 74.96 848.1 79.3201 847.75 84.5801H865.43Z" fill="#53284F"/>
<path d="M873.43 72.3701H876.61V76.71H876.9C878.02 73.79 880.78 72 884.48 72C888.38 72 890.86 73.9299 892.11 77.1299H892.35C893.62 73.9999 896.6 72 900.72 72C905.96 72 909.22 75.3699 909.22 81.6899V100.61H905.95V81.6899C905.95 77.2399 903.47 75 899.74 75C895.44 75 893.01 77.96 893.01 82.02V100.61H889.66V81.3901C889.66 77.5701 887.42 74.9902 883.56 74.9902C879.64 74.9902 876.72 78.1198 876.72 82.5098V100.6H873.45V72.3701H873.43Z" fill="#53284F"/>
<path d="M913.88 86.6201C913.88 77.9601 918.99 71.98 926.31 71.98C933.63 71.98 938.74 77.9601 938.74 86.6201C938.74 95.2301 933.63 101.2 926.31 101.2C918.99 101.2 913.88 95.2301 913.88 86.6201ZM935.45 86.6201C935.45 80.2901 932.18 74.96 926.31 74.96C920.44 74.96 917.17 80.2901 917.17 86.6201C917.17 92.9501 920.44 98.2002 926.31 98.2002C932.18 98.2002 935.45 92.9501 935.45 86.6201Z" fill="#53284F"/>
<path d="M941.95 86.6201C941.95 78.1201 946.99 71.98 954.38 71.98C960.04 71.98 964.42 75.51 965.19 80.75H961.88C961.18 77.55 958.46 74.96 954.43 74.96C949.01 74.96 945.24 79.6698 945.24 86.5098C945.24 93.3898 948.9 98.2002 954.43 98.2002C958.18 98.2002 961.14 95.9701 961.9 92.3701H965.21C964.46 97.4801 960.32 101.2 954.43 101.2C946.84 101.2 941.95 95.0401 941.95 86.6201Z" fill="#53284F"/>
<path d="M969.63 72.3701H972.81V76.71H973.05C974.19 73.86 977.22 71.9502 980.77 71.9502C981.3 71.9502 982.06 71.9898 982.5 72.0098V75.3398C982.21 75.2998 981.4 75.1602 980.53 75.1602C976.12 75.1602 972.9 78.1901 972.9 82.3901V100.63H969.63V72.3701Z" fill="#53284F"/>
<path d="M984.11 92.7202C984.11 87.1302 988.58 85.3501 994.96 84.5601C999.7 83.9701 1002.35 83.9298 1002.35 81.7998V81.1401C1002.35 77.2801 999.98 74.9302 995.69 74.9302C991.61 74.9302 989.05 77.0102 988.02 79.4302L984.91 78.3101C986.82 73.6901 991.27 71.98 995.59 71.98C999.91 71.98 1005.61 73.8602 1005.61 81.4302V100.61H1002.34V96.1401H1002.14C1000.96 98.6401 998.09 101.25 993.39 101.25C988.26 101.26 984.11 98.1702 984.11 92.7202ZM1002.35 89.7798V85.7002C1001.39 86.6402 997.27 87.1502 994.96 87.4302C990.18 88.0202 987.38 89.4501 987.38 92.8701C987.38 96.2901 990.14 98.2598 993.83 98.2598C999.06 98.2598 1002.35 94.4198 1002.35 89.7798ZM988.85 60.1001H992.73L997.44 68.4502H994.5L988.85 60.1001Z" fill="#53284F"/>
<path d="M1010.28 86.6201C1010.28 78.1201 1015.32 71.98 1022.71 71.98C1028.37 71.98 1032.75 75.51 1033.52 80.75H1030.21C1029.51 77.55 1026.79 74.96 1022.76 74.96C1017.34 74.96 1013.57 79.6698 1013.57 86.5098C1013.57 93.3898 1017.23 98.2002 1022.76 98.2002C1026.51 98.2002 1029.47 95.9701 1030.23 92.3701H1033.54C1032.79 97.4801 1028.65 101.2 1022.76 101.2C1015.17 101.2 1010.28 95.0401 1010.28 86.6201Z" fill="#53284F"/>
<path d="M1037.23 65.1602C1037.23 63.8702 1038.33 62.8101 1039.68 62.8101C1041.03 62.8101 1042.14 63.8802 1042.14 65.1602C1042.14 66.4402 1041.02 67.5098 1039.68 67.5098C1038.34 67.5098 1037.23 66.4502 1037.23 65.1602ZM1038 72.3701H1041.29V100.61H1038V72.3701Z" fill="#53284F"/>
<path d="M1046.04 92.7202C1046.04 87.1302 1050.51 85.3501 1056.89 84.5601C1061.63 83.9701 1064.28 83.9298 1064.28 81.7998V81.1401C1064.28 77.2801 1061.91 74.9302 1057.62 74.9302C1053.54 74.9302 1050.98 77.0102 1049.95 79.4302L1046.84 78.3101C1048.75 73.6901 1053.2 71.98 1057.52 71.98C1061.84 71.98 1067.54 73.8602 1067.54 81.4302V100.61H1064.27V96.1401H1064.07C1062.89 98.6401 1060.03 101.25 1055.32 101.25C1050.2 101.26 1046.04 98.1702 1046.04 92.7202ZM1064.28 89.7798V85.7002C1063.32 86.6402 1059.2 87.1502 1056.89 87.4302C1052.11 88.0202 1049.31 89.4501 1049.31 92.8701C1049.31 96.2901 1052.07 98.2598 1055.76 98.2598C1060.99 98.2598 1064.28 94.4198 1064.28 89.7798Z" fill="#53284F"/>
<path d="M0.629883 6.4502H42.0098C65.8198 6.4502 79.6001 21.1502 79.6001 41.9902C79.6001 62.9402 65.5702 77.3301 41.4502 77.3301H22.8101V111.34H0.629883V6.4502ZM37.8599 59.5601C50.5599 59.5601 56.7598 52.3902 56.7598 41.9902C56.7598 31.5402 50.5598 24.5801 37.7598 24.5801H22.8101V59.5601H37.8599Z" fill="#53284F"/>
<path d="M108.339 111.34H86.5195V6.45996H108.339V111.34Z" fill="#53284F"/>
<path d="M114.84 89.3701C114.84 71.8101 128.82 66.5799 144.39 65.1499C158.06 63.8199 163.44 63.1501 163.44 58.0801V57.77C163.44 51.32 159.19 47.5801 151.76 47.5801C143.92 47.5801 139.27 51.4201 137.78 56.6401L117.6 55C120.62 40.66 133.01 31.6499 151.86 31.6499C169.37 31.6499 185.25 39.5398 185.25 58.2798V111.34H164.56V100.43H163.94C160.1 107.75 152.57 112.82 140.95 112.82C125.95 112.82 114.84 104.94 114.84 89.3701ZM163.59 83.2202V74.8701C160.98 76.6101 153.19 77.7399 148.43 78.3999C140.75 79.4799 135.68 82.5001 135.68 88.6401C135.68 94.6301 140.49 97.7598 147.2 97.7598C156.78 97.7698 163.59 91.4702 163.59 83.2202Z" fill="#53284F"/>
<path d="M236.799 49.0601H222V87.1602C222 93.2002 225.019 94.8398 229.379 94.8398C231.429 94.8398 233.73 94.3299 234.81 94.1299L238.24 110.36C236.04 111.08 232.04 112.2 226.41 112.41C210.59 113.08 200.089 105.45 200.189 90.0298V49.0601H189.43V32.6699H200.189V13.8198H222V32.6699H236.799V49.0601Z" fill="#53284F"/>
<path d="M239.859 72.3101C239.859 47.9301 254.71 31.6499 278.58 31.6499C302.44 31.6499 317.299 47.9401 317.299 72.3101C317.299 96.5301 302.45 112.87 278.58 112.87C254.71 112.87 239.859 96.5401 239.859 72.3101ZM295.12 72.1602C295.12 58.4302 289.49 48.2998 278.68 48.2998C267.67 48.2998 262.029 58.4402 262.029 72.1602C262.029 85.8802 267.66 95.9702 278.68 95.9702C289.48 95.9702 295.12 85.8802 295.12 72.1602Z" fill="#53284F"/>
<path d="M346.24 111.34H324.42V32.6802H345.21V46.5601H346.13C349.66 37.3901 358.11 31.6602 369.79 31.6602C386.18 31.6602 396.93 42.9298 396.93 61.2598V111.35H375.11V65.1602C375.16 55.5302 369.89 49.7998 361.13 49.7998C352.32 49.7998 346.28 55.7399 346.23 65.8799V111.34H346.24Z" fill="#53284F"/>
<path d="M406.17 11.4702C406.17 5.43021 411.5 0.459961 417.95 0.459961C424.45 0.459961 429.78 5.43021 429.78 11.4702C429.78 17.5602 424.45 22.5298 417.95 22.5298C411.5 22.5298 406.17 17.5702 406.17 11.4702ZM406.99 32.6699H428.81V111.33H406.99V32.6699Z" fill="#53284F"/>
<path d="M490.98 140.84V98.7402H490.32C487.3 105.3 480.69 112.62 467.99 112.62C450.07 112.62 436.09 98.4299 436.09 72.1099C436.09 45.0699 450.69 31.6499 467.94 31.6499C481.1 31.6499 487.4 39.4901 490.32 45.8901H491.29V32.6802H512.8V140.84H490.98ZM474.9 49.0098C464.09 49.0098 458.36 58.38 458.36 72C458.36 85.72 464.2 95.25 474.9 95.25C485.4 95.25 491.44 86.03 491.44 72C491.44 57.97 485.5 49.0098 474.9 49.0098Z" fill="#53284F"/>
</svg>
