<svg width="1068" height="141" viewBox="0 0 1068 141" fill="none" xmlns="http://www.w3.org/2000/svg">
<path d="M587.45 74.2798C586.4 69.1298 581.9 65.23 575.99 65.23C568.86 65.23 563.05 70.9098 563.05 81.3398C563.05 91.7998 568.86 97.4502 575.99 97.4502C581.89 97.4502 586.4 93.5699 587.45 88.3999H590.91C589.68 95.3099 584.01 100.68 576 100.68C566.49 100.68 559.73 93.1198 559.73 81.3398C559.73 69.5598 566.5 62 576 62C584.02 62 589.68 67.3498 590.91 74.2798H587.45Z" fill="#1D1D1B"/>
<path d="M595.79 71.9302H598.97V76.27H599.21C600.35 73.42 603.38 71.5098 606.93 71.5098C607.46 71.5098 608.22 71.5498 608.66 71.5698V74.8999C608.37 74.8599 607.56 74.7202 606.69 74.7202C602.28 74.7202 599.06 77.7502 599.06 81.9502V100.19H595.79V71.9302Z" fill="#1D1D1B"/>
<path d="M609.34 86.2202C609.34 77.6702 614.4 71.5498 621.72 71.5498C627.84 71.5498 633.67 75.9802 633.67 85.4102V87.0298H612.63C612.78 93.5598 616.44 97.77 622.21 97.77C626.22 97.77 628.77 95.6701 629.86 93.1401L632.97 94.1499C631.68 97.6999 627.88 100.77 622.21 100.77C614.3 100.76 609.34 94.7802 609.34 86.2202ZM630.32 84.1401C630.32 78.7001 626.77 74.52 621.71 74.52C616.54 74.52 612.99 78.8801 612.64 84.1401H630.32Z" fill="#1D1D1B"/>
<path d="M636.93 92.2798C636.93 86.6898 641.4 84.9101 647.78 84.1201C652.52 83.5301 655.17 83.4899 655.17 81.3599V80.7002C655.17 76.8402 652.8 74.4902 648.51 74.4902C644.43 74.4902 641.87 76.5702 640.84 78.9902L637.73 77.8701C639.64 73.2501 644.09 71.54 648.41 71.54C652.73 71.54 658.43 73.4202 658.43 80.9902V100.17H655.16V95.7002H654.96C653.78 98.2002 650.91 100.81 646.21 100.81C641.08 100.81 636.93 97.7298 636.93 92.2798ZM655.17 89.3398V85.2598C654.21 86.1998 650.09 86.7102 647.78 86.9902C643 87.5802 640.2 89.0102 640.2 92.4302C640.2 95.8502 642.96 97.8198 646.65 97.8198C651.88 97.8198 655.17 93.9698 655.17 89.3398Z" fill="#1D1D1B"/>
<path d="M675.68 74.7798H669.7V92.7998C669.7 96.3498 671.74 97.3999 673.97 97.3999C674.83 97.3999 675.42 97.2701 675.88 97.1401L676.58 100.1C675.95 100.34 675.04 100.6 673.67 100.6C670.05 100.6 666.41 98.1901 666.41 93.5801V74.79H662.2V71.9399H666.41V65.1699H669.7V71.9399H675.68V74.7798Z" fill="#1D1D1B"/>
<path d="M679.79 64.7202C679.79 63.4302 680.89 62.3701 682.24 62.3701C683.59 62.3701 684.7 63.4402 684.7 64.7202C684.7 66.0002 683.58 67.0698 682.24 67.0698C680.9 67.0698 679.79 66.0102 679.79 64.7202ZM680.56 71.9302H683.85V100.17H680.56V71.9302Z" fill="#1D1D1B"/>
<path d="M701.54 100.17H698.05L687.73 71.9302H691.28L699.66 95.8501H699.92L708.3 71.9302H711.85L701.54 100.17Z" fill="#1D1D1B"/>
<path d="M714.92 64.7202C714.92 63.4302 716.02 62.3701 717.37 62.3701C718.71 62.3701 719.83 63.4402 719.83 64.7202C719.83 66.0002 718.71 67.0698 717.37 67.0698C716.02 67.0698 714.92 66.0102 714.92 64.7202ZM715.69 71.9302H718.98V100.17H715.69V71.9302Z" fill="#1D1D1B"/>
<path d="M736.25 74.7798H730.27V92.7998C730.27 96.3498 732.31 97.3999 734.54 97.3999C735.4 97.3999 735.99 97.2701 736.45 97.1401L737.15 100.1C736.53 100.34 735.61 100.6 734.24 100.6C730.62 100.6 726.98 98.1901 726.98 93.5801V74.79H722.77V71.9399H726.98V65.1699H730.27V71.9399H736.25V74.7798Z" fill="#1D1D1B"/>
<path d="M739.7 92.2798C739.7 86.6898 744.17 84.9101 750.55 84.1201C755.29 83.5301 757.94 83.4899 757.94 81.3599V80.7002C757.94 76.8402 755.57 74.4902 751.28 74.4902C747.2 74.4902 744.64 76.5702 743.61 78.9902L740.5 77.8701C742.41 73.2501 746.86 71.54 751.18 71.54C755.5 71.54 761.2 73.4202 761.2 80.9902V100.17H757.93V95.7002H757.73C756.55 98.2002 753.68 100.81 748.98 100.81C743.85 100.81 739.7 97.7298 739.7 92.2798ZM757.94 89.3398V85.2598C756.98 86.1998 752.86 86.7102 750.55 86.9902C745.77 87.5802 742.97 89.0102 742.97 92.4302C742.97 95.8502 745.73 97.8198 749.42 97.8198C754.65 97.8198 757.94 93.9698 757.94 89.3398Z" fill="#1D1D1B"/>
<path d="M778.45 74.7798H772.47V92.7998C772.47 96.3498 774.51 97.3999 776.74 97.3999C777.6 97.3999 778.19 97.2701 778.65 97.1401L779.35 100.1C778.73 100.34 777.81 100.6 776.44 100.6C772.82 100.6 769.18 98.1901 769.18 93.5801V74.79H764.97V71.9399H769.18V65.1699H772.47V71.9399H778.45V74.7798Z" fill="#1D1D1B"/>
<path d="M794.54 64.7202C794.54 63.4302 795.64 62.3701 796.99 62.3701C798.34 62.3701 799.45 63.4402 799.45 64.7202C799.45 66.0002 798.33 67.0698 796.99 67.0698C795.65 67.0698 794.54 66.0102 794.54 64.7202ZM795.31 71.9302H798.6V100.17H795.31V71.9302Z" fill="#1D1D1B"/>
<path d="M815.27 86.1201C815.27 77.4201 819.98 71.54 826.95 71.54C832.12 71.54 834.45 74.7801 835.57 77.3101H835.86V62.5098H839.15V100.17H835.95V94.9302H835.56C834.4 97.5002 832.01 100.76 826.88 100.76C819.96 100.76 815.27 94.8901 815.27 86.1201ZM835.92 86.0698C835.92 79.2998 832.79 74.52 827.28 74.52C821.62 74.52 818.56 79.5598 818.56 86.0698C818.56 92.6498 821.65 97.7598 827.28 97.7598C832.76 97.7598 835.92 92.8898 835.92 86.0698Z" fill="#1D1D1B"/>
<path d="M844.44 86.2202C844.44 77.6702 849.5 71.5498 856.82 71.5498C862.94 71.5498 868.77 75.9802 868.77 85.4102V87.0298H847.73C847.88 93.5598 851.54 97.77 857.31 97.77C861.32 97.77 863.87 95.6701 864.96 93.1401L868.07 94.1499C866.78 97.6999 862.98 100.77 857.31 100.77C849.41 100.76 844.44 94.7802 844.44 86.2202ZM865.43 84.1401C865.43 78.7001 861.88 74.52 856.82 74.52C851.65 74.52 848.1 78.8801 847.75 84.1401H865.43Z" fill="#1D1D1B"/>
<path d="M873.43 71.9302H876.61V76.27H876.9C878.02 73.35 880.78 71.5601 884.48 71.5601C888.38 71.5601 890.86 73.4899 892.11 76.6899H892.35C893.62 73.5599 896.6 71.5601 900.72 71.5601C905.96 71.5601 909.22 74.93 909.22 81.25V100.17H905.95V81.25C905.95 76.8 903.47 74.5601 899.74 74.5601C895.44 74.5601 893.01 77.5201 893.01 81.5801V100.17H889.66V80.9502C889.66 77.1302 887.42 74.5498 883.56 74.5498C879.64 74.5498 876.72 77.6798 876.72 82.0698V100.16H873.45V71.9302H873.43Z" fill="#1D1D1B"/>
<path d="M913.88 86.1802C913.88 77.5202 918.99 71.54 926.31 71.54C933.63 71.54 938.74 77.5202 938.74 86.1802C938.74 94.7902 933.63 100.76 926.31 100.76C918.99 100.76 913.88 94.7802 913.88 86.1802ZM935.45 86.1802C935.45 79.8502 932.18 74.52 926.31 74.52C920.44 74.52 917.17 79.8502 917.17 86.1802C917.17 92.5102 920.44 97.7598 926.31 97.7598C932.18 97.7598 935.45 92.5002 935.45 86.1802Z" fill="#1D1D1B"/>
<path d="M941.95 86.1802C941.95 77.6802 946.99 71.54 954.38 71.54C960.04 71.54 964.42 75.0701 965.19 80.3101H961.88C961.18 77.1101 958.46 74.52 954.43 74.52C949.01 74.52 945.24 79.2298 945.24 86.0698C945.24 92.9498 948.9 97.7598 954.43 97.7598C958.18 97.7598 961.14 95.5302 961.9 91.9302H965.21C964.46 97.0402 960.32 100.76 954.43 100.76C946.84 100.76 941.95 94.6002 941.95 86.1802Z" fill="#1D1D1B"/>
<path d="M969.63 71.9302H972.81V76.27H973.05C974.19 73.42 977.22 71.5098 980.77 71.5098C981.3 71.5098 982.06 71.5498 982.5 71.5698V74.8999C982.21 74.8599 981.4 74.7202 980.53 74.7202C976.12 74.7202 972.9 77.7502 972.9 81.9502V100.19H969.63V71.9302Z" fill="#1D1D1B"/>
<path d="M984.11 92.2798C984.11 86.6898 988.58 84.9101 994.96 84.1201C999.7 83.5301 1002.35 83.4899 1002.35 81.3599V80.7002C1002.35 76.8402 999.98 74.4902 995.69 74.4902C991.61 74.4902 989.05 76.5702 988.02 78.9902L984.91 77.8701C986.82 73.2501 991.27 71.54 995.59 71.54C999.91 71.54 1005.61 73.4202 1005.61 80.9902V100.17H1002.34V95.7002H1002.14C1000.96 98.2002 998.09 100.81 993.39 100.81C988.26 100.81 984.11 97.7298 984.11 92.2798ZM1002.35 89.3398V85.2598C1001.39 86.1998 997.27 86.7102 994.96 86.9902C990.18 87.5802 987.38 89.0102 987.38 92.4302C987.38 95.8502 990.14 97.8198 993.83 97.8198C999.06 97.8198 1002.35 93.9698 1002.35 89.3398ZM988.85 59.6602H992.73L997.44 68.0098H994.5L988.85 59.6602Z" fill="#1D1D1B"/>
<path d="M1010.28 86.1802C1010.28 77.6802 1015.32 71.54 1022.71 71.54C1028.37 71.54 1032.75 75.0701 1033.52 80.3101H1030.21C1029.51 77.1101 1026.79 74.52 1022.76 74.52C1017.34 74.52 1013.57 79.2298 1013.57 86.0698C1013.57 92.9498 1017.23 97.7598 1022.76 97.7598C1026.51 97.7598 1029.47 95.5302 1030.23 91.9302H1033.54C1032.79 97.0402 1028.65 100.76 1022.76 100.76C1015.17 100.76 1010.28 94.6002 1010.28 86.1802Z" fill="#1D1D1B"/>
<path d="M1037.23 64.7202C1037.23 63.4302 1038.33 62.3701 1039.68 62.3701C1041.03 62.3701 1042.14 63.4402 1042.14 64.7202C1042.14 66.0002 1041.02 67.0698 1039.68 67.0698C1038.34 67.0698 1037.23 66.0102 1037.23 64.7202ZM1038 71.9302H1041.29V100.17H1038V71.9302Z" fill="#1D1D1B"/>
<path d="M1046.04 92.2798C1046.04 86.6898 1050.51 84.9101 1056.89 84.1201C1061.63 83.5301 1064.28 83.4899 1064.28 81.3599V80.7002C1064.28 76.8402 1061.91 74.4902 1057.62 74.4902C1053.54 74.4902 1050.98 76.5702 1049.95 78.9902L1046.84 77.8701C1048.75 73.2501 1053.2 71.54 1057.52 71.54C1061.84 71.54 1067.54 73.4202 1067.54 80.9902V100.17H1064.27V95.7002H1064.07C1062.89 98.2002 1060.03 100.81 1055.32 100.81C1050.2 100.81 1046.04 97.7298 1046.04 92.2798ZM1064.28 89.3398V85.2598C1063.32 86.1998 1059.2 86.7102 1056.89 86.9902C1052.11 87.5802 1049.31 89.0102 1049.31 92.4302C1049.31 95.8502 1052.07 97.8198 1055.76 97.8198C1060.99 97.8198 1064.28 93.9698 1064.28 89.3398Z" fill="#1D1D1B"/>
<path d="M0.629883 6.00977H42.0098C65.8198 6.00977 79.6001 20.7098 79.6001 41.5498C79.6001 62.4998 65.5702 76.8901 41.4502 76.8901H22.8101V110.9H0.629883V6.00977ZM37.8599 59.1201C50.5599 59.1201 56.7598 51.9498 56.7598 41.5498C56.7598 31.0998 50.5598 24.1401 37.7598 24.1401H22.8101V59.1201H37.8599Z" fill="#1D1D1B"/>
<path d="M108.339 110.9H86.5195V6.02002H108.339V110.9Z" fill="#1D1D1B"/>
<path d="M114.84 88.9199C114.84 71.3599 128.82 66.1302 144.39 64.7002C158.06 63.3702 163.44 62.6999 163.44 57.6299V57.3198C163.44 50.8698 159.19 47.1299 151.76 47.1299C143.92 47.1299 139.27 50.9699 137.78 56.1899L117.6 54.5498C120.62 40.2098 133.01 31.2002 151.86 31.2002C169.37 31.2002 185.25 39.0901 185.25 57.8301V110.89H164.56V99.98H163.94C160.1 107.3 152.57 112.37 140.95 112.37C125.95 112.38 114.84 104.49 114.84 88.9199ZM163.59 82.7798V74.4302C160.98 76.1702 153.19 77.3 148.43 77.96C140.75 79.04 135.68 82.0602 135.68 88.2002C135.68 94.1902 140.49 97.3198 147.2 97.3198C156.78 97.3198 163.59 91.0298 163.59 82.7798Z" fill="#1D1D1B"/>
<path d="M236.799 48.6201H222V86.7202C222 92.7602 225.019 94.3999 229.379 94.3999C231.429 94.3999 233.73 93.8899 234.81 93.6899L238.24 109.92C236.04 110.64 232.04 111.76 226.41 111.97C210.59 112.64 200.089 105.01 200.189 89.5898V48.6201H189.43V32.23H200.189V13.3799H222V32.23H236.799V48.6201Z" fill="#1D1D1B"/>
<path d="M239.859 71.8701C239.859 47.4901 254.71 31.21 278.58 31.21C302.44 31.21 317.299 47.5001 317.299 71.8701C317.299 96.0901 302.45 112.43 278.58 112.43C254.71 112.43 239.859 96.1001 239.859 71.8701ZM295.12 71.7202C295.12 57.9902 289.49 47.8599 278.68 47.8599C267.67 47.8599 262.029 58.0002 262.029 71.7202C262.029 85.4402 267.66 95.5298 278.68 95.5298C289.48 95.5298 295.12 85.4402 295.12 71.7202Z" fill="#1D1D1B"/>
<path d="M346.24 110.9H324.42V32.2402H345.21V46.1201H346.13C349.66 36.9501 358.11 31.2202 369.79 31.2202C386.18 31.2202 396.93 42.4898 396.93 60.8198V110.91H375.11V64.7202C375.16 55.0902 369.89 49.3599 361.13 49.3599C352.32 49.3599 346.28 55.2999 346.23 65.4399V110.9H346.24Z" fill="#1D1D1B"/>
<path d="M406.17 11.0298C406.17 4.98979 411.5 0.0200195 417.95 0.0200195C424.45 0.0200195 429.78 4.98979 429.78 11.0298C429.78 17.1198 424.45 22.0898 417.95 22.0898C411.5 22.0898 406.17 17.1298 406.17 11.0298ZM406.99 32.23H428.81V110.89H406.99V32.23Z" fill="#1D1D1B"/>
<path d="M490.98 140.39V98.29H490.32C487.3 104.85 480.69 112.17 467.99 112.17C450.07 112.17 436.09 97.9802 436.09 71.6602C436.09 44.6202 450.69 31.2002 467.94 31.2002C481.1 31.2002 487.4 39.0399 490.32 45.4399H491.29V32.23H512.8V140.39H490.98ZM474.9 48.5698C464.09 48.5698 458.36 57.9401 458.36 71.5601C458.36 85.2801 464.2 94.8101 474.9 94.8101C485.4 94.8101 491.44 85.5901 491.44 71.5601C491.44 57.5301 485.5 48.5698 474.9 48.5698Z" fill="#1D1D1B"/>
</svg>
