<svg width="474" height="177" viewBox="0 0 474 177" fill="none" xmlns="http://www.w3.org/2000/svg">
<path d="M1.55957 120.39H33.4902V124.92H6.59961V145.69H30.9805V150.22H6.59961V175.57H1.55957V120.39Z" fill="#1D1D1B"/>
<path d="M67.7197 155.07C67.7197 145.8 62.9201 137.99 54.3301 137.99C45.7401 137.99 40.9404 145.8 40.9404 155.07C40.9404 164.34 45.7301 172.04 54.3301 172.04C62.9201 172.04 67.7197 164.33 67.7197 155.07ZM36.1201 155.07C36.1201 142.38 43.6101 133.62 54.3301 133.62C65.0501 133.62 72.54 142.38 72.54 155.07C72.54 167.68 65.0501 176.44 54.3301 176.44C43.6101 176.43 36.1201 167.68 36.1201 155.07Z" fill="#1D1D1B"/>
<path d="M105.59 134.19H110.38V175.57H105.59V168.7H105.21C103.27 172.95 98.9604 176.11 92.9004 176.11C84.9504 176.11 79.2998 170.8 79.2998 160.99V134.19H84.0996V160.7C84.0996 167.16 88.3003 171.45 94.2803 171.45C99.8803 171.45 105.6 167.35 105.6 159.76V134.19H105.59Z" fill="#1D1D1B"/>
<path d="M124.05 175.57H119.26V134.19H123.92V140.68H124.35C126.29 136.45 130.46 133.65 136.53 133.65C144.88 133.65 150.57 138.96 150.57 148.76V175.57H145.77V149.06C145.77 142.3 141.68 138.04 135.32 138.04C128.8 138.04 124.06 142.49 124.06 149.71V175.57H124.05Z" fill="#1D1D1B"/>
<path d="M187.57 154.9C187.57 144.99 182.99 137.98 174.91 137.98C166.61 137.98 162.14 145.36 162.14 154.9C162.14 164.55 166.67 172.03 174.91 172.03C182.93 172.04 187.57 164.9 187.57 154.9ZM157.31 154.98C157.31 142.24 164.2 133.61 174.42 133.61C181.99 133.61 185.41 138.35 187.06 142.07H187.49V120.38H192.31V175.56H187.62V167.88H187.05C185.35 171.65 181.85 176.42 174.33 176.42C164.18 176.43 157.31 167.84 157.31 154.98Z" fill="#1D1D1B"/>
<path d="M226.86 159.7V153.72C225.46 155.1 219.42 155.85 216.03 156.25C209.03 157.11 204.93 159.21 204.93 164.22C204.93 169.23 208.97 172.11 214.39 172.11C222.04 172.12 226.86 166.49 226.86 159.7ZM200.14 164.01C200.14 155.82 206.69 153.21 216.04 152.05C222.99 151.19 226.87 151.13 226.87 148.01V147.04C226.87 141.38 223.4 137.94 217.12 137.94C211.14 137.94 207.39 140.98 205.88 144.54L201.32 142.9C204.12 136.14 210.64 133.63 216.98 133.63C223.31 133.63 231.66 136.38 231.66 147.48V175.58H226.86V169.03H226.57C224.84 172.69 220.64 176.52 213.74 176.52C206.23 176.51 200.14 171.98 200.14 164.01Z" fill="#1D1D1B"/>
<path d="M256.92 138.36H248.17V164.76C248.17 169.96 251.16 171.5 254.42 171.5C255.68 171.5 256.55 171.31 257.22 171.12L258.24 175.46C257.32 175.81 255.98 176.19 253.99 176.19C248.68 176.19 243.34 172.66 243.34 165.9V138.36H237.17V134.18H243.34V124.27H248.16V134.18H256.91V138.36H256.92Z" fill="#1D1D1B"/>
<path d="M264.06 134.19H268.88V175.57H264.06V134.19ZM262.94 123.63C262.94 121.74 264.56 120.18 266.52 120.18C268.48 120.18 270.13 121.74 270.13 123.63C270.13 125.52 268.49 127.08 266.52 127.08C264.55 127.08 262.94 125.51 262.94 123.63Z" fill="#1D1D1B"/>
<path d="M307.29 155.07C307.29 145.8 302.49 137.99 293.9 137.99C285.31 137.99 280.51 145.8 280.51 155.07C280.51 164.34 285.3 172.04 293.9 172.04C302.49 172.04 307.29 164.33 307.29 155.07ZM275.69 155.07C275.69 142.38 283.18 133.62 293.9 133.62C304.63 133.62 312.11 142.38 312.11 155.07C312.11 167.68 304.62 176.44 293.9 176.44C283.18 176.43 275.69 167.68 275.69 155.07Z" fill="#1D1D1B"/>
<path d="M323.66 175.57H318.87V134.19H323.53V140.68H323.96C325.9 136.45 330.07 133.65 336.14 133.65C344.49 133.65 350.18 138.96 350.18 148.76V175.57H345.39V149.06C345.39 142.3 341.29 138.04 334.94 138.04C328.42 138.04 323.68 142.49 323.68 149.71V175.57H323.66Z" fill="#1D1D1B"/>
<path d="M34.8799 55.02C46.5999 55.02 52.3203 48.3998 52.3203 38.7998C52.3203 29.1598 46.6003 22.73 34.7803 22.73H20.9805V55.02H34.8799ZM0.519531 6H38.71C60.69 6 73.4102 19.5698 73.4102 38.7998C73.4102 58.1398 60.4504 71.4199 38.1904 71.4199H20.9902V102.81H0.519531V6Z" fill="#1D1D1B"/>
<path d="M99.8496 6H79.71V102.81H99.8496V6Z" fill="#1D1D1B"/>
<path d="M150.87 76.8501V69.1401C148.45 70.7501 141.27 71.7902 136.87 72.4102C129.78 73.4002 125.1 76.1899 125.1 81.8599C125.1 87.3899 129.55 90.2798 135.74 90.2798C144.58 90.2798 150.87 84.4601 150.87 76.8501ZM105.87 82.5298C105.87 66.3198 118.78 61.4999 133.15 60.1699C145.77 58.9399 150.73 58.3299 150.73 53.6499V53.3701C150.73 47.4101 146.81 43.9702 139.95 43.9702C132.71 43.9702 128.42 47.5201 127.05 52.3301L108.42 50.8198C111.21 37.5898 122.65 29.2598 140.04 29.2598C156.2 29.2598 170.86 36.5398 170.86 53.8398V102.81H151.76V92.7402H151.19C147.65 99.5002 140.7 104.18 129.97 104.18C116.13 104.18 105.87 96.8998 105.87 82.5298Z" fill="#1D1D1B"/>
<path d="M218.49 45.3301H204.83V80.5C204.83 86.08 207.62 87.5898 211.63 87.5898C213.52 87.5898 215.65 87.1102 216.64 86.9302L219.81 101.91C217.78 102.57 214.09 103.61 208.89 103.8C194.28 104.42 184.6 97.3701 184.69 83.1401V45.3301H174.76V30.2002H184.69V12.8101H204.83V30.2002H218.49V45.3301Z" fill="#1D1D1B"/>
<path d="M272.25 66.6499C272.25 53.9799 267.05 44.6201 257.08 44.6201C246.91 44.6201 241.72 53.9799 241.72 66.6499C241.72 79.3199 246.92 88.6299 257.08 88.6299C267.05 88.6199 272.25 79.3099 272.25 66.6499ZM221.24 66.79C221.24 44.29 234.95 29.2598 256.97 29.2598C279 29.2598 292.71 44.29 292.71 66.79C292.71 89.15 279 104.23 256.97 104.23C234.95 104.22 221.24 89.15 221.24 66.79Z" fill="#1D1D1B"/>
<path d="M319.35 102.81H299.21V30.2002H318.4V43.0098H319.25C322.52 34.5498 330.31 29.25 341.09 29.25C356.21 29.25 366.14 39.6498 366.14 56.5698V102.8H346.01V60.1602C346.06 51.2702 341.19 45.98 333.1 45.98C324.97 45.98 319.39 51.4698 319.35 60.8198V102.81Z" fill="#1D1D1B"/>
<path d="M375.34 30.2002H395.47V102.81H375.34V30.2002ZM374.58 10.6299C374.58 5.04988 379.5 0.459961 385.45 0.459961C391.45 0.459961 396.37 5.04988 396.37 10.6299C396.37 16.2599 391.45 20.8398 385.45 20.8398C379.5 20.8398 374.58 16.2599 374.58 10.6299Z" fill="#1D1D1B"/>
<path d="M438.03 45.2798C428.06 45.2798 422.76 53.9298 422.76 66.5098C422.76 79.1798 428.15 87.9702 438.03 87.9702C447.72 87.9702 453.3 79.4598 453.3 66.5098C453.3 53.5498 447.82 45.2798 438.03 45.2798ZM452.88 130.03V91.1802H452.26C449.47 97.2302 443.37 103.99 431.65 103.99C415.11 103.99 402.2 90.9001 402.2 66.6001C402.2 41.6401 415.67 29.2598 431.6 29.2598C443.75 29.2598 449.56 36.4899 452.26 42.3999H453.16V30.21H473.01V130.04H452.88V130.03Z" fill="#1D1D1B"/>
</svg>
