<svg width="574" height="158" viewBox="0 0 574 158" fill="none" xmlns="http://www.w3.org/2000/svg">
<path d="M0.280273 7.54004H46.5596C73.1996 7.54004 88.5996 23.98 88.5996 47.29C88.5996 70.71 72.9097 86.8101 45.9297 86.8101H25.0801V124.84H0.280273V7.54004ZM41.9199 66.9302C56.1299 66.9302 63.0596 58.91 63.0596 47.29C63.0596 35.6 56.1296 27.8198 41.8096 27.8198H25.0801V66.9399H41.9199V66.9302Z" fill="#1D1D1B"/>
<path d="M120.78 124.84H96.3799V7.54004H120.78V124.84Z" fill="#1D1D1B"/>
<path d="M128.06 100.27C128.06 80.63 143.7 74.7802 161.11 73.1802C176.4 71.6902 182.42 70.94 182.42 65.27V64.9302C182.42 57.7102 177.67 53.5298 169.36 53.5298C160.6 53.5298 155.38 57.8299 153.72 63.6699L131.16 61.8398C134.54 45.7998 148.4 35.7202 169.48 35.7202C189.07 35.7202 206.82 44.54 206.82 65.5V124.84H183.68V112.64H182.99C178.7 120.83 170.27 126.5 157.27 126.5C140.49 126.5 128.06 117.68 128.06 100.27ZM182.59 93.3999V84.0601C179.67 86.0001 170.96 87.2698 165.64 88.0098C157.05 89.2098 151.38 92.5902 151.38 99.4702C151.38 106.17 156.76 109.66 164.27 109.66C174.97 109.66 182.59 102.62 182.59 93.3999Z" fill="#1D1D1B"/>
<path d="M264.5 55.1899H247.95V97.7998C247.95 104.56 251.33 106.39 256.2 106.39C258.49 106.39 261.07 105.81 262.27 105.59L266.1 123.75C263.64 124.55 259.17 125.81 252.87 126.04C235.17 126.79 223.43 118.25 223.54 101.01V55.1899H211.51V36.8599H223.54V15.7798H247.94V36.8599H264.49V55.1899H264.5Z" fill="#1D1D1B"/>
<path d="M267.94 81.1899C267.94 53.9299 284.55 35.71 311.24 35.71C337.93 35.71 354.54 53.9199 354.54 81.1899C354.54 108.28 337.93 126.55 311.24 126.55C284.55 126.55 267.94 108.29 267.94 81.1899ZM329.74 81.0298C329.74 65.6798 323.44 54.3398 311.35 54.3398C299.04 54.3398 292.74 65.6798 292.74 81.0298C292.74 96.3798 299.04 107.66 311.35 107.66C323.44 107.66 329.74 96.3698 329.74 81.0298Z" fill="#1D1D1B"/>
<path d="M386.95 124.84H362.55V36.8599H385.8V52.3799H386.83C390.78 42.1299 400.23 35.71 413.29 35.71C431.62 35.71 443.65 48.3098 443.65 68.8198V124.84H419.25V73.1802C419.3 62.4102 413.41 56 403.61 56C393.76 56 387 62.64 386.94 73.98V124.84H386.95Z" fill="#1D1D1B"/>
<path d="M454.01 13.1499C454.01 6.3899 459.97 0.830078 467.18 0.830078C474.45 0.830078 480.41 6.3899 480.41 13.1499C480.41 19.9699 474.45 25.52 467.18 25.52C459.97 25.52 454.01 19.9699 454.01 13.1499ZM454.93 36.8599H479.33V124.84H454.93V36.8599Z" fill="#1D1D1B"/>
<path d="M548.87 157.83V110.75H548.13C544.75 118.08 537.36 126.27 523.16 126.27C503.11 126.27 487.48 110.4 487.48 80.96C487.48 50.72 503.8 35.71 523.1 35.71C537.82 35.71 544.87 44.4699 548.13 51.6299H549.22V36.8501H573.27V157.82H548.87V157.83ZM530.88 55.1299C518.79 55.1299 512.38 65.6101 512.38 80.8501C512.38 96.2001 518.91 106.85 530.88 106.85C542.62 106.85 549.38 96.5401 549.38 80.8501C549.38 65.1601 542.74 55.1299 530.88 55.1299Z" fill="#1D1D1B"/>
</svg>
