<svg width="473" height="177" viewBox="0 0 473 177" fill="none" xmlns="http://www.w3.org/2000/svg">
<path d="M2.03027 120.48H33.9004V124.99H7.05957V145.74H31.4004V150.25H7.05957V175.57H2.03027V120.48Z" fill="#1D1D1B"/>
<path d="M65.3398 134.25H70.1299V175.57H65.3398V168.71H64.96C63.02 172.96 58.7199 176.11 52.6699 176.11C44.7399 176.11 39.0898 170.81 39.0898 161.02V134.25H43.8799V160.72C43.8799 167.17 48.0698 171.45 54.0498 171.45C59.6498 171.45 65.3496 167.36 65.3496 159.78V134.25H65.3398Z" fill="#1D1D1B"/>
<path d="M83.7803 175.57H78.9902V134.25H83.6504V140.73H84.0801C86.0201 136.51 90.1902 133.71 96.2402 133.71C104.58 133.71 110.26 139.01 110.26 148.8V175.57H105.47V149.1C105.47 142.35 101.38 138.1 95.0303 138.1C88.5203 138.1 83.79 142.54 83.79 149.75V175.57H83.7803Z" fill="#1D1D1B"/>
<path d="M147.2 154.94C147.2 145.04 142.63 138.04 134.56 138.04C126.28 138.04 121.81 145.41 121.81 154.94C121.81 164.57 126.32 172.05 134.56 172.05C142.57 172.04 147.2 164.92 147.2 154.94ZM116.99 155.02C116.99 142.3 123.87 133.69 134.07 133.69C141.63 133.69 145.05 138.43 146.69 142.14H147.12V120.48H151.94V175.58H147.26V167.91H146.7C145 171.68 141.51 176.44 134 176.44C123.85 176.43 116.99 167.85 116.99 155.02Z" fill="#1D1D1B"/>
<path d="M186.44 159.73V153.76C185.04 155.13 179.02 155.88 175.63 156.29C168.63 157.15 164.54 159.25 164.54 164.26C164.54 169.27 168.58 172.14 173.98 172.14C181.62 172.13 186.44 166.5 186.44 159.73ZM159.75 164.03C159.75 155.85 166.29 153.24 175.62 152.09C182.56 151.23 186.43 151.17 186.43 148.05V147.08C186.43 141.43 182.96 137.99 176.69 137.99C170.72 137.99 166.98 141.03 165.48 144.58L160.93 142.94C163.73 136.19 170.24 133.69 176.56 133.69C182.88 133.69 191.22 136.43 191.22 147.52V175.58H186.43V169.04H186.14C184.42 172.7 180.22 176.52 173.33 176.52C165.83 176.51 159.75 171.99 159.75 164.03Z" fill="#1D1D1B"/>
<path d="M198.04 155.1C198.04 142.67 205.41 133.68 216.22 133.68C224.51 133.68 230.91 138.84 232.04 146.51H227.2C226.18 141.83 222.2 138.03 216.31 138.03C208.37 138.03 202.86 144.92 202.86 154.93C202.86 164.99 208.22 172.04 216.31 172.04C221.8 172.04 226.12 168.79 227.23 163.51H232.07C230.96 170.99 224.91 176.42 216.31 176.42C205.2 176.43 198.04 167.42 198.04 155.1Z" fill="#1D1D1B"/>
<path d="M238.6 134.25H243.41V175.57H238.6V134.25ZM237.47 123.7C237.47 121.82 239.09 120.26 241.05 120.26C243.01 120.26 244.65 121.82 244.65 123.7C244.65 125.58 243.01 127.14 241.05 127.14C239.09 127.14 237.47 125.59 237.47 123.7Z" fill="#1D1D1B"/>
<path d="M273.04 116.3H278.72L270.46 128.51H266.16L273.04 116.3ZM281.76 155.1C281.76 145.84 276.97 138.04 268.39 138.04C259.81 138.04 255.02 145.84 255.02 155.1C255.02 164.36 259.81 172.05 268.39 172.05C276.97 172.04 281.76 164.35 281.76 155.1ZM250.2 155.1C250.2 142.43 257.68 133.68 268.38 133.68C279.09 133.68 286.57 142.42 286.57 155.1C286.57 167.69 279.09 176.43 268.38 176.43C257.68 176.43 250.2 167.69 250.2 155.1Z" fill="#1D1D1B"/>
<path d="M35.2197 54.9399C46.9297 54.9399 52.6396 48.33 52.6396 38.75C52.6396 29.12 46.9299 22.7002 35.1299 22.7002H21.3496V54.9399H35.2197ZM0.910156 5.99023H39.0498C60.9998 5.99023 73.7002 19.54 73.7002 38.75C73.7002 58.06 60.7603 71.3198 38.5303 71.3198H21.3496V102.66H0.910156V5.99023Z" fill="#1D1D1B"/>
<path d="M100.1 5.99023H79.9902V102.66H100.1V5.99023Z" fill="#1D1D1B"/>
<path d="M151.04 76.7402V69.0498C148.63 70.6598 141.45 71.7001 137.07 72.3101C129.99 73.3001 125.32 76.08 125.32 81.75C125.32 87.27 129.76 90.1499 135.94 90.1499C144.76 90.1499 151.04 84.3402 151.04 76.7402ZM106.11 82.4102C106.11 66.2202 119 61.4101 133.35 60.0801C145.95 58.8501 150.91 58.2398 150.91 53.5698V53.29C150.91 47.34 146.99 43.8999 140.15 43.8999C132.93 43.8999 128.63 47.44 127.27 52.25L108.67 50.7402C111.46 37.5202 122.88 29.2202 140.25 29.2202C156.39 29.2202 171.03 36.4898 171.03 53.7598V102.66H151.96V92.6099H151.39C147.85 99.3599 140.91 104.03 130.2 104.03C116.35 104.03 106.11 96.7502 106.11 82.4102Z" fill="#1D1D1B"/>
<path d="M218.56 45.2598H204.92V80.3799C204.92 85.9499 207.7 87.46 211.71 87.46C213.6 87.46 215.72 86.9798 216.72 86.7998L219.88 101.76C217.85 102.42 214.16 103.46 208.97 103.65C194.39 104.26 184.71 97.23 184.8 83.02V45.2598H174.89V30.1499H184.8V12.7798H204.91V30.1499H218.55V45.2598H218.56Z" fill="#1D1D1B"/>
<path d="M272.24 66.5498C272.24 53.8998 267.05 44.5498 257.09 44.5498C246.94 44.5498 241.75 53.8898 241.75 66.5498C241.75 79.1998 246.94 88.4902 257.09 88.4902C267.05 88.4902 272.24 79.1998 272.24 66.5498ZM221.31 66.6899C221.31 44.2199 235 29.2202 256.99 29.2202C278.99 29.2202 292.68 44.2299 292.68 66.6899C292.68 89.0199 278.99 104.07 256.99 104.07C235 104.07 221.31 89.0199 221.31 66.6899Z" fill="#1D1D1B"/>
<path d="M319.28 102.66H299.17V30.1602H318.33V42.9502H319.18C322.44 34.5002 330.23 29.21 340.99 29.21C356.09 29.21 366 39.6002 366 56.4902V102.65H345.9V60.0698C345.95 51.1998 341.08 45.9102 333.01 45.9102C324.89 45.9102 319.32 51.39 319.28 60.73V102.66Z" fill="#1D1D1B"/>
<path d="M375.18 30.1602H395.28V102.66H375.18V30.1602ZM374.43 10.6201C374.43 5.05012 379.34 0.470215 385.29 0.470215C391.28 0.470215 396.19 5.05012 396.19 10.6201C396.19 16.2401 391.28 20.8198 385.29 20.8198C379.34 20.8098 374.43 16.2301 374.43 10.6201Z" fill="#1D1D1B"/>
<path d="M437.78 45.21C427.82 45.21 422.53 53.8499 422.53 66.3999C422.53 79.0499 427.91 87.8301 437.78 87.8301C447.46 87.8301 453.03 79.3299 453.03 66.3999C453.03 53.4699 447.56 45.21 437.78 45.21ZM452.61 129.84V91.04H452C449.21 97.08 443.13 103.83 431.42 103.83C414.9 103.83 402.02 90.75 402.02 66.5C402.02 41.58 415.47 29.21 431.38 29.21C443.51 29.21 449.32 36.4301 452.01 42.3301H452.91V30.1499H472.73V129.83H452.61V129.84Z" fill="#1D1D1B"/>
</svg>
