<svg width="473" height="177" viewBox="0 0 473 177" fill="none" xmlns="http://www.w3.org/2000/svg">
<path d="M1.87988 120.92H33.7598V125.44H6.91992V146.18H31.2598V150.7H6.91992V176.01H1.87988V120.92Z" fill="#53284F"/>
<path d="M65.2002 134.69H69.9902V176.01H65.2002V169.15H64.8203C62.8803 173.4 58.5803 176.55 52.5303 176.55C44.5903 176.55 38.9502 171.25 38.9502 161.46V134.69H43.7402V161.16C43.7402 167.61 47.9402 171.89 53.9102 171.89C59.5102 171.89 65.21 167.8 65.21 160.22V134.69H65.2002Z" fill="#53284F"/>
<path d="M83.6396 176.01H78.8496V134.69H83.5V141.17H83.9297C85.8697 136.95 90.0398 134.15 96.0898 134.15C104.43 134.15 110.11 139.45 110.11 149.24V176.01H105.32V149.54C105.32 142.79 101.23 138.54 94.8799 138.54C88.3699 138.54 83.6396 142.98 83.6396 150.19V176.01Z" fill="#53284F"/>
<path d="M147.06 155.38C147.06 145.48 142.49 138.48 134.42 138.48C126.14 138.48 121.67 145.85 121.67 155.38C121.67 165.01 126.19 172.49 134.42 172.49C142.43 172.49 147.06 165.36 147.06 155.38ZM116.85 155.46C116.85 142.74 123.74 134.13 133.93 134.13C141.49 134.13 144.91 138.87 146.55 142.58H146.98V120.92H151.79V176.02H147.11V168.35H146.55C144.85 172.12 141.36 176.88 133.85 176.88C123.71 176.87 116.85 168.29 116.85 155.46Z" fill="#53284F"/>
<path d="M186.29 160.17V154.2C184.89 155.57 178.87 156.32 175.48 156.73C168.48 157.59 164.39 159.69 164.39 164.7C164.39 169.71 168.43 172.58 173.83 172.58C181.48 172.57 186.29 166.95 186.29 160.17ZM159.61 164.47C159.61 156.29 166.15 153.68 175.48 152.53C182.42 151.67 186.29 151.61 186.29 148.49V147.52C186.29 141.87 182.82 138.43 176.56 138.43C170.59 138.43 166.85 141.47 165.34 145.02L160.79 143.38C163.59 136.63 170.1 134.12 176.42 134.12C182.74 134.12 191.08 136.86 191.08 147.95V176.01H186.29V169.47H186C184.28 173.13 180.08 176.95 173.19 176.95C165.69 176.95 159.61 172.43 159.61 164.47Z" fill="#53284F"/>
<path d="M197.9 155.54C197.9 143.11 205.27 134.12 216.08 134.12C224.37 134.12 230.77 139.28 231.9 146.95H227.06C226.04 142.27 222.06 138.47 216.16 138.47C208.23 138.47 202.71 145.36 202.71 155.37C202.71 165.43 208.06 172.48 216.16 172.48C221.65 172.48 225.98 169.23 227.08 163.95H231.92C230.82 171.43 224.77 176.86 216.16 176.86C205.06 176.87 197.9 167.86 197.9 155.54Z" fill="#53284F"/>
<path d="M238.46 134.69H243.28V176.01H238.46V134.69ZM237.33 124.15C237.33 122.27 238.94 120.71 240.91 120.71C242.87 120.71 244.51 122.27 244.51 124.15C244.51 126.03 242.87 127.59 240.91 127.59C238.94 127.59 237.33 126.03 237.33 124.15Z" fill="#53284F"/>
<path d="M272.9 116.75H278.58L270.32 128.96H266.01L272.9 116.75ZM281.62 155.54C281.62 146.28 276.83 138.48 268.25 138.48C259.67 138.48 254.88 146.28 254.88 155.54C254.88 164.8 259.67 172.49 268.25 172.49C276.83 172.49 281.62 164.79 281.62 155.54ZM250.06 155.54C250.06 142.87 257.54 134.12 268.24 134.12C278.94 134.12 286.42 142.86 286.42 155.54C286.42 168.13 278.94 176.87 268.24 176.87C257.54 176.87 250.06 168.13 250.06 155.54Z" fill="#53284F"/>
<path d="M297.96 176.01H293.17V134.69H297.82V141.17H298.25C300.19 136.95 304.35 134.15 310.41 134.15C318.75 134.15 324.43 139.45 324.43 149.24V176.01H319.64V149.54C319.64 142.79 315.55 138.54 309.2 138.54C302.69 138.54 297.96 142.98 297.96 150.19V176.01Z" fill="#53284F"/>
<path d="M35.1504 55.3799C46.8604 55.3799 52.5703 48.7699 52.5703 39.1899C52.5703 29.5599 46.8596 23.1401 35.0596 23.1401H21.2803V55.3799H35.1504ZM0.830078 6.43018H38.9697C60.9197 6.43018 73.6201 19.9799 73.6201 39.1899C73.6201 58.4999 60.6802 71.7598 38.4502 71.7598H21.2695V103.1H0.830078V6.43018Z" fill="#53284F"/>
<path d="M100.02 6.43018H79.9102V103.1H100.02V6.43018Z" fill="#53284F"/>
<path d="M150.97 77.1802V69.4902C148.56 71.1002 141.38 72.14 137 72.75C129.92 73.74 125.25 76.5199 125.25 82.1899C125.25 87.7099 129.69 90.5898 135.87 90.5898C144.69 90.5898 150.97 84.7802 150.97 77.1802ZM106.03 82.8501C106.03 66.6601 118.92 61.85 133.27 60.52C145.87 59.29 150.83 58.6798 150.83 54.0098V53.73C150.83 47.78 146.91 44.3398 140.07 44.3398C132.85 44.3398 128.56 47.8799 127.19 52.6899L108.59 51.1802C111.38 37.9602 122.8 29.6499 140.17 29.6499C156.31 29.6499 170.95 36.9199 170.95 54.1899V103.09H151.88V93.04H151.31C147.77 99.79 140.83 104.46 130.12 104.46C116.28 104.47 106.03 97.2001 106.03 82.8501Z" fill="#53284F"/>
<path d="M218.48 45.7002H204.84V80.8198C204.84 86.3898 207.62 87.8999 211.63 87.8999C213.52 87.8999 215.64 87.4202 216.64 87.2402L219.8 102.2C217.77 102.86 214.09 103.9 208.9 104.09C194.32 104.7 184.64 97.67 184.73 83.46V45.7002H174.82V30.5898H184.73V13.2202H204.84V30.5898H218.48V45.7002Z" fill="#53284F"/>
<path d="M272.17 66.9902C272.17 54.3402 266.98 44.9902 257.02 44.9902C246.87 44.9902 241.68 54.3302 241.68 66.9902C241.68 79.6402 246.87 88.9302 257.02 88.9302C266.98 88.9402 272.17 79.6402 272.17 66.9902ZM221.24 67.1299C221.24 44.6599 234.93 29.6499 256.92 29.6499C278.92 29.6499 292.61 44.6599 292.61 67.1299C292.61 89.4599 278.92 104.51 256.92 104.51C234.93 104.51 221.24 89.4599 221.24 67.1299Z" fill="#53284F"/>
<path d="M319.2 103.1H299.09V30.6001H318.25V43.3901H319.1C322.36 34.9401 330.15 29.6499 340.91 29.6499C356.01 29.6499 365.92 40.0402 365.92 56.9302V103.09H345.81V60.5098C345.86 51.6398 340.99 46.3501 332.92 46.3501C324.8 46.3501 319.23 51.8299 319.19 61.1699V103.1H319.2Z" fill="#53284F"/>
<path d="M375.11 30.6001H395.21V103.1H375.11V30.6001ZM374.35 11.0601C374.35 5.49006 379.26 0.910156 385.21 0.910156C391.2 0.910156 396.11 5.49006 396.11 11.0601C396.11 16.6801 391.2 21.2598 385.21 21.2598C379.26 21.2498 374.35 16.6701 374.35 11.0601Z" fill="#53284F"/>
<path d="M437.71 45.6499C427.75 45.6499 422.46 54.2898 422.46 66.8398C422.46 79.4898 427.84 88.27 437.71 88.27C447.39 88.27 452.96 79.7698 452.96 66.8398C452.96 53.9098 447.48 45.6499 437.71 45.6499ZM452.53 130.28V91.48H451.92C449.13 97.52 443.05 104.27 431.34 104.27C414.82 104.27 401.94 91.1899 401.94 66.9399C401.94 42.0199 415.39 29.6499 431.3 29.6499C443.43 29.6499 449.24 36.87 451.93 42.77H452.83V30.5898H472.65V130.28H452.53Z" fill="#53284F"/>
</svg>
