<svg width="1068" height="141" viewBox="0 0 1068 141" fill="none" xmlns="http://www.w3.org/2000/svg">
<path d="M587.45 74.8301C586.4 69.6801 581.9 65.7798 575.99 65.7798C568.86 65.7798 563.05 71.4601 563.05 81.8901C563.05 92.3501 568.86 98 575.99 98C581.89 98 586.4 94.1202 587.45 88.9502H590.91C589.68 95.8602 584.01 101.23 576 101.23C566.49 101.23 559.73 93.6701 559.73 81.8901C559.73 70.1101 566.5 62.5498 576 62.5498C584.02 62.5498 589.68 67.9001 590.91 74.8301H587.45Z" fill="white"/>
<path d="M595.79 72.4702H598.97V76.8101H599.21C600.35 73.9601 603.38 72.0498 606.93 72.0498C607.46 72.0498 608.22 72.0899 608.66 72.1099V75.4399C608.37 75.3999 607.56 75.2598 606.69 75.2598C602.28 75.2598 599.06 78.2902 599.06 82.4902V100.73H595.79V72.4702Z" fill="white"/>
<path d="M609.34 86.7598C609.34 78.2098 614.4 72.0898 621.72 72.0898C627.84 72.0898 633.67 76.5202 633.67 85.9502V87.5698H612.63C612.78 94.0998 616.44 98.3101 622.21 98.3101C626.22 98.3101 628.77 96.2102 629.86 93.6802L632.97 94.6899C631.68 98.2399 627.88 101.31 622.21 101.31C614.3 101.3 609.34 95.3298 609.34 86.7598ZM630.32 84.6802C630.32 79.2402 626.77 75.0601 621.71 75.0601C616.54 75.0601 612.99 79.4202 612.64 84.6802H630.32Z" fill="white"/>
<path d="M636.93 92.8301C636.93 87.2401 641.4 85.4599 647.78 84.6699C652.52 84.0799 655.17 84.0502 655.17 81.9102V81.25C655.17 77.39 652.8 75.04 648.51 75.04C644.43 75.04 641.87 77.12 640.84 79.54L637.73 78.4199C639.64 73.7999 644.09 72.0898 648.41 72.0898C652.73 72.0898 658.43 73.97 658.43 81.54V100.72H655.16V96.25H654.96C653.78 98.75 650.91 101.36 646.21 101.36C641.08 101.36 636.93 98.2701 636.93 92.8301ZM655.17 89.8901V85.8101C654.21 86.7501 650.09 87.26 647.78 87.54C643 88.13 640.2 89.56 640.2 92.98C640.2 96.4 642.96 98.3701 646.65 98.3701C651.88 98.3601 655.17 94.5201 655.17 89.8901Z" fill="white"/>
<path d="M675.68 75.3198H669.7V93.3398C669.7 96.8898 671.74 97.9399 673.97 97.9399C674.83 97.9399 675.42 97.8102 675.88 97.6802L676.58 100.64C675.95 100.88 675.04 101.14 673.67 101.14C670.05 101.14 666.41 98.7301 666.41 94.1201V75.3301H662.2V72.48H666.41V65.71H669.7V72.48H675.68V75.3198Z" fill="white"/>
<path d="M679.79 65.2598C679.79 63.9698 680.89 62.9102 682.24 62.9102C683.59 62.9102 684.7 63.9798 684.7 65.2598C684.7 66.5398 683.58 67.6099 682.24 67.6099C680.9 67.6099 679.79 66.5498 679.79 65.2598ZM680.56 72.4702H683.85V100.71H680.56V72.4702Z" fill="white"/>
<path d="M701.54 100.72H698.05L687.73 72.48H691.28L699.66 96.3999H699.92L708.3 72.48H711.85L701.54 100.72Z" fill="white"/>
<path d="M714.92 65.2598C714.92 63.9698 716.02 62.9102 717.37 62.9102C718.71 62.9102 719.83 63.9798 719.83 65.2598C719.83 66.5398 718.71 67.6099 717.37 67.6099C716.02 67.6199 714.92 66.5498 714.92 65.2598ZM715.69 72.4702H718.98V100.71H715.69V72.4702Z" fill="white"/>
<path d="M736.25 75.3198H730.27V93.3398C730.27 96.8898 732.31 97.9399 734.54 97.9399C735.4 97.9399 735.99 97.8102 736.45 97.6802L737.15 100.64C736.53 100.88 735.61 101.14 734.24 101.14C730.62 101.14 726.98 98.7301 726.98 94.1201V75.3301H722.77V72.48H726.98V65.71H730.27V72.48H736.25V75.3198Z" fill="white"/>
<path d="M739.7 92.8301C739.7 87.2401 744.17 85.4599 750.55 84.6699C755.29 84.0799 757.94 84.0502 757.94 81.9102V81.25C757.94 77.39 755.57 75.04 751.28 75.04C747.2 75.04 744.64 77.12 743.61 79.54L740.5 78.4199C742.41 73.7999 746.86 72.0898 751.18 72.0898C755.5 72.0898 761.2 73.97 761.2 81.54V100.72H757.93V96.25H757.73C756.55 98.75 753.68 101.36 748.98 101.36C743.85 101.36 739.7 98.2701 739.7 92.8301ZM757.94 89.8901V85.8101C756.98 86.7501 752.86 87.26 750.55 87.54C745.77 88.13 742.97 89.56 742.97 92.98C742.97 96.4 745.73 98.3701 749.42 98.3701C754.65 98.3601 757.94 94.5201 757.94 89.8901Z" fill="white"/>
<path d="M778.45 75.3198H772.47V93.3398C772.47 96.8898 774.51 97.9399 776.74 97.9399C777.6 97.9399 778.19 97.8102 778.65 97.6802L779.35 100.64C778.73 100.88 777.81 101.14 776.44 101.14C772.82 101.14 769.18 98.7301 769.18 94.1201V75.3301H764.97V72.48H769.18V65.71H772.47V72.48H778.45V75.3198Z" fill="white"/>
<path d="M794.54 65.2598C794.54 63.9698 795.64 62.9102 796.99 62.9102C798.34 62.9102 799.45 63.9798 799.45 65.2598C799.45 66.5398 798.33 67.6099 796.99 67.6099C795.65 67.6099 794.54 66.5498 794.54 65.2598ZM795.31 72.4702H798.6V100.71H795.31V72.4702Z" fill="white"/>
<path d="M815.27 86.6699C815.27 77.9699 819.98 72.0898 826.95 72.0898C832.12 72.0898 834.45 75.3299 835.57 77.8599H835.86V63.0601H839.15V100.72H835.95V95.48H835.56C834.4 98.05 832.01 101.31 826.88 101.31C819.96 101.3 815.27 95.4399 815.27 86.6699ZM835.92 86.6099C835.92 79.8399 832.79 75.0601 827.28 75.0601C821.62 75.0601 818.56 80.0999 818.56 86.6099C818.56 93.1899 821.65 98.2998 827.28 98.2998C832.76 98.3098 835.92 93.4299 835.92 86.6099Z" fill="white"/>
<path d="M844.44 86.7598C844.44 78.2098 849.5 72.0898 856.82 72.0898C862.94 72.0898 868.77 76.5202 868.77 85.9502V87.5698H847.73C847.88 94.0998 851.54 98.3101 857.31 98.3101C861.32 98.3101 863.87 96.2102 864.96 93.6802L868.07 94.6899C866.78 98.2399 862.98 101.31 857.31 101.31C849.41 101.3 844.44 95.3298 844.44 86.7598ZM865.43 84.6802C865.43 79.2402 861.88 75.0601 856.82 75.0601C851.65 75.0601 848.1 79.4202 847.75 84.6802H865.43Z" fill="white"/>
<path d="M873.43 72.4702H876.61V76.8101H876.9C878.02 73.8901 880.78 72.1001 884.48 72.1001C888.38 72.1001 890.86 74.03 892.11 77.23H892.35C893.62 74.1 896.6 72.1001 900.72 72.1001C905.96 72.1001 909.22 75.46 909.22 81.79V100.71H905.95V81.79C905.95 77.34 903.47 75.1001 899.74 75.1001C895.44 75.1001 893.01 78.0601 893.01 82.1201V100.71H889.66V81.4902C889.66 77.6702 887.42 75.0898 883.56 75.0898C879.64 75.0898 876.72 78.2199 876.72 82.6099V100.7H873.45V72.4702H873.43Z" fill="white"/>
<path d="M913.88 86.7202C913.88 78.0602 918.99 72.0801 926.31 72.0801C933.63 72.0801 938.74 78.0602 938.74 86.7202C938.74 95.3302 933.63 101.3 926.31 101.3C918.99 101.3 913.88 95.3302 913.88 86.7202ZM935.45 86.7202C935.45 80.3902 932.18 75.0601 926.31 75.0601C920.44 75.0601 917.17 80.3902 917.17 86.7202C917.17 93.0502 920.44 98.2998 926.31 98.2998C932.18 98.2998 935.45 93.0502 935.45 86.7202Z" fill="white"/>
<path d="M941.95 86.7202C941.95 78.2202 946.99 72.0801 954.38 72.0801C960.04 72.0801 964.42 75.6101 965.19 80.8501H961.88C961.18 77.6501 958.46 75.0601 954.43 75.0601C949.01 75.0601 945.24 79.7699 945.24 86.6099C945.24 93.4899 948.9 98.2998 954.43 98.2998C958.18 98.2998 961.14 96.0702 961.9 92.4702H965.21C964.46 97.5802 960.32 101.3 954.43 101.3C946.84 101.3 941.95 95.1402 941.95 86.7202Z" fill="white"/>
<path d="M969.63 72.4702H972.81V76.8101H973.05C974.19 73.9601 977.22 72.0498 980.77 72.0498C981.3 72.0498 982.06 72.0899 982.5 72.1099V75.4399C982.21 75.3999 981.4 75.2598 980.53 75.2598C976.12 75.2598 972.9 78.2902 972.9 82.4902V100.73H969.63V72.4702Z" fill="white"/>
<path d="M984.11 92.8301C984.11 87.2401 988.58 85.4599 994.96 84.6699C999.7 84.0799 1002.35 84.0502 1002.35 81.9102V81.25C1002.35 77.39 999.98 75.04 995.69 75.04C991.61 75.04 989.05 77.12 988.02 79.54L984.91 78.4199C986.82 73.7999 991.27 72.0898 995.59 72.0898C999.91 72.0898 1005.61 73.97 1005.61 81.54V100.72H1002.34V96.25H1002.14C1000.96 98.75 998.09 101.36 993.39 101.36C988.26 101.36 984.11 98.2701 984.11 92.8301ZM1002.35 89.8901V85.8101C1001.39 86.7501 997.27 87.26 994.96 87.54C990.18 88.13 987.38 89.56 987.38 92.98C987.38 96.4 990.14 98.3701 993.83 98.3701C999.06 98.3601 1002.35 94.5201 1002.35 89.8901ZM988.85 60.21H992.73L997.44 68.5601H994.5L988.85 60.21Z" fill="white"/>
<path d="M1010.28 86.7202C1010.28 78.2202 1015.32 72.0801 1022.71 72.0801C1028.37 72.0801 1032.75 75.6101 1033.52 80.8501H1030.21C1029.51 77.6501 1026.79 75.0601 1022.76 75.0601C1017.34 75.0601 1013.57 79.7699 1013.57 86.6099C1013.57 93.4899 1017.23 98.2998 1022.76 98.2998C1026.51 98.2998 1029.47 96.0702 1030.23 92.4702H1033.54C1032.79 97.5802 1028.65 101.3 1022.76 101.3C1015.17 101.3 1010.28 95.1402 1010.28 86.7202Z" fill="white"/>
<path d="M1037.23 65.2598C1037.23 63.9698 1038.33 62.9102 1039.68 62.9102C1041.03 62.9102 1042.14 63.9798 1042.14 65.2598C1042.14 66.5398 1041.02 67.6099 1039.68 67.6099C1038.34 67.6099 1037.23 66.5498 1037.23 65.2598ZM1038 72.4702H1041.29V100.71H1038V72.4702Z" fill="white"/>
<path d="M1046.04 92.8301C1046.04 87.2401 1050.51 85.4599 1056.89 84.6699C1061.63 84.0799 1064.28 84.0502 1064.28 81.9102V81.25C1064.28 77.39 1061.91 75.04 1057.62 75.04C1053.54 75.04 1050.98 77.12 1049.95 79.54L1046.84 78.4199C1048.75 73.7999 1053.2 72.0898 1057.52 72.0898C1061.84 72.0898 1067.54 73.97 1067.54 81.54V100.72H1064.27V96.25H1064.07C1062.89 98.75 1060.03 101.36 1055.32 101.36C1050.2 101.36 1046.04 98.2701 1046.04 92.8301ZM1064.28 89.8901V85.8101C1063.32 86.7501 1059.2 87.26 1056.89 87.54C1052.11 88.13 1049.31 89.56 1049.31 92.98C1049.31 96.4 1052.07 98.3701 1055.76 98.3701C1060.99 98.3601 1064.28 94.5201 1064.28 89.8901Z" fill="white"/>
<path d="M0.629883 6.56006H42.0098C65.8198 6.56006 79.6001 21.2601 79.6001 42.1001C79.6001 63.0501 65.5702 77.4399 41.4502 77.4399H22.8101V111.45H0.629883V6.56006ZM37.8599 59.6699C50.5599 59.6699 56.7598 52.5001 56.7598 42.1001C56.7598 31.6501 50.5598 24.6899 37.7598 24.6899H22.8101V59.6699H37.8599Z" fill="white"/>
<path d="M108.339 111.44H86.5195V6.56006H108.339V111.44Z" fill="white"/>
<path d="M114.84 89.4702C114.84 71.9102 128.82 66.68 144.39 65.25C158.06 63.92 163.44 63.2502 163.44 58.1802V57.8701C163.44 51.4201 159.19 47.6802 151.76 47.6802C143.92 47.6802 139.27 51.5202 137.78 56.7402L117.6 55.1001C120.62 40.7601 133.01 31.75 151.86 31.75C169.37 31.75 185.25 39.6399 185.25 58.3799V111.44H164.56V100.53H163.94C160.1 107.85 152.57 112.92 140.95 112.92C125.95 112.93 114.84 105.04 114.84 89.4702ZM163.59 83.3301V74.98C160.98 76.72 153.19 77.8498 148.43 78.5098C140.75 79.5898 135.68 82.61 135.68 88.75C135.68 94.74 140.49 97.8701 147.2 97.8701C156.78 97.8701 163.59 91.5701 163.59 83.3301Z" fill="white"/>
<path d="M236.799 49.1699H222V87.27C222 93.31 225.019 94.9502 229.379 94.9502C231.429 94.9502 233.73 94.4402 234.81 94.2402L238.24 110.47C236.04 111.19 232.04 112.31 226.41 112.52C210.59 113.19 200.089 105.56 200.189 90.1401V49.1699H189.43V32.7798H200.189V13.9302H222V32.7798H236.799V49.1699Z" fill="white"/>
<path d="M239.859 72.4199C239.859 48.0399 254.71 31.7598 278.58 31.7598C302.44 31.7598 317.299 48.0499 317.299 72.4199C317.299 96.6399 302.45 112.98 278.58 112.98C254.71 112.98 239.859 96.6399 239.859 72.4199ZM295.12 72.2598C295.12 58.5298 289.49 48.3901 278.68 48.3901C267.67 48.3901 262.029 58.5298 262.029 72.2598C262.029 85.9798 267.66 96.0698 278.68 96.0698C289.48 96.0798 295.12 85.9898 295.12 72.2598Z" fill="white"/>
<path d="M346.24 111.44H324.42V32.7798H345.21V46.6602H346.13C349.66 37.4902 358.11 31.7598 369.79 31.7598C386.18 31.7598 396.93 43.0299 396.93 61.3599V111.45H375.11V65.2598C375.16 55.6298 369.89 49.8999 361.13 49.8999C352.32 49.8999 346.28 55.84 346.23 65.98V111.44H346.24Z" fill="white"/>
<path d="M406.17 11.5801C406.17 5.54008 411.5 0.569824 417.95 0.569824C424.45 0.569824 429.78 5.54008 429.78 11.5801C429.78 17.6701 424.45 22.6401 417.95 22.6401C411.5 22.6401 406.17 17.6701 406.17 11.5801ZM406.99 32.7798H428.81V111.44H406.99V32.7798Z" fill="white"/>
<path d="M490.98 140.94V98.8398H490.32C487.3 105.4 480.69 112.72 467.99 112.72C450.07 112.72 436.09 98.53 436.09 72.21C436.09 45.17 450.69 31.75 467.94 31.75C481.1 31.75 487.4 39.5902 490.32 45.9902H491.29V32.7798H512.8V140.94H490.98ZM474.9 49.1201C464.09 49.1201 458.36 58.4899 458.36 72.1099C458.36 85.8299 464.2 95.3599 474.9 95.3599C485.4 95.3599 491.44 86.1399 491.44 72.1099C491.44 58.0799 485.5 49.1201 474.9 49.1201Z" fill="white"/>
</svg>
