<svg width="473" height="177" viewBox="0 0 473 177" fill="none" xmlns="http://www.w3.org/2000/svg">
<path d="M2.01953 120.92H33.9004V125.44H7.05957V146.18H31.4004V150.7H7.05957V176.01H2.01953V120.92Z" fill="#53284F"/>
<path d="M65.3398 134.69H70.1299V176.01H65.3398V169.15H64.96C63.02 173.4 58.7199 176.55 52.6699 176.55C44.7399 176.55 39.0898 171.25 39.0898 161.46V134.69H43.8799V161.16C43.8799 167.61 48.0698 171.89 54.0498 171.89C59.6498 171.89 65.3496 167.8 65.3496 160.22V134.69H65.3398Z" fill="#53284F"/>
<path d="M83.7803 176.01H78.9902V134.69H83.6504V141.17H84.0801C86.0201 136.95 90.1802 134.15 96.2402 134.15C104.58 134.15 110.26 139.45 110.26 149.24V176.01H105.47V149.54C105.47 142.79 101.38 138.54 95.0303 138.54C88.5203 138.54 83.79 142.98 83.79 150.19V176.01H83.7803Z" fill="#53284F"/>
<path d="M147.2 155.38C147.2 145.48 142.63 138.48 134.56 138.48C126.27 138.48 121.81 145.85 121.81 155.38C121.81 165.01 126.33 172.49 134.56 172.49C142.57 172.49 147.2 165.36 147.2 155.38ZM116.99 155.46C116.99 142.74 123.87 134.13 134.07 134.13C141.63 134.13 145.05 138.87 146.69 142.58H147.12V120.92H151.94V176.02H147.26V168.35H146.7C145 172.12 141.51 176.88 134 176.88C123.85 176.87 116.99 168.29 116.99 155.46Z" fill="#53284F"/>
<path d="M186.44 160.17V154.2C185.04 155.57 179.02 156.32 175.63 156.73C168.63 157.59 164.54 159.69 164.54 164.7C164.54 169.71 168.58 172.58 173.98 172.58C181.62 172.57 186.44 166.95 186.44 160.17ZM159.75 164.47C159.75 156.29 166.29 153.68 175.62 152.53C182.56 151.67 186.43 151.61 186.43 148.49V147.52C186.43 141.87 182.96 138.43 176.69 138.43C170.72 138.43 166.98 141.47 165.48 145.02L160.93 143.38C163.73 136.63 170.24 134.12 176.56 134.12C182.88 134.12 191.22 136.86 191.22 147.95V176.01H186.43V169.47H186.14C184.42 173.13 180.22 176.95 173.33 176.95C165.83 176.95 159.75 172.43 159.75 164.47Z" fill="#53284F"/>
<path d="M198.04 155.54C198.04 143.11 205.41 134.12 216.22 134.12C224.51 134.12 230.91 139.28 232.04 146.95H227.2C226.18 142.27 222.2 138.47 216.31 138.47C208.37 138.47 202.86 145.36 202.86 155.37C202.86 165.43 208.21 172.48 216.31 172.48C221.8 172.48 226.12 169.23 227.23 163.95H232.07C230.96 171.43 224.91 176.86 216.31 176.86C205.2 176.87 198.04 167.86 198.04 155.54Z" fill="#53284F"/>
<path d="M238.6 134.69H243.41V176.01H238.6V134.69ZM237.47 124.15C237.47 122.27 239.09 120.71 241.05 120.71C243.01 120.71 244.65 122.27 244.65 124.15C244.65 126.03 243.01 127.59 241.05 127.59C239.08 127.59 237.47 126.03 237.47 124.15Z" fill="#53284F"/>
<path d="M273.04 116.75H278.72L270.46 128.96H266.16L273.04 116.75ZM281.76 155.54C281.76 146.28 276.97 138.48 268.39 138.48C259.81 138.48 255.02 146.28 255.02 155.54C255.02 164.8 259.81 172.49 268.39 172.49C276.97 172.49 281.76 164.79 281.76 155.54ZM250.2 155.54C250.2 142.87 257.68 134.12 268.38 134.12C279.09 134.12 286.57 142.86 286.57 155.54C286.57 168.13 279.09 176.87 268.38 176.87C257.68 176.87 250.2 168.13 250.2 155.54Z" fill="#53284F"/>
<path d="M35.2197 55.3799C46.9297 55.3799 52.6396 48.7699 52.6396 39.1899C52.6396 29.5599 46.9299 23.1401 35.1299 23.1401H21.3496V55.3799H35.2197ZM0.910156 6.43018H39.0498C60.9998 6.43018 73.7002 19.9799 73.7002 39.1899C73.7002 58.4999 60.7603 71.7598 38.5303 71.7598H21.3496V103.1H0.910156V6.43018Z" fill="#53284F"/>
<path d="M100.1 6.43018H79.9902V103.1H100.1V6.43018Z" fill="#53284F"/>
<path d="M151.04 77.1802V69.4902C148.63 71.1002 141.45 72.14 137.07 72.75C129.99 73.74 125.32 76.5199 125.32 82.1899C125.32 87.7099 129.76 90.5898 135.94 90.5898C144.76 90.5898 151.04 84.7802 151.04 77.1802ZM106.11 82.8501C106.11 66.6601 119 61.85 133.35 60.52C145.95 59.29 150.91 58.6798 150.91 54.0098V53.73C150.91 47.78 146.99 44.3398 140.15 44.3398C132.93 44.3398 128.63 47.8799 127.27 52.6899L108.67 51.1802C111.46 37.9602 122.88 29.6499 140.25 29.6499C156.39 29.6499 171.03 36.9199 171.03 54.1899V103.09H151.96V93.04H151.39C147.85 99.79 140.91 104.46 130.2 104.46C116.35 104.47 106.11 97.2001 106.11 82.8501Z" fill="#53284F"/>
<path d="M218.56 45.7002H204.92V80.8198C204.92 86.3898 207.7 87.8999 211.71 87.8999C213.6 87.8999 215.73 87.4202 216.72 87.2402L219.88 102.2C217.85 102.86 214.17 103.9 208.98 104.09C194.4 104.7 184.72 97.67 184.81 83.46V45.7002H174.9V30.5898H184.81V13.2202H204.92V30.5898H218.56V45.7002Z" fill="#53284F"/>
<path d="M272.24 66.9902C272.24 54.3402 267.05 44.9902 257.09 44.9902C246.94 44.9902 241.75 54.3302 241.75 66.9902C241.75 79.6402 246.94 88.9302 257.09 88.9302C267.05 88.9402 272.24 79.6402 272.24 66.9902ZM221.31 67.1299C221.31 44.6599 235 29.6499 256.99 29.6499C278.99 29.6499 292.68 44.6599 292.68 67.1299C292.68 89.4599 278.99 104.51 256.99 104.51C235 104.51 221.31 89.4599 221.31 67.1299Z" fill="#53284F"/>
<path d="M319.28 103.1H299.17V30.6001H318.33V43.3901H319.18C322.44 34.9401 330.23 29.6499 340.99 29.6499C356.09 29.6499 366 40.0402 366 56.9302V103.09H345.89V60.5098C345.94 51.6398 341.07 46.3501 333 46.3501C324.88 46.3501 319.31 51.8299 319.27 61.1699V103.1H319.28Z" fill="#53284F"/>
<path d="M375.18 30.6001H395.29V103.1H375.18V30.6001ZM374.43 11.0601C374.43 5.49006 379.34 0.910156 385.29 0.910156C391.28 0.910156 396.19 5.49006 396.19 11.0601C396.19 16.6801 391.28 21.2598 385.29 21.2598C379.34 21.2498 374.43 16.6701 374.43 11.0601Z" fill="#53284F"/>
<path d="M437.78 45.6499C427.82 45.6499 422.53 54.2898 422.53 66.8398C422.53 79.4898 427.91 88.27 437.78 88.27C447.46 88.27 453.03 79.7698 453.03 66.8398C453.03 53.9098 447.56 45.6499 437.78 45.6499ZM452.61 130.28V91.48H452C449.21 97.52 443.13 104.27 431.42 104.27C414.9 104.27 402.02 91.1899 402.02 66.9399C402.02 42.0199 415.47 29.6499 431.38 29.6499C443.51 29.6499 449.32 36.87 452.01 42.77H452.91V30.5898H472.73V130.28H452.61Z" fill="#53284F"/>
</svg>
