<svg width="473" height="177" viewBox="0 0 473 177" fill="none" xmlns="http://www.w3.org/2000/svg">
<path d="M2.03027 120.02H33.9004V124.54H7.05957V145.28H31.4004V149.8H7.05957V175.12H2.03027V120.02Z" fill="white"/>
<path d="M65.3398 133.79H70.1299V175.11H65.3398V168.25H64.96C63.02 172.5 58.7199 175.65 52.6699 175.65C44.7399 175.65 39.0898 170.35 39.0898 160.56V133.79H43.8799V160.26C43.8799 166.71 48.0698 170.99 54.0498 170.99C59.6498 170.99 65.3496 166.9 65.3496 159.32V133.79H65.3398Z" fill="white"/>
<path d="M83.7803 175.11H78.9902V133.79H83.6504V140.27H84.0801C86.0201 136.05 90.1902 133.25 96.2402 133.25C104.58 133.25 110.26 138.55 110.26 148.34V175.11H105.47V148.64C105.47 141.89 101.38 137.64 95.0303 137.64C88.5203 137.64 83.79 142.08 83.79 149.29V175.11H83.7803Z" fill="white"/>
<path d="M147.2 154.48C147.2 144.58 142.63 137.58 134.56 137.58C126.28 137.58 121.81 144.95 121.81 154.48C121.81 164.11 126.32 171.59 134.56 171.59C142.57 171.59 147.2 164.46 147.2 154.48ZM116.99 154.56C116.99 141.84 123.87 133.23 134.07 133.23C141.63 133.23 145.05 137.97 146.69 141.68H147.12V120.02H151.94V175.12H147.26V167.45H146.7C145 171.22 141.51 175.98 134 175.98C123.85 175.98 116.99 167.4 116.99 154.56Z" fill="white"/>
<path d="M186.44 159.27V153.3C185.04 154.67 179.02 155.42 175.63 155.83C168.63 156.69 164.54 158.79 164.54 163.8C164.54 168.81 168.58 171.68 173.98 171.68C181.62 171.67 186.44 166.05 186.44 159.27ZM159.75 163.57C159.75 155.39 166.29 152.78 175.62 151.63C182.56 150.77 186.43 150.71 186.43 147.59V146.62C186.43 140.97 182.96 137.53 176.69 137.53C170.72 137.53 166.98 140.57 165.48 144.12L160.93 142.48C163.73 135.73 170.24 133.22 176.56 133.22C182.88 133.22 191.22 135.96 191.22 147.05V175.11H186.43V168.57H186.14C184.42 172.23 180.22 176.05 173.33 176.05C165.83 176.06 159.75 171.54 159.75 163.57Z" fill="white"/>
<path d="M198.04 154.64C198.04 142.21 205.41 133.22 216.22 133.22C224.51 133.22 230.91 138.38 232.04 146.05H227.2C226.18 141.37 222.2 137.57 216.31 137.57C208.37 137.57 202.86 144.46 202.86 154.47C202.86 164.53 208.22 171.58 216.31 171.58C221.8 171.58 226.12 168.33 227.23 163.05H232.07C230.96 170.53 224.91 175.96 216.31 175.96C205.2 175.98 198.04 166.96 198.04 154.64Z" fill="white"/>
<path d="M238.6 133.79H243.41V175.11H238.6V133.79ZM237.47 123.25C237.47 121.37 239.09 119.81 241.05 119.81C243.01 119.81 244.65 121.37 244.65 123.25C244.65 125.13 243.01 126.69 241.05 126.69C239.09 126.69 237.47 125.13 237.47 123.25Z" fill="white"/>
<path d="M273.04 115.85H278.72L270.46 128.06H266.16L273.04 115.85ZM281.76 154.64C281.76 145.38 276.97 137.58 268.39 137.58C259.81 137.58 255.02 145.38 255.02 154.64C255.02 163.9 259.81 171.59 268.39 171.59C276.97 171.59 281.76 163.9 281.76 154.64ZM250.2 154.64C250.2 141.97 257.68 133.22 268.38 133.22C279.09 133.22 286.57 141.96 286.57 154.64C286.57 167.23 279.09 175.97 268.38 175.97C257.68 175.98 250.2 167.23 250.2 154.64Z" fill="white"/>
<path d="M35.2197 54.48C46.9297 54.48 52.6396 47.87 52.6396 38.29C52.6396 28.66 46.9299 22.2402 35.1299 22.2402H21.3496V54.48H35.2197ZM0.910156 5.54004H39.0498C60.9998 5.54004 73.7002 19.0898 73.7002 38.2998C73.7002 57.6098 60.7603 70.8701 38.5303 70.8701H21.3496V102.21H0.910156V5.54004Z" fill="white"/>
<path d="M100.1 5.54004H79.9902V102.21H100.1V5.54004Z" fill="white"/>
<path d="M151.04 76.29V68.6001C148.63 70.2101 141.45 71.2499 137.07 71.8599C129.99 72.8499 125.32 75.6298 125.32 81.2998C125.32 86.8198 129.76 89.7002 135.94 89.7002C144.76 89.6902 151.04 83.89 151.04 76.29ZM106.11 81.9502C106.11 65.7602 119 60.9501 133.35 59.6201C145.95 58.3901 150.91 57.7799 150.91 53.1099V52.8301C150.91 46.8801 146.99 43.4399 140.15 43.4399C132.93 43.4399 128.63 46.98 127.27 51.79L108.67 50.2798C111.46 37.0598 122.88 28.7598 140.25 28.7598C156.39 28.7598 171.03 36.0298 171.03 53.2998V102.2H151.96V92.1499H151.39C147.85 98.8999 140.91 103.57 130.2 103.57C116.35 103.57 106.11 96.3002 106.11 81.9502Z" fill="white"/>
<path d="M218.56 44.8101H204.92V79.9302C204.92 85.5002 207.7 87.0098 211.71 87.0098C213.6 87.0098 215.72 86.5301 216.72 86.3501L219.88 101.31C217.85 101.97 214.16 103.01 208.97 103.2C194.39 103.81 184.71 96.7798 184.8 82.5698V44.8101H174.89V29.7002H184.8V12.3301H204.91V29.7002H218.55V44.8101H218.56Z" fill="white"/>
<path d="M272.24 66.0898C272.24 53.4398 267.05 44.0898 257.09 44.0898C246.94 44.0898 241.75 53.4298 241.75 66.0898C241.75 78.7398 246.94 88.0298 257.09 88.0298C267.05 88.0398 272.24 78.7398 272.24 66.0898ZM221.31 66.23C221.31 43.76 235 28.7598 256.99 28.7598C278.99 28.7598 292.68 43.77 292.68 66.23C292.68 88.56 278.99 103.61 256.99 103.61C235 103.62 221.31 88.56 221.31 66.23Z" fill="white"/>
<path d="M319.28 102.2H299.17V29.7002H318.33V42.4902H319.18C322.44 34.0402 330.23 28.75 340.99 28.75C356.09 28.75 366 39.1398 366 56.0298V102.19H345.9V59.6099C345.95 50.7399 341.08 45.4502 333.01 45.4502C324.89 45.4502 319.32 50.93 319.28 60.27V102.2Z" fill="white"/>
<path d="M375.18 29.7002H395.28V102.2H375.18V29.7002ZM374.43 10.1602C374.43 4.59016 379.34 0.00976562 385.29 0.00976562C391.28 0.00976562 396.19 4.59016 396.19 10.1602C396.19 15.7802 391.28 20.3599 385.29 20.3599C379.34 20.3599 374.43 15.7802 374.43 10.1602Z" fill="white"/>
<path d="M437.78 44.7598C427.82 44.7598 422.53 53.4002 422.53 65.9502C422.53 78.6002 427.91 87.3799 437.78 87.3799C447.46 87.3799 453.03 78.8802 453.03 65.9502C453.03 53.0202 447.56 44.7598 437.78 44.7598ZM452.61 129.39V90.5898H452C449.21 96.6298 443.13 103.38 431.42 103.38C414.9 103.38 402.02 90.2998 402.02 66.0498C402.02 41.1298 415.47 28.7598 431.38 28.7598C443.51 28.7598 449.32 35.9799 452.01 41.8799H452.91V29.7002H472.73V129.38H452.61V129.39Z" fill="white"/>
</svg>
