<svg width="474" height="177" viewBox="0 0 474 177" fill="none" xmlns="http://www.w3.org/2000/svg">
<path d="M1.55957 119.94H33.4902V124.46H6.59961V145.24H30.9805V149.76H6.59961V175.11H1.55957V119.94Z" fill="white"/>
<path d="M67.7197 154.61C67.7197 145.34 62.9201 137.53 54.3301 137.53C45.7401 137.53 40.9404 145.34 40.9404 154.61C40.9404 163.88 45.7301 171.58 54.3301 171.58C62.9201 171.58 67.7197 163.88 67.7197 154.61ZM36.1201 154.61C36.1201 141.92 43.6101 133.16 54.3301 133.16C65.0501 133.16 72.54 141.91 72.54 154.61C72.54 167.22 65.0501 175.98 54.3301 175.98C43.6101 175.98 36.1201 167.22 36.1201 154.61Z" fill="white"/>
<path d="M105.59 133.73H110.38V175.11H105.59V168.24H105.21C103.27 172.49 98.9604 175.65 92.9004 175.65C84.9504 175.65 79.2998 170.34 79.2998 160.53V133.73H84.0996V160.24C84.0996 166.7 88.3003 170.99 94.2803 170.99C99.8803 170.99 105.6 166.89 105.6 159.3V133.73H105.59Z" fill="white"/>
<path d="M124.05 175.11H119.26V133.73H123.92V140.22H124.35C126.29 135.99 130.46 133.19 136.53 133.19C144.88 133.19 150.57 138.5 150.57 148.3V175.11H145.77V148.6C145.77 141.84 141.68 137.58 135.32 137.58C128.8 137.58 124.06 142.03 124.06 149.25V175.11H124.05Z" fill="white"/>
<path d="M187.57 154.45C187.57 144.54 182.99 137.53 174.91 137.53C166.61 137.53 162.14 144.91 162.14 154.45C162.14 164.1 166.67 171.58 174.91 171.58C182.93 171.58 187.57 164.44 187.57 154.45ZM157.31 154.53C157.31 141.79 164.2 133.16 174.42 133.16C181.99 133.16 185.41 137.9 187.06 141.62H187.49V119.93H192.31V175.11H187.62V167.43H187.05C185.35 171.2 181.85 175.97 174.33 175.97C164.18 175.98 157.31 167.38 157.31 154.53Z" fill="white"/>
<path d="M226.86 159.25V153.27C225.46 154.65 219.42 155.4 216.03 155.8C209.03 156.66 204.93 158.76 204.93 163.77C204.93 168.78 208.97 171.66 214.39 171.66C222.04 171.67 226.86 166.04 226.86 159.25ZM200.14 163.56C200.14 155.37 206.69 152.76 216.04 151.6C222.99 150.74 226.87 150.68 226.87 147.56V146.59C226.87 140.93 223.4 137.49 217.12 137.49C211.14 137.49 207.39 140.53 205.88 144.09L201.32 142.45C204.12 135.69 210.64 133.18 216.98 133.18C223.31 133.18 231.66 135.93 231.66 147.03V175.13H226.86V168.58H226.57C224.84 172.24 220.64 176.07 213.74 176.07C206.23 176.06 200.14 171.53 200.14 163.56Z" fill="white"/>
<path d="M256.92 137.91H248.17V164.31C248.17 169.51 251.16 171.05 254.42 171.05C255.68 171.05 256.55 170.86 257.22 170.67L258.24 175.01C257.32 175.36 255.98 175.74 253.99 175.74C248.68 175.74 243.34 172.21 243.34 165.45V137.91H237.17V133.73H243.34V123.82H248.16V133.73H256.91V137.91H256.92Z" fill="white"/>
<path d="M264.06 133.73H268.88V175.11H264.06V133.73ZM262.94 123.17C262.94 121.28 264.56 119.72 266.52 119.72C268.48 119.72 270.13 121.28 270.13 123.17C270.13 125.06 268.49 126.62 266.52 126.62C264.55 126.62 262.94 125.06 262.94 123.17Z" fill="white"/>
<path d="M307.29 154.61C307.29 145.34 302.49 137.53 293.9 137.53C285.31 137.53 280.51 145.34 280.51 154.61C280.51 163.88 285.3 171.58 293.9 171.58C302.49 171.58 307.29 163.88 307.29 154.61ZM275.69 154.61C275.69 141.92 283.18 133.16 293.9 133.16C304.63 133.16 312.11 141.91 312.11 154.61C312.11 167.22 304.62 175.98 293.9 175.98C283.18 175.98 275.69 167.22 275.69 154.61Z" fill="white"/>
<path d="M323.66 175.11H318.87V133.73H323.53V140.22H323.96C325.9 135.99 330.07 133.19 336.14 133.19C344.49 133.19 350.18 138.5 350.18 148.3V175.11H345.39V148.6C345.39 141.84 341.29 137.58 334.94 137.58C328.42 137.58 323.68 142.03 323.68 149.25V175.11H323.66Z" fill="white"/>
<path d="M34.8799 54.5601C46.5999 54.5601 52.3203 47.9398 52.3203 38.3398C52.3203 28.6998 46.6003 22.27 34.7803 22.27H20.9805V54.5601H34.8799ZM0.519531 5.54004H38.71C60.69 5.54004 73.4102 19.1098 73.4102 38.3398C73.4102 57.6798 60.4504 70.96 38.1904 70.96H20.9902V102.35H0.519531V5.54004Z" fill="white"/>
<path d="M99.8496 5.54004H79.71V102.35H99.8496V5.54004Z" fill="white"/>
<path d="M150.87 76.3999V68.6899C148.45 70.2999 141.27 71.34 136.87 71.96C129.78 72.95 125.1 75.7402 125.1 81.4102C125.1 86.9402 129.55 89.8301 135.74 89.8301C144.58 89.8301 150.87 84.0099 150.87 76.3999ZM105.87 82.0698C105.87 65.8598 118.78 61.04 133.15 59.71C145.77 58.48 150.73 57.8699 150.73 53.1899V52.9102C150.73 46.9502 146.81 43.5098 139.95 43.5098C132.71 43.5098 128.42 47.0601 127.05 51.8701L108.42 50.3599C111.21 37.1299 122.65 28.7998 140.04 28.7998C156.2 28.7998 170.86 36.0799 170.86 53.3799V102.35H151.76V92.2798H151.19C147.65 99.0398 140.7 103.72 129.97 103.72C116.13 103.72 105.87 96.4398 105.87 82.0698Z" fill="white"/>
<path d="M218.49 44.8701H204.83V80.04C204.83 85.61 207.62 87.1299 211.63 87.1299C213.52 87.1299 215.65 86.6502 216.64 86.4702L219.81 101.45C217.78 102.11 214.09 103.15 208.89 103.34C194.28 103.96 184.6 96.9102 184.69 82.6802V44.8701H174.76V29.7402H184.69V12.3501H204.83V29.7402H218.49V44.8701Z" fill="white"/>
<path d="M272.25 66.1899C272.25 53.5199 267.05 44.1602 257.08 44.1602C246.91 44.1602 241.72 53.5199 241.72 66.1899C241.72 78.8599 246.92 88.1699 257.08 88.1699C267.05 88.1699 272.25 78.8599 272.25 66.1899ZM221.24 66.3301C221.24 43.8301 234.95 28.7998 256.97 28.7998C279 28.7998 292.71 43.8301 292.71 66.3301C292.71 88.6901 279 103.77 256.97 103.77C234.95 103.77 221.24 88.6901 221.24 66.3301Z" fill="white"/>
<path d="M319.35 102.35H299.21V29.7402H318.4V42.5498H319.25C322.52 34.0898 330.31 28.79 341.09 28.79C356.21 28.79 366.14 39.1899 366.14 56.1099V102.34H346.01V59.7002C346.06 50.8102 341.19 45.52 333.1 45.52C324.97 45.52 319.39 51.0099 319.35 60.3599V102.35Z" fill="white"/>
<path d="M375.34 29.75H395.47V102.36H375.34V29.75ZM374.58 10.1802C374.58 4.60018 379.5 0.00976562 385.45 0.00976562C391.45 0.00976562 396.37 4.60018 396.37 10.1802C396.37 15.8102 391.45 20.3901 385.45 20.3901C379.5 20.3901 374.58 15.8002 374.58 10.1802Z" fill="white"/>
<path d="M438.03 44.8198C428.06 44.8198 422.76 53.4698 422.76 66.0498C422.76 78.7198 428.15 87.5098 438.03 87.5098C447.72 87.5098 453.3 78.9998 453.3 66.0498C453.3 53.0998 447.82 44.8198 438.03 44.8198ZM452.88 129.58V90.73H452.26C449.47 96.78 443.37 103.54 431.65 103.54C415.11 103.54 402.2 90.4499 402.2 66.1499C402.2 41.1899 415.67 28.8101 431.6 28.8101C443.75 28.8101 449.56 36.0402 452.26 41.9502H453.16V29.7598H473.01V129.59H452.88V129.58Z" fill="white"/>
</svg>
