<svg width="474" height="177" viewBox="0 0 474 177" fill="none" xmlns="http://www.w3.org/2000/svg">
<path d="M1.55957 120.83H33.4902V125.36H6.59961V146.13H30.9805V150.66H6.59961V176.01H1.55957V120.83Z" fill="#53284F"/>
<path d="M67.7197 155.51C67.7197 146.24 62.9201 138.43 54.3301 138.43C45.7401 138.43 40.9404 146.24 40.9404 155.51C40.9404 164.78 45.7301 172.48 54.3301 172.48C62.9201 172.48 67.7197 164.78 67.7197 155.51ZM36.1201 155.51C36.1201 142.82 43.6101 134.06 54.3301 134.06C65.0501 134.06 72.54 142.82 72.54 155.51C72.54 168.12 65.0501 176.88 54.3301 176.88C43.6101 176.87 36.1201 168.12 36.1201 155.51Z" fill="#53284F"/>
<path d="M105.59 134.63H110.38V176.01H105.59V169.14H105.21C103.27 173.39 98.9604 176.55 92.9004 176.55C84.9504 176.55 79.2998 171.24 79.2998 161.43V134.63H84.0996V161.14C84.0996 167.6 88.3003 171.89 94.2803 171.89C99.8803 171.89 105.6 167.79 105.6 160.2V134.63H105.59Z" fill="#53284F"/>
<path d="M124.05 176.01H119.26V134.63H123.92V141.12H124.35C126.29 136.89 130.46 134.09 136.53 134.09C144.88 134.09 150.57 139.4 150.57 149.2V176.01H145.77V149.5C145.77 142.74 141.68 138.48 135.32 138.48C128.8 138.48 124.06 142.93 124.06 150.15V176.01H124.05Z" fill="#53284F"/>
<path d="M187.57 155.35C187.57 145.44 182.99 138.43 174.91 138.43C166.61 138.43 162.14 145.81 162.14 155.35C162.14 165 166.67 172.48 174.91 172.48C182.93 172.48 187.57 165.34 187.57 155.35ZM157.31 155.43C157.31 142.69 164.2 134.06 174.42 134.06C181.99 134.06 185.41 138.8 187.06 142.52H187.49V120.83H192.31V176.01H187.62V168.33H187.05C185.35 172.1 181.85 176.87 174.33 176.87C164.18 176.87 157.31 168.28 157.31 155.43Z" fill="#53284F"/>
<path d="M226.86 160.14V154.16C225.46 155.54 219.42 156.29 216.03 156.69C209.03 157.55 204.93 159.65 204.93 164.66C204.93 169.67 208.97 172.55 214.39 172.55C222.04 172.56 226.86 166.93 226.86 160.14ZM200.14 164.45C200.14 156.26 206.69 153.65 216.04 152.49C222.99 151.63 226.87 151.57 226.87 148.45V147.48C226.87 141.82 223.4 138.38 217.12 138.38C211.14 138.38 207.39 141.42 205.88 144.98L201.32 143.34C204.12 136.58 210.64 134.07 216.98 134.07C223.31 134.07 231.66 136.82 231.66 147.92V176.02H226.86V169.47H226.57C224.84 173.13 220.64 176.96 213.74 176.96C206.23 176.95 200.14 172.43 200.14 164.45Z" fill="#53284F"/>
<path d="M256.92 138.8H248.17V165.2C248.17 170.4 251.16 171.94 254.42 171.94C255.68 171.94 256.55 171.75 257.22 171.56L258.24 175.9C257.32 176.25 255.98 176.63 253.99 176.63C248.68 176.63 243.34 173.1 243.34 166.34V138.8H237.17V134.62H243.34V124.71H248.16V134.62H256.91V138.8H256.92Z" fill="#53284F"/>
<path d="M264.06 134.63H268.88V176.01H264.06V134.63ZM262.94 124.07C262.94 122.18 264.56 120.62 266.52 120.62C268.48 120.62 270.13 122.18 270.13 124.07C270.13 125.96 268.49 127.52 266.52 127.52C264.55 127.52 262.94 125.95 262.94 124.07Z" fill="#53284F"/>
<path d="M307.29 155.51C307.29 146.24 302.49 138.43 293.9 138.43C285.31 138.43 280.51 146.24 280.51 155.51C280.51 164.78 285.3 172.48 293.9 172.48C302.49 172.48 307.29 164.78 307.29 155.51ZM275.69 155.51C275.69 142.82 283.18 134.06 293.9 134.06C304.63 134.06 312.11 142.82 312.11 155.51C312.11 168.12 304.62 176.88 293.9 176.88C283.18 176.87 275.69 168.12 275.69 155.51Z" fill="#53284F"/>
<path d="M323.66 176.01H318.87V134.63H323.53V141.12H323.96C325.9 136.89 330.07 134.09 336.14 134.09C344.49 134.09 350.18 139.4 350.18 149.2V176.01H345.39V149.5C345.39 142.74 341.29 138.48 334.94 138.48C328.42 138.48 323.68 142.93 323.68 150.15V176.01H323.66Z" fill="#53284F"/>
<path d="M34.8799 55.46C46.5999 55.46 52.3203 48.8402 52.3203 39.2402C52.3203 29.6002 46.6003 23.1699 34.7803 23.1699H20.9805V55.46H34.8799ZM0.519531 6.43994H38.71C60.69 6.43994 73.4102 20.0102 73.4102 39.2402C73.4102 58.5802 60.4504 71.8599 38.1904 71.8599H20.9902V103.25H0.519531V6.43994Z" fill="#53284F"/>
<path d="M99.8496 6.43994H79.71V103.25H99.8496V6.43994Z" fill="#53284F"/>
<path d="M150.87 77.2998V69.5898C148.45 71.1998 141.27 72.2399 136.87 72.8599C129.78 73.8499 125.1 76.6401 125.1 82.3101C125.1 87.8401 129.55 90.73 135.74 90.73C144.58 90.72 150.87 84.9098 150.87 77.2998ZM105.87 82.9702C105.87 66.7602 118.78 61.9399 133.15 60.6099C145.77 59.3799 150.73 58.7698 150.73 54.0898V53.8101C150.73 47.8501 146.81 44.4102 139.95 44.4102C132.71 44.4102 128.42 47.96 127.05 52.77L108.42 51.2598C111.21 38.0298 122.65 29.7002 140.04 29.7002C156.2 29.7002 170.86 36.9798 170.86 54.2798V103.25H151.76V93.1802H151.19C147.65 99.9402 140.7 104.62 129.97 104.62C116.13 104.62 105.87 97.3402 105.87 82.9702Z" fill="#53284F"/>
<path d="M218.49 45.77H204.83V80.9399C204.83 86.5099 207.62 88.0298 211.63 88.0298C213.52 88.0298 215.65 87.5501 216.64 87.3701L219.81 102.35C217.78 103.01 214.09 104.05 208.89 104.24C194.28 104.86 184.6 97.8101 184.69 83.5801V45.77H174.76V30.6401H184.69V13.25H204.83V30.6401H218.49V45.77Z" fill="#53284F"/>
<path d="M272.25 67.0898C272.25 54.4198 267.05 45.0601 257.08 45.0601C246.91 45.0601 241.72 54.4198 241.72 67.0898C241.72 79.7598 246.92 89.0698 257.08 89.0698C267.05 89.0598 272.25 79.7498 272.25 67.0898ZM221.24 67.23C221.24 44.73 234.95 29.7002 256.97 29.7002C279 29.7002 292.71 44.73 292.71 67.23C292.71 89.59 279 104.67 256.97 104.67C234.95 104.66 221.24 89.59 221.24 67.23Z" fill="#53284F"/>
<path d="M319.35 103.25H299.21V30.6401H318.4V43.4502H319.25C322.52 34.9902 330.31 29.6899 341.09 29.6899C356.21 29.6899 366.14 40.0898 366.14 57.0098V103.24H346.01V60.6001C346.06 51.7101 341.19 46.4199 333.1 46.4199C324.97 46.4199 319.39 51.9098 319.35 61.2598V103.25Z" fill="#53284F"/>
<path d="M375.34 30.6401H395.47V103.25H375.34V30.6401ZM374.58 11.0698C374.58 5.48982 379.5 0.899902 385.45 0.899902C391.45 0.899902 396.37 5.48982 396.37 11.0698C396.37 16.6998 391.45 21.2798 385.45 21.2798C379.5 21.2798 374.58 16.6998 374.58 11.0698Z" fill="#53284F"/>
<path d="M438.03 45.7202C428.06 45.7202 422.76 54.3702 422.76 66.9502C422.76 79.6202 428.15 88.4102 438.03 88.4102C447.72 88.4102 453.3 79.9002 453.3 66.9502C453.3 53.9902 447.82 45.7202 438.03 45.7202ZM452.88 130.47V91.6201H452.26C449.47 97.6701 443.37 104.43 431.65 104.43C415.11 104.43 402.2 91.34 402.2 67.04C402.2 42.08 415.67 29.7002 431.6 29.7002C443.75 29.7002 449.56 36.9298 452.26 42.8398H453.16V30.6499H473.01V130.48H452.88V130.47Z" fill="#53284F"/>
</svg>
