<svg width="574" height="158" viewBox="0 0 574 158" fill="none" xmlns="http://www.w3.org/2000/svg">
<path d="M0.280273 6.97998H46.5596C73.1996 6.97998 88.5996 23.42 88.5996 46.73C88.5996 70.15 72.9097 86.25 45.9297 86.25H25.0801V124.28H0.280273V6.97998ZM41.9199 66.3799C56.1299 66.3799 63.0596 58.3602 63.0596 46.7402C63.0596 35.0502 56.1296 27.27 41.8096 27.27H25.0801V66.3901H41.9199V66.3799Z" fill="#53284F"/>
<path d="M120.78 124.28H96.3799V6.97998H120.78V124.28Z" fill="#53284F"/>
<path d="M128.06 99.71C128.06 80.07 143.7 74.2201 161.11 72.6201C176.4 71.1301 182.42 70.38 182.42 64.71V64.3701C182.42 57.1501 177.67 52.9702 169.36 52.9702C160.6 52.9702 155.38 57.2699 153.72 63.1099L131.16 61.2798C134.54 45.2398 148.4 35.1602 169.48 35.1602C189.07 35.1602 206.82 43.9799 206.82 64.9399V124.28H183.68V112.08H182.99C178.7 120.27 170.27 125.94 157.27 125.94C140.49 125.94 128.06 117.12 128.06 99.71ZM182.59 92.8398V83.5C179.67 85.44 170.96 86.7102 165.64 87.4502C157.05 88.6502 151.38 92.0302 151.38 98.9102C151.38 105.61 156.76 109.1 164.27 109.1C174.97 109.1 182.59 102.06 182.59 92.8398Z" fill="#53284F"/>
<path d="M264.5 54.6299H247.95V97.2402C247.95 104 251.33 105.83 256.2 105.83C258.49 105.83 261.07 105.26 262.27 105.03L266.1 123.19C263.64 123.99 259.17 125.25 252.87 125.48C235.17 126.23 223.43 117.69 223.54 100.45V54.6299H211.51V36.2998H223.54V15.2202H247.94V36.2998H264.49V54.6299H264.5Z" fill="#53284F"/>
<path d="M267.94 80.6401C267.94 53.3801 284.55 35.1602 311.24 35.1602C337.93 35.1602 354.54 53.3701 354.54 80.6401C354.54 107.73 337.93 126 311.24 126C284.55 126 267.94 107.73 267.94 80.6401ZM329.74 80.4702C329.74 65.1202 323.44 53.7798 311.35 53.7798C299.04 53.7798 292.74 65.1202 292.74 80.4702C292.74 95.8202 299.04 107.1 311.35 107.1C323.44 107.1 329.74 95.8102 329.74 80.4702Z" fill="#53284F"/>
<path d="M386.95 124.28H362.55V36.2998H385.8V51.8198H386.83C390.78 41.5698 400.23 35.1499 413.29 35.1499C431.62 35.1499 443.65 47.7498 443.65 68.2598V124.28H419.25V72.6201C419.3 61.8501 413.41 55.4399 403.61 55.4399C393.76 55.4399 387 62.0799 386.94 73.4199V124.28H386.95Z" fill="#53284F"/>
<path d="M454.01 12.5898C454.01 5.82984 459.97 0.27002 467.18 0.27002C474.45 0.27002 480.41 5.82984 480.41 12.5898C480.41 19.4098 474.45 24.96 467.18 24.96C459.97 24.97 454.01 19.4098 454.01 12.5898ZM454.93 36.3101H479.33V124.29H454.93V36.3101Z" fill="#53284F"/>
<path d="M548.87 157.27V110.19H548.13C544.75 117.52 537.36 125.71 523.16 125.71C503.11 125.71 487.48 109.84 487.48 80.3999C487.48 50.1599 503.8 35.1499 523.1 35.1499C537.82 35.1499 544.87 43.9098 548.13 51.0698H549.22V36.29H573.27V157.26H548.87V157.27ZM530.88 54.5698C518.79 54.5698 512.38 65.05 512.38 80.29C512.38 95.64 518.91 106.29 530.88 106.29C542.62 106.29 549.38 95.98 549.38 80.29C549.38 64.6 542.74 54.5698 530.88 54.5698Z" fill="#53284F"/>
</svg>
