<svg width="823" height="144" viewBox="0 0 823 144" fill="none" xmlns="http://www.w3.org/2000/svg">
<path d="M593.5 55.8999C592.52 51.0999 588.33 47.4702 582.83 47.4702C576.19 47.4702 570.77 52.7602 570.77 62.4702C570.77 72.2102 576.18 77.4702 582.83 77.4702C588.33 77.4702 592.52 73.85 593.5 69.04H596.72C595.57 75.48 590.3 80.48 582.83 80.48C573.98 80.48 567.67 73.4402 567.67 62.4702C567.67 51.5002 573.97 44.46 582.83 44.46C590.3 44.46 595.57 49.4399 596.72 55.8999H593.5Z" fill="#53284F"/>
<path d="M601.29 53.71H604.25V57.75H604.47C605.53 55.09 608.36 53.3101 611.66 53.3101C612.16 53.3101 612.86 53.3399 613.27 53.3599V56.46C613 56.42 612.24 56.29 611.44 56.29C607.33 56.29 604.33 59.11 604.33 63.02V80.0098H601.28V53.71H601.29Z" fill="#53284F"/>
<path d="M613.91 67.02C613.91 59.06 618.62 53.3501 625.43 53.3501C631.13 53.3501 636.56 57.4798 636.56 66.2598V67.77H616.97C617.11 73.85 620.51 77.77 625.89 77.77C629.62 77.77 632 75.82 633.01 73.46L635.9 74.3999C634.7 77.6999 631.16 80.5601 625.88 80.5601C618.54 80.5601 613.91 75 613.91 67.02ZM633.45 65.0801C633.45 60.0101 630.15 56.1201 625.44 56.1201C620.63 56.1201 617.32 60.1801 617 65.0801H633.45Z" fill="#53284F"/>
<path d="M639.63 72.6602C639.63 67.4602 643.79 65.7901 649.73 65.0601C654.15 64.5101 656.62 64.4802 656.62 62.4902V61.8701C656.62 58.2701 654.41 56.0801 650.42 56.0801C646.62 56.0801 644.24 58.0098 643.28 60.2798L640.39 59.2402C642.17 54.9402 646.32 53.3501 650.34 53.3501C654.36 53.3501 659.67 55.1002 659.67 62.1602V80.02H656.62V75.8599H656.43C655.33 78.1899 652.66 80.6201 648.28 80.6201C643.5 80.6101 639.63 77.7402 639.63 72.6602ZM656.62 69.9199V66.1201C655.73 66.9901 651.89 67.47 649.73 67.73C645.28 68.28 642.67 69.6198 642.67 72.7998C642.67 75.9798 645.24 77.8198 648.68 77.8198C653.55 77.8198 656.62 74.2399 656.62 69.9199Z" fill="#53284F"/>
<path d="M675.74 56.3599H670.18V73.1401C670.18 76.4501 672.08 77.4199 674.15 77.4199C674.96 77.4199 675.5 77.3002 675.93 77.1802L676.58 79.9302C676 80.1502 675.14 80.3901 673.87 80.3901C670.5 80.3901 667.11 78.1501 667.11 73.8501V56.3501H663.19V53.6899H667.11V47.3901H670.18V53.6899H675.74V56.3599Z" fill="#53284F"/>
<path d="M679.58 47C679.58 45.8 680.61 44.8101 681.86 44.8101C683.11 44.8101 684.15 45.8 684.15 47C684.15 48.2 683.11 49.1899 681.86 49.1899C680.61 49.1899 679.58 48.2 679.58 47ZM680.3 53.71H683.37V80.02H680.3V53.71Z" fill="#53284F"/>
<path d="M699.85 80.0098H696.59L686.98 53.7002H690.28L698.09 75.98H698.33L706.14 53.7002H709.44L699.85 80.0098Z" fill="#53284F"/>
<path d="M712.33 47C712.33 45.8 713.36 44.8101 714.61 44.8101C715.86 44.8101 716.9 45.8 716.9 47C716.9 48.2 715.86 49.1899 714.61 49.1899C713.35 49.1899 712.33 48.2 712.33 47ZM713.04 53.71H716.11V80.02H713.04V53.71Z" fill="#53284F"/>
<path d="M732.2 56.3599H726.64V73.1401C726.64 76.4501 728.54 77.4199 730.61 77.4199C731.42 77.4199 731.96 77.3002 732.39 77.1802L733.04 79.9302C732.46 80.1502 731.6 80.3901 730.33 80.3901C726.96 80.3901 723.57 78.1501 723.57 73.8501V56.3501H719.65V53.6899H723.57V47.3901H726.64V53.6899H732.2V56.3599Z" fill="#53284F"/>
<path d="M735.42 72.6602C735.42 67.4602 739.58 65.7901 745.52 65.0601C749.94 64.5101 752.41 64.4802 752.41 62.4902V61.8701C752.41 58.2701 750.2 56.0801 746.21 56.0801C742.41 56.0801 740.03 58.0098 739.07 60.2798L736.18 59.2402C737.96 54.9402 742.11 53.3501 746.13 53.3501C750.15 53.3501 755.46 55.1002 755.46 62.1602V80.02H752.41V75.8599H752.22C751.12 78.1899 748.45 80.6201 744.07 80.6201C739.29 80.6101 735.42 77.7402 735.42 72.6602ZM752.41 69.9199V66.1201C751.52 66.9901 747.68 67.47 745.52 67.73C741.07 68.28 738.46 69.6198 738.46 72.7998C738.46 75.9798 741.03 77.8198 744.47 77.8198C749.34 77.8198 752.41 74.2399 752.41 69.9199Z" fill="#53284F"/>
<path d="M771.53 56.3599H765.96V73.1401C765.96 76.4501 767.86 77.4199 769.93 77.4199C770.74 77.4199 771.28 77.3002 771.71 77.1802L772.36 79.9302C771.78 80.1502 770.92 80.3901 769.65 80.3901C766.28 80.3901 762.89 78.1501 762.89 73.8501V56.3501H758.97V53.6899H762.89V47.3901H765.96V53.6899H771.53V56.3599Z" fill="#53284F"/>
<path d="M567.93 90.8799C567.93 89.6799 568.96 88.6899 570.21 88.6899C571.46 88.6899 572.5 89.6799 572.5 90.8799C572.5 92.0799 571.46 93.0698 570.21 93.0698C568.96 93.0698 567.93 92.0799 567.93 90.8799ZM568.65 97.5898H571.72V123.89H568.65V97.5898Z" fill="#53284F"/>
<path d="M587.16 110.81C587.16 102.71 591.54 97.23 598.03 97.23C602.84 97.23 605.02 100.25 606.06 102.61H606.33V88.8198H609.4V123.89H606.42V119.01H606.06C604.98 121.41 602.75 124.44 597.98 124.44C591.52 124.44 587.16 118.98 587.16 110.81ZM606.39 110.76C606.39 104.46 603.48 100.01 598.34 100.01C593.07 100.01 590.22 104.7 590.22 110.76C590.22 116.89 593.1 121.65 598.34 121.65C603.44 121.65 606.39 117.11 606.39 110.76Z" fill="#53284F"/>
<path d="M614.35 110.9C614.35 102.94 619.06 97.23 625.87 97.23C631.57 97.23 637 101.36 637 110.14V111.65H617.41C617.55 117.73 620.95 121.65 626.33 121.65C630.06 121.65 632.44 119.7 633.45 117.34L636.34 118.28C635.14 121.58 631.6 124.44 626.32 124.44C618.97 124.44 614.35 118.88 614.35 110.9ZM633.89 108.96C633.89 103.89 630.59 100 625.88 100C621.07 100 617.76 104.06 617.44 108.96H633.89Z" fill="#53284F"/>
<path d="M641.37 97.5898H644.33V101.63H644.61C645.65 98.9099 648.22 97.25 651.66 97.25C655.29 97.25 657.6 99.0498 658.77 102.03H658.99C660.17 99.1198 662.95 97.25 666.78 97.25C671.66 97.25 674.69 100.38 674.69 106.28V123.9H671.64V106.28C671.64 102.13 669.33 100.05 665.85 100.05C661.84 100.05 659.58 102.8 659.58 106.59V123.9H656.46V106C656.46 102.44 654.37 100.04 650.77 100.04C647.12 100.04 644.4 102.95 644.4 107.04V123.89H641.35V97.5898H641.37Z" fill="#53284F"/>
<path d="M679.07 110.87C679.07 102.8 683.83 97.2402 690.65 97.2402C697.47 97.2402 702.23 102.8 702.23 110.87C702.23 118.88 697.47 124.45 690.65 124.45C683.83 124.44 679.07 118.88 679.07 110.87ZM699.15 110.87C699.15 104.98 696.1 100.01 690.64 100.01C685.18 100.01 682.13 104.97 682.13 110.87C682.13 116.76 685.18 121.66 690.64 121.66C696.11 121.65 699.15 116.75 699.15 110.87Z" fill="#53284F"/>
<path d="M705.23 110.87C705.23 102.95 709.92 97.2402 716.81 97.2402C722.08 97.2402 726.16 100.53 726.88 105.41H723.8C723.15 102.43 720.61 100.02 716.86 100.02C711.81 100.02 708.3 104.4 708.3 110.77C708.3 117.17 711.71 121.66 716.86 121.66C720.35 121.66 723.11 119.59 723.81 116.23H726.89C726.19 120.99 722.33 124.45 716.85 124.45C709.78 124.44 705.23 118.71 705.23 110.87Z" fill="#53284F"/>
<path d="M731.03 97.5898H733.99V101.63H734.21C735.27 98.9699 738.1 97.1899 741.4 97.1899C741.9 97.1899 742.6 97.2202 743.01 97.2402V100.34C742.74 100.3 741.98 100.17 741.18 100.17C737.07 100.17 734.07 102.99 734.07 106.9V123.89H731.02V97.5898H731.03Z" fill="#53284F"/>
<path d="M744.52 116.55C744.52 111.35 748.68 109.68 754.62 108.95C759.04 108.4 761.51 108.37 761.51 106.38V105.76C761.51 102.16 759.3 99.9702 755.31 99.9702C751.51 99.9702 749.13 101.9 748.17 104.17L745.28 103.13C747.06 98.8299 751.21 97.2402 755.23 97.2402C759.25 97.2402 764.56 98.9898 764.56 106.05V123.91H761.51V119.75H761.32C760.22 122.08 757.55 124.51 753.17 124.51C748.39 124.5 744.52 121.62 744.52 116.55ZM761.51 113.81V110.01C760.62 110.88 756.78 111.36 754.62 111.62C750.17 112.17 747.56 113.51 747.56 116.69C747.56 119.87 750.13 121.71 753.57 121.71C758.45 121.7 761.51 118.13 761.51 113.81ZM748.94 86.1699H752.55L756.93 93.9502H754.19L748.94 86.1699Z" fill="#53284F"/>
<path d="M768.92 110.87C768.92 102.95 773.61 97.2402 780.5 97.2402C785.77 97.2402 789.85 100.53 790.57 105.41H787.49C786.84 102.43 784.3 100.02 780.55 100.02C775.5 100.02 771.99 104.4 771.99 110.77C771.99 117.17 775.4 121.66 780.55 121.66C784.04 121.66 786.8 119.59 787.5 116.23H790.58C789.88 120.99 786.02 124.45 780.54 124.45C773.48 124.44 768.92 118.71 768.92 110.87Z" fill="#53284F"/>
<path d="M794.04 90.8799C794.04 89.6799 795.07 88.6899 796.32 88.6899C797.57 88.6899 798.61 89.6799 798.61 90.8799C798.61 92.0799 797.57 93.0698 796.32 93.0698C795.07 93.0698 794.04 92.0799 794.04 90.8799ZM794.76 97.5898H797.83V123.89H794.76V97.5898Z" fill="#53284F"/>
<path d="M802.25 116.55C802.25 111.35 806.41 109.68 812.35 108.95C816.77 108.4 819.24 108.37 819.24 106.38V105.76C819.24 102.16 817.03 99.9702 813.04 99.9702C809.24 99.9702 806.86 101.9 805.9 104.17L803.01 103.13C804.79 98.8299 808.94 97.2402 812.96 97.2402C816.98 97.2402 822.29 98.9898 822.29 106.05V123.91H819.24V119.75H819.05C817.95 122.08 815.28 124.51 810.9 124.51C806.12 124.5 802.25 121.62 802.25 116.55ZM819.24 113.81V110.01C818.35 110.88 814.51 111.36 812.35 111.62C807.9 112.17 805.29 113.51 805.29 116.69C805.29 119.87 807.86 121.71 811.3 121.71C816.18 121.7 819.24 118.13 819.24 113.81Z" fill="#53284F"/>
<path d="M0.189941 6.91016H42.3501C66.6201 6.91016 80.6499 21.8799 80.6499 43.1299C80.6499 64.4699 66.35 79.1299 41.77 79.1299H22.7798V113.78H0.180176V6.91016H0.189941ZM38.1299 61.02C51.0699 61.02 57.3799 53.7101 57.3799 43.1201C57.3799 32.4701 51.07 25.3799 38.02 25.3799H22.7798V61.02H38.1299Z" fill="#53284F"/>
<path d="M109.95 113.78H87.7202V6.91016H109.95V113.78Z" fill="#53284F"/>
<path d="M116.57 91.3999C116.57 73.4999 130.81 68.1802 146.68 66.7202C160.61 65.3602 166.09 64.69 166.09 59.52V59.21C166.09 52.63 161.76 48.8301 154.19 48.8301C146.21 48.8301 141.46 52.7398 139.95 58.0698L119.39 56.3999C122.47 41.7899 135.1 32.6099 154.3 32.6099C172.15 32.6099 188.32 40.6502 188.32 59.7402V113.8H167.24V102.69H166.61C162.7 110.15 155.03 115.32 143.18 115.32C127.89 115.29 116.57 107.25 116.57 91.3999ZM166.24 85.1299V76.6201C163.58 78.4001 155.65 79.5402 150.79 80.2202C142.96 81.3202 137.8 84.3902 137.8 90.6602C137.8 96.7602 142.7 99.9502 149.54 99.9502C159.3 99.9502 166.24 93.5299 166.24 85.1299Z" fill="#53284F"/>
<path d="M240.84 50.3301H225.76V89.1499C225.76 95.2999 228.84 96.98 233.28 96.98C235.37 96.98 237.72 96.46 238.81 96.25L242.3 112.79C240.06 113.52 235.99 114.67 230.25 114.88C214.13 115.56 203.43 107.78 203.53 92.0698V50.3301H192.57V33.6299H203.53V14.4302H225.76V33.6299H240.84V50.3301Z" fill="#53284F"/>
<path d="M243.95 74.02C243.95 49.18 259.08 32.5898 283.4 32.5898C307.72 32.5898 322.85 49.18 322.85 74.02C322.85 98.7 307.72 115.35 283.4 115.35C259.08 115.35 243.95 98.7 243.95 74.02ZM300.26 73.8599C300.26 59.8799 294.52 49.5498 283.51 49.5498C272.29 49.5498 266.55 59.8799 266.55 73.8599C266.55 87.8499 272.29 98.1299 283.51 98.1299C294.52 98.1299 300.26 87.8399 300.26 73.8599Z" fill="#53284F"/>
<path d="M352.35 113.78H330.12V33.6299H351.31V47.77H352.25C355.85 38.43 364.46 32.5801 376.36 32.5801C393.06 32.5801 404.02 44.0602 404.02 62.7402V113.78H381.79V66.71C381.84 56.9 376.47 51.0601 367.54 51.0601C358.57 51.0601 352.41 57.1099 352.36 67.4399V113.78H352.35Z" fill="#53284F"/>
<path d="M413.42 12.0298C413.42 5.86979 418.85 0.810059 425.42 0.810059C432.05 0.810059 437.47 5.86979 437.47 12.0298C437.47 18.2398 432.04 23.2998 425.42 23.2998C418.84 23.2998 413.42 18.2398 413.42 12.0298ZM414.25 33.6299H436.48V113.78H414.25V33.6299Z" fill="#53284F"/>
<path d="M499.82 143.84V100.94H499.14C496.06 107.62 489.33 115.09 476.39 115.09C458.13 115.09 443.88 100.64 443.88 73.8101C443.88 46.2601 458.75 32.5898 476.34 32.5898C489.75 32.5898 496.17 40.5801 499.14 47.1001H500.13V33.6401H522.05V143.85H499.82V143.84ZM483.44 50.27C472.43 50.27 466.59 59.8202 466.59 73.7002C466.59 87.6902 472.54 97.3901 483.44 97.3901C494.14 97.3901 500.29 88.0002 500.29 73.7002C500.29 59.4002 494.24 50.27 483.44 50.27Z" fill="#53284F"/>
</svg>
