<svg width="823" height="144" viewBox="0 0 823 144" fill="none" xmlns="http://www.w3.org/2000/svg">
<path d="M593.5 55.46C592.52 50.66 588.33 47.0298 582.83 47.0298C576.19 47.0298 570.77 52.3198 570.77 62.0298C570.77 71.7698 576.18 77.0298 582.83 77.0298C588.33 77.0298 592.52 73.4101 593.5 68.6001H596.72C595.57 75.0401 590.3 80.04 582.83 80.04C573.98 80.04 567.67 72.9998 567.67 62.0298C567.67 51.0598 573.97 44.02 582.83 44.02C590.3 44.02 595.57 49 596.72 55.46H593.5Z" fill="#1D1D1B"/>
<path d="M601.29 53.27H604.25V57.3101H604.47C605.53 54.6501 608.36 52.8701 611.66 52.8701C612.16 52.8701 612.86 52.8999 613.27 52.9199V56.02C613 55.98 612.24 55.8501 611.44 55.8501C607.33 55.8501 604.33 58.6701 604.33 62.5801V79.5698H601.28V53.27H601.29Z" fill="#1D1D1B"/>
<path d="M613.91 66.5698C613.91 58.6098 618.62 52.8999 625.43 52.8999C631.13 52.8999 636.56 57.0301 636.56 65.8101V67.3198H616.97C617.11 73.3998 620.51 77.3198 625.89 77.3198C629.62 77.3198 632 75.3698 633.01 73.0098L635.9 73.9502C634.7 77.2502 631.16 80.1099 625.88 80.1099C618.54 80.1199 613.91 74.5598 613.91 66.5698ZM633.45 64.6401C633.45 59.5701 630.15 55.6802 625.44 55.6802C620.63 55.6802 617.32 59.7401 617 64.6401H633.45Z" fill="#1D1D1B"/>
<path d="M639.63 72.2202C639.63 67.0202 643.79 65.3501 649.73 64.6201C654.15 64.0701 656.62 64.0398 656.62 62.0498V61.4302C656.62 57.8302 654.41 55.6401 650.42 55.6401C646.62 55.6401 644.24 57.5698 643.28 59.8398L640.39 58.7998C642.17 54.4998 646.32 52.9102 650.34 52.9102C654.36 52.9102 659.67 54.6602 659.67 61.7202V79.5801H656.62V75.4199H656.43C655.33 77.7499 652.66 80.1802 648.28 80.1802C643.5 80.1702 639.63 77.3002 639.63 72.2202ZM656.62 69.48V65.6802C655.73 66.5502 651.89 67.03 649.73 67.29C645.28 67.84 642.67 69.1799 642.67 72.3599C642.67 75.5399 645.24 77.3799 648.68 77.3799C653.55 77.3799 656.62 73.8 656.62 69.48Z" fill="#1D1D1B"/>
<path d="M675.74 55.9199H670.18V72.7002C670.18 76.0102 672.08 76.98 674.15 76.98C674.96 76.98 675.5 76.8602 675.93 76.7402L676.58 79.4902C676 79.7102 675.14 79.9502 673.87 79.9502C670.5 79.9502 667.11 77.7102 667.11 73.4102V55.9102H663.19V53.25H667.11V46.9502H670.18V53.25H675.74V55.9199Z" fill="#1D1D1B"/>
<path d="M679.58 46.5498C679.58 45.3498 680.61 44.3599 681.86 44.3599C683.11 44.3599 684.15 45.3498 684.15 46.5498C684.15 47.7498 683.11 48.7402 681.86 48.7402C680.61 48.7502 679.58 47.7498 679.58 46.5498ZM680.3 53.27H683.37V79.5698H680.3V53.27Z" fill="#1D1D1B"/>
<path d="M699.85 79.5698H696.59L686.98 53.27H690.28L698.09 75.5498H698.33L706.14 53.27H709.44L699.85 79.5698Z" fill="#1D1D1B"/>
<path d="M712.33 46.5498C712.33 45.3498 713.36 44.3599 714.61 44.3599C715.86 44.3599 716.9 45.3498 716.9 46.5498C716.9 47.7498 715.86 48.7402 714.61 48.7402C713.35 48.7502 712.33 47.7498 712.33 46.5498ZM713.04 53.27H716.11V79.5698H713.04V53.27Z" fill="#1D1D1B"/>
<path d="M732.2 55.9199H726.64V72.7002C726.64 76.0102 728.54 76.98 730.61 76.98C731.42 76.98 731.96 76.8602 732.39 76.7402L733.04 79.4902C732.46 79.7102 731.6 79.9502 730.33 79.9502C726.96 79.9502 723.57 77.7102 723.57 73.4102V55.9102H719.65V53.25H723.57V46.9502H726.64V53.25H732.2V55.9199Z" fill="#1D1D1B"/>
<path d="M735.42 72.2202C735.42 67.0202 739.58 65.3501 745.52 64.6201C749.94 64.0701 752.41 64.0398 752.41 62.0498V61.4302C752.41 57.8302 750.2 55.6401 746.21 55.6401C742.41 55.6401 740.03 57.5698 739.07 59.8398L736.18 58.7998C737.96 54.4998 742.11 52.9102 746.13 52.9102C750.15 52.9102 755.46 54.6602 755.46 61.7202V79.5801H752.41V75.4199H752.22C751.12 77.7499 748.45 80.1802 744.07 80.1802C739.29 80.1702 735.42 77.3002 735.42 72.2202ZM752.41 69.48V65.6802C751.52 66.5502 747.68 67.03 745.52 67.29C741.07 67.84 738.46 69.1799 738.46 72.3599C738.46 75.5399 741.03 77.3799 744.47 77.3799C749.34 77.3799 752.41 73.8 752.41 69.48Z" fill="#1D1D1B"/>
<path d="M771.53 55.9199H765.96V72.7002C765.96 76.0102 767.86 76.98 769.93 76.98C770.74 76.98 771.28 76.8602 771.71 76.7402L772.36 79.4902C771.78 79.7102 770.92 79.9502 769.65 79.9502C766.28 79.9502 762.89 77.7102 762.89 73.4102V55.9102H758.97V53.25H762.89V46.9502H765.96V53.25H771.53V55.9199Z" fill="#1D1D1B"/>
<path d="M567.93 90.4399C567.93 89.2399 568.96 88.25 570.21 88.25C571.46 88.25 572.5 89.2399 572.5 90.4399C572.5 91.6399 571.46 92.6299 570.21 92.6299C568.96 92.6299 567.93 91.6399 567.93 90.4399ZM568.65 97.1499H571.72V123.45H568.65V97.1499Z" fill="#1D1D1B"/>
<path d="M587.16 110.37C587.16 102.27 591.54 96.79 598.03 96.79C602.84 96.79 605.02 99.8099 606.06 102.17H606.33V88.3799H609.4V123.45H606.42V118.57H606.06C604.98 120.97 602.75 124 597.98 124C591.52 124 587.16 118.54 587.16 110.37ZM606.39 110.32C606.39 104.02 603.48 99.5698 598.34 99.5698C593.07 99.5698 590.22 104.26 590.22 110.32C590.22 116.45 593.1 121.21 598.34 121.21C603.44 121.21 606.39 116.67 606.39 110.32Z" fill="#1D1D1B"/>
<path d="M614.35 110.46C614.35 102.5 619.06 96.79 625.87 96.79C631.57 96.79 637 100.92 637 109.7V111.21H617.41C617.55 117.29 620.95 121.21 626.33 121.21C630.06 121.21 632.44 119.26 633.45 116.9L636.34 117.84C635.14 121.14 631.6 124 626.32 124C618.97 124 614.35 118.44 614.35 110.46ZM633.89 108.52C633.89 103.45 630.59 99.5601 625.88 99.5601C621.07 99.5601 617.76 103.62 617.44 108.52H633.89Z" fill="#1D1D1B"/>
<path d="M641.37 97.1499H644.33V101.19H644.61C645.65 98.4699 648.22 96.8101 651.66 96.8101C655.29 96.8101 657.6 98.6098 658.77 101.59H658.99C660.17 98.6798 662.95 96.8101 666.78 96.8101C671.66 96.8101 674.69 99.9398 674.69 105.84V123.46H671.64V105.84C671.64 101.69 669.33 99.6099 665.85 99.6099C661.84 99.6099 659.58 102.36 659.58 106.15V123.46H656.46V105.56C656.46 102 654.37 99.6001 650.77 99.6001C647.12 99.6001 644.4 102.51 644.4 106.6V123.45H641.35V97.1499H641.37Z" fill="#1D1D1B"/>
<path d="M679.07 110.42C679.07 102.35 683.83 96.79 690.65 96.79C697.47 96.79 702.23 102.35 702.23 110.42C702.23 118.43 697.47 124 690.65 124C683.83 124 679.07 118.44 679.07 110.42ZM699.15 110.42C699.15 104.53 696.1 99.5601 690.64 99.5601C685.18 99.5601 682.13 104.52 682.13 110.42C682.13 116.31 685.18 121.21 690.64 121.21C696.11 121.21 699.15 116.31 699.15 110.42Z" fill="#1D1D1B"/>
<path d="M705.23 110.42C705.23 102.5 709.92 96.79 716.81 96.79C722.08 96.79 726.16 100.08 726.88 104.96H723.8C723.15 101.98 720.61 99.5698 716.86 99.5698C711.81 99.5698 708.3 103.95 708.3 110.32C708.3 116.72 711.71 121.21 716.86 121.21C720.35 121.21 723.11 119.14 723.81 115.78H726.89C726.19 120.54 722.33 124 716.85 124C709.78 124 705.23 118.27 705.23 110.42Z" fill="#1D1D1B"/>
<path d="M731.03 97.1499H733.99V101.19H734.21C735.27 98.5299 738.1 96.75 741.4 96.75C741.9 96.75 742.6 96.7798 743.01 96.7998V99.8999C742.74 99.8599 741.98 99.73 741.18 99.73C737.07 99.73 734.07 102.55 734.07 106.46V123.45H731.02V97.1499H731.03Z" fill="#1D1D1B"/>
<path d="M744.52 116.11C744.52 110.91 748.68 109.24 754.62 108.51C759.04 107.96 761.51 107.93 761.51 105.94V105.32C761.51 101.72 759.3 99.5298 755.31 99.5298C751.51 99.5298 749.13 101.46 748.17 103.73L745.28 102.69C747.06 98.3899 751.21 96.7998 755.23 96.7998C759.25 96.7998 764.56 98.5499 764.56 105.61V123.47H761.51V119.31H761.32C760.22 121.64 757.55 124.07 753.17 124.07C748.39 124.05 744.52 121.18 744.52 116.11ZM761.51 113.37V109.57C760.62 110.44 756.78 110.92 754.62 111.18C750.17 111.73 747.56 113.07 747.56 116.25C747.56 119.43 750.13 121.27 753.57 121.27C758.45 121.26 761.51 117.68 761.51 113.37ZM748.94 85.73H752.55L756.93 93.5098H754.19L748.94 85.73Z" fill="#1D1D1B"/>
<path d="M768.92 110.42C768.92 102.5 773.61 96.79 780.5 96.79C785.77 96.79 789.85 100.08 790.57 104.96H787.49C786.84 101.98 784.3 99.5698 780.55 99.5698C775.5 99.5698 771.99 103.95 771.99 110.32C771.99 116.72 775.4 121.21 780.55 121.21C784.04 121.21 786.8 119.14 787.5 115.78H790.58C789.88 120.54 786.02 124 780.54 124C773.48 124 768.92 118.27 768.92 110.42Z" fill="#1D1D1B"/>
<path d="M794.04 90.4399C794.04 89.2399 795.07 88.25 796.32 88.25C797.57 88.25 798.61 89.2399 798.61 90.4399C798.61 91.6399 797.57 92.6299 796.32 92.6299C795.07 92.6299 794.04 91.6399 794.04 90.4399ZM794.76 97.1499H797.83V123.45H794.76V97.1499Z" fill="#1D1D1B"/>
<path d="M802.25 116.11C802.25 110.91 806.41 109.24 812.35 108.51C816.77 107.96 819.24 107.93 819.24 105.94V105.32C819.24 101.72 817.03 99.5298 813.04 99.5298C809.24 99.5298 806.86 101.46 805.9 103.73L803.01 102.69C804.79 98.3899 808.94 96.7998 812.96 96.7998C816.98 96.7998 822.29 98.5499 822.29 105.61V123.47H819.24V119.31H819.05C817.95 121.64 815.28 124.07 810.9 124.07C806.12 124.05 802.25 121.18 802.25 116.11ZM819.24 113.37V109.57C818.35 110.44 814.51 110.92 812.35 111.18C807.9 111.73 805.29 113.07 805.29 116.25C805.29 119.43 807.86 121.27 811.3 121.27C816.18 121.26 819.24 117.68 819.24 113.37Z" fill="#1D1D1B"/>
<path d="M0.189941 6.47021H42.3501C66.6201 6.47021 80.6499 21.4399 80.6499 42.6899C80.6499 64.0299 66.35 78.6899 41.77 78.6899H22.7798V113.34H0.180176V6.47021H0.189941ZM38.1299 60.5801C51.0699 60.5801 57.3799 53.2702 57.3799 42.6802C57.3799 32.0302 51.07 24.9399 38.02 24.9399H22.7798V60.5801H38.1299Z" fill="#1D1D1B"/>
<path d="M109.95 113.34H87.7202V6.47021H109.95V113.34Z" fill="#1D1D1B"/>
<path d="M116.57 90.9502C116.57 73.0502 130.81 67.73 146.68 66.27C160.61 64.91 166.09 64.2398 166.09 59.0698V58.7598C166.09 52.1798 161.76 48.3799 154.19 48.3799C146.21 48.3799 141.46 52.2901 139.95 57.6201L119.39 55.9502C122.47 41.3402 135.1 32.1602 154.3 32.1602C172.15 32.1602 188.32 40.2 188.32 59.29V113.35H167.24V102.24H166.61C162.7 109.7 155.03 114.87 143.18 114.87C127.89 114.85 116.57 106.81 116.57 90.9502ZM166.24 84.6899V76.1802C163.58 77.9602 155.65 79.0998 150.79 79.7798C142.96 80.8798 137.8 83.9502 137.8 90.2202C137.8 96.3202 142.7 99.5098 149.54 99.5098C159.3 99.5098 166.24 93.0899 166.24 84.6899Z" fill="#1D1D1B"/>
<path d="M240.84 49.8901H225.76V88.71C225.76 94.86 228.84 96.54 233.28 96.54C235.37 96.54 237.72 96.0201 238.81 95.8101L242.3 112.35C240.06 113.08 235.99 114.23 230.25 114.44C214.13 115.12 203.43 107.34 203.53 91.6299V49.8901H192.57V33.1899H203.53V13.9902H225.76V33.1899H240.84V49.8901Z" fill="#1D1D1B"/>
<path d="M243.95 73.5801C243.95 48.7401 259.08 32.1499 283.4 32.1499C307.72 32.1499 322.85 48.7401 322.85 73.5801C322.85 98.2601 307.72 114.91 283.4 114.91C259.08 114.91 243.95 98.2601 243.95 73.5801ZM300.26 73.4199C300.26 59.4399 294.52 49.1099 283.51 49.1099C272.29 49.1099 266.55 59.4399 266.55 73.4199C266.55 87.4099 272.29 97.6899 283.51 97.6899C294.52 97.6799 300.26 87.3999 300.26 73.4199Z" fill="#1D1D1B"/>
<path d="M352.35 113.34H330.12V33.1899H351.31V47.3301H352.25C355.85 37.9901 364.46 32.1401 376.36 32.1401C393.06 32.1401 404.02 43.6198 404.02 62.2998V113.34H381.79V66.27C381.84 56.46 376.47 50.6201 367.54 50.6201C358.57 50.6201 352.41 56.67 352.36 67V113.34H352.35Z" fill="#1D1D1B"/>
<path d="M413.42 11.5801C413.42 5.42008 418.85 0.359863 425.42 0.359863C432.05 0.359863 437.47 5.42008 437.47 11.5801C437.47 17.7901 432.04 22.8501 425.42 22.8501C418.84 22.8501 413.42 17.8001 413.42 11.5801ZM414.25 33.1899H436.48V113.34H414.25V33.1899Z" fill="#1D1D1B"/>
<path d="M499.82 143.39V100.49H499.14C496.06 107.17 489.33 114.64 476.39 114.64C458.13 114.64 443.88 100.19 443.88 73.3599C443.88 45.8099 458.75 32.1401 476.34 32.1401C489.75 32.1401 496.17 40.1299 499.14 46.6499H500.13V33.1899H522.05V143.4H499.82V143.39ZM483.44 49.8301C472.43 49.8301 466.59 59.3798 466.59 73.2598C466.59 87.2498 472.54 96.9502 483.44 96.9502C494.14 96.9502 500.29 87.5598 500.29 73.2598C500.29 58.9598 494.24 49.8301 483.44 49.8301Z" fill="#1D1D1B"/>
</svg>
